<svg width="102" height="63" viewBox="0 0 102 63" fill="none" xmlns="http://www.w3.org/2000/svg">
<path d="M71.2881 49.0665C77.6738 48.6105 84.911 49.5224 90.5332 50.5411C93.3482 51.0512 95.7665 51.5891 97.4814 52.0001C98.3389 52.2056 99.021 52.3795 99.4893 52.5021C99.7232 52.5633 99.9039 52.6124 100.026 52.6456C100.088 52.6622 100.134 52.675 100.166 52.6837C100.182 52.6881 100.194 52.6912 100.202 52.6935C100.206 52.6945 100.209 52.6949 100.211 52.6954C100.212 52.6957 100.213 52.6963 100.214 52.6964H100.215L100.284 52.7159L100.345 52.754V52.755H100.347L100.349 52.757C100.35 52.758 100.352 52.7594 100.354 52.7609C100.359 52.7638 100.365 52.7671 100.372 52.7716C100.385 52.7806 100.403 52.7934 100.424 52.8087C100.466 52.8394 100.523 52.8831 100.588 52.9396C100.717 53.0516 100.886 53.2189 101.038 53.4415C101.35 53.8974 101.593 54.5864 101.307 55.4445C101.037 56.2546 100.56 56.6695 100.101 56.8585C99.8809 56.949 99.6803 56.9814 99.5322 56.9913C99.458 56.9963 99.3954 56.9956 99.3486 56.9933C99.3253 56.9921 99.3055 56.9909 99.29 56.9894C99.2823 56.9886 99.2751 56.9881 99.2695 56.9874C99.2668 56.9871 99.2639 56.9867 99.2617 56.9865L99.2588 56.9855H99.2568L99.3271 56.4904L99.2559 56.9855L99.2236 56.9806L99.1924 56.9718H99.1904C99.189 56.9714 99.1866 56.9707 99.1836 56.9698C99.1772 56.9681 99.1673 56.9646 99.1543 56.9611C99.1282 56.9539 99.0883 56.9438 99.0361 56.9298C98.9318 56.9018 98.7764 56.86 98.5732 56.8077C98.1667 56.7031 97.5689 56.5546 96.8076 56.3781C95.2844 56.0247 93.1067 55.5605 90.4932 55.1202C85.2622 54.239 78.3009 53.4546 71.3506 53.8282C64.4217 54.2008 59.2897 55.9129 55.6895 57.6017C53.8882 58.4466 52.4665 59.2876 51.3887 59.9572C50.8612 60.2849 50.3831 60.5924 50.0166 60.8175C49.6521 61.0414 49.3235 61.231 49.0615 61.3263C48.1896 61.6434 47.3605 61.8015 46.752 61.88C46.447 61.9193 46.1949 61.9384 46.0176 61.9484C45.9289 61.9534 45.8586 61.9559 45.8096 61.9572C45.7851 61.9578 45.7656 61.9589 45.752 61.9591H45.7061C45.6931 61.959 45.6747 61.9586 45.6514 61.9581C45.604 61.9572 45.5355 61.955 45.4502 61.9513C45.2797 61.9439 45.0391 61.9289 44.7549 61.8995C44.19 61.8411 43.4352 61.7233 42.71 61.4816C42.4815 61.4054 42.2031 61.2498 41.9072 61.0743C41.7526 60.9826 41.5803 60.8773 41.3936 60.7638C41.2058 60.6496 41.0008 60.5254 40.7773 60.3927C39.8856 59.8632 38.6918 59.1974 37.1377 58.5314C34.0312 57.2 29.4628 55.8586 22.9775 55.6349C16.4564 55.41 11.3635 55.7851 7.90625 56.215C6.17765 56.4299 4.85786 56.6589 3.97266 56.8331C3.53006 56.9203 3.19567 56.9936 2.97363 57.045C2.86297 57.0707 2.7802 57.091 2.72559 57.1046C2.69847 57.1114 2.67814 57.1169 2.66504 57.1202C2.6586 57.1219 2.65337 57.1224 2.65039 57.1232C2.64911 57.1235 2.64807 57.124 2.64746 57.1241L2.58398 57.1407H2.51855V56.6407L2.51758 57.1407H2.48535C2.4689 57.1401 2.44688 57.1389 2.4209 57.1368C2.36899 57.1328 2.29825 57.1247 2.21484 57.1095C2.04977 57.0795 1.82459 57.0191 1.58984 56.8956C1.09587 56.6356 0.609023 56.1184 0.515625 55.1857C0.424439 54.2739 0.749014 53.6692 1.14258 53.3019C1.33043 53.1266 1.52301 53.0147 1.66895 52.9464C1.74247 52.912 1.806 52.8875 1.85352 52.8712C1.87728 52.8631 1.89758 52.8572 1.91309 52.8527C1.91514 52.8521 1.91705 52.8513 1.91895 52.8507C1.92279 52.8494 1.92761 52.8476 1.93262 52.8458C1.9528 52.8388 1.9824 52.8286 2.02051 52.8156C2.09725 52.7894 2.20964 52.7517 2.35156 52.7052C2.63549 52.6122 3.04014 52.4837 3.52539 52.3409C4.49452 52.0559 5.79376 51.7119 7.09863 51.4816C9.68281 51.0255 17.8778 49.6602 28.6484 51.4806C34.0246 52.3892 37.4419 53.4513 39.8223 54.3273C40.9959 54.7592 41.9476 55.1577 42.6963 55.4445C43.4656 55.7391 44.0479 55.927 44.5859 55.9943C45.8086 56.1471 46.3704 56.2159 46.7637 56.2159C47.1181 56.2159 47.3196 56.1613 47.8496 56.0099C47.9299 55.9869 48.1481 55.8889 48.5566 55.6925C48.9398 55.5083 49.4599 55.2538 50.085 54.9572C51.3413 54.3609 53.0524 53.5827 55.1289 52.7863C59.2801 51.194 64.9009 49.5228 71.2881 49.0665Z" fill="#8B4513" stroke="#8B4513"/>
<path d="M89.6034 39.1285C91.2624 39.1475 92.5032 39.2229 93.3319 39.2946C93.7459 39.3304 94.0571 39.3652 94.2665 39.3912C94.3712 39.4043 94.451 39.4148 94.5048 39.4225C94.5315 39.4263 94.5521 39.4301 94.5663 39.4323C94.5732 39.4333 94.579 39.4336 94.5829 39.4342C94.5847 39.4345 94.5866 39.435 94.5878 39.4352H94.5897L94.5887 39.4362C94.5956 39.4371 94.6048 39.4375 94.6161 39.4391C94.6427 39.4428 94.6817 39.4486 94.7303 39.4557C94.8276 39.4699 94.9658 39.4905 95.1307 39.5182C95.4598 39.5734 95.9011 39.6558 96.3407 39.7633C96.7729 39.869 97.2338 40.006 97.5868 40.1783C97.7603 40.2631 97.9448 40.3739 98.0848 40.5211C98.2303 40.6741 98.3735 40.9216 98.3114 41.2321C98.2866 41.3559 98.2198 41.4958 98.1669 41.6002C98.1038 41.7245 98.0188 41.877 97.9188 42.0485C97.7184 42.3923 97.4431 42.8371 97.121 43.3434C96.4757 44.3574 95.6308 45.6361 94.7928 46.8883C93.9544 48.1413 93.1208 49.371 92.4969 50.2867C92.1851 50.7445 91.9256 51.1241 91.744 51.3893C91.6532 51.5219 91.5817 51.626 91.5331 51.6969C91.5088 51.7323 91.49 51.7597 91.4774 51.778C91.4713 51.7869 91.4669 51.7939 91.4637 51.7985C91.4623 51.8006 91.4606 51.8022 91.4598 51.8033L91.4589 51.8053L91.2548 52.1022L90.9091 52.0026L88.8016 51.401L88.1073 51.2028L88.537 50.6227V50.6217L88.538 50.6207C88.5386 50.6198 88.5396 50.6185 88.5409 50.6168C88.5437 50.613 88.548 50.6068 88.5536 50.5992C88.5649 50.584 88.5824 50.5616 88.6044 50.5319C88.6482 50.4724 88.712 50.3844 88.7938 50.2731C88.9575 50.0504 89.1913 49.732 89.4706 49.3483C90.0295 48.5804 90.7711 47.5526 91.5028 46.5114C92.2356 45.4685 92.955 44.4173 93.4706 43.6022C93.7294 43.193 93.9303 42.8538 94.0555 42.609C94.0636 42.5933 94.0699 42.5775 94.077 42.5631C93.9162 42.4965 93.6803 42.4178 93.3573 42.3365C92.6552 42.1599 91.5756 41.9797 90.035 41.8776C86.9548 41.6734 82.0594 41.7821 74.7059 42.8326C67.4419 43.8705 60.8571 47.5501 56.0477 50.9205C53.6472 52.6028 51.6983 54.2017 50.3358 55.3453C49.6595 55.913 49.1146 56.3801 48.7401 56.6803C48.5561 56.8278 48.3909 56.9529 48.2616 57.0319C48.2066 57.0654 48.1084 57.1225 47.996 57.1481C47.9501 57.1585 47.8534 57.1733 47.7382 57.1451C47.7004 57.1565 47.6548 57.1699 47.5917 57.1881C47.5451 57.2016 47.4879 57.2168 47.4315 57.2281C47.3864 57.2373 47.2923 57.2548 47.1893 57.2438C47.1367 57.2381 47.0371 57.2206 46.9364 57.153C46.8175 57.0729 46.732 56.9455 46.7089 56.7946C46.6892 56.6663 46.7206 56.5619 46.7421 56.5065C46.7652 56.4468 46.7952 56.3976 46.8192 56.3619L47.0487 56.0485C47.658 55.2634 48.7907 54.1114 50.288 52.7946C52.0115 51.2787 54.2514 49.514 56.8124 47.7887C61.9233 44.3455 68.3666 41.0225 74.5692 40.1862C81.2922 39.2797 86.2851 39.0906 89.6034 39.1285Z" fill="#8B4513" stroke="#8B4513"/>
<path d="M86.4725 23.4543C88.2258 23.2542 89.5651 23.221 90.4713 23.2379C90.9242 23.2463 91.2692 23.2674 91.5031 23.2868C91.6199 23.2965 91.7095 23.3053 91.7708 23.3123C91.7845 23.3138 91.797 23.3157 91.8079 23.317C91.8319 23.3149 91.8627 23.3123 91.8995 23.3094C91.9929 23.3021 92.1252 23.2928 92.2836 23.2854C92.5986 23.2708 93.0247 23.2623 93.4543 23.2907C93.8738 23.3184 94.3421 23.3839 94.7173 23.5377C95.0813 23.6869 95.535 24.0054 95.5095 24.6012C95.5048 24.7117 95.4724 24.8143 95.4468 24.8847C95.4181 24.9637 95.3803 25.0482 95.338 25.1342C95.2534 25.3068 95.1356 25.5166 94.9948 25.7519C94.7125 26.2239 94.317 26.8349 93.855 27.5344C92.9261 28.9409 91.7217 30.7157 90.5636 32.5211L90.5562 32.532L90.5479 32.543C89.2065 34.4061 88.0493 36.3099 87.2265 37.7498C86.8154 38.4691 86.4884 39.0712 86.2646 39.493C86.1528 39.7038 86.0672 39.8698 86.0093 39.9824C85.9804 40.0386 85.9587 40.0818 85.9441 40.1106C85.937 40.1246 85.9313 40.1353 85.9278 40.1424C85.926 40.1458 85.9248 40.1491 85.924 40.1508L85.9223 40.153L85.7837 40.4293L85.4752 40.4291L83.2171 40.4298L82.5102 40.429L82.7453 39.763L82.7461 39.7619L82.7468 39.7599C82.7474 39.7582 82.7478 39.7555 82.7488 39.7527C82.751 39.7467 82.7541 39.7377 82.7581 39.7268C82.7662 39.7049 82.7786 39.6732 82.7944 39.6321C82.8261 39.5498 82.874 39.4294 82.9394 39.2732C83.0703 38.9607 83.2717 38.5042 83.5586 37.9208C84.1323 36.7542 85.0466 35.0787 86.4142 33.0272C87.7723 30.9902 89.0369 29.1804 89.9488 27.8652C90.4031 27.2099 90.7664 26.6808 91.0127 26.3061C90.9988 26.3057 90.9846 26.3053 90.9702 26.305C90.5178 26.296 89.901 26.3139 89.2289 26.3512C87.8809 26.4261 86.362 26.5759 85.5645 26.7209C83.8539 27.0319 78.3122 27.3925 72.138 30.2942C64.7244 33.7786 58.6125 40.5102 54.3211 46.4121C52.1799 49.3568 50.5009 52.082 49.3491 54.0696C48.7736 55.0628 48.3294 55.8716 48.0246 56.4322C47.8732 56.7108 47.7531 56.9341 47.6703 57.084C47.6293 57.1582 47.5936 57.2223 47.5655 57.2689C47.5525 57.2903 47.5344 57.3189 47.5149 57.3458C47.5068 57.357 47.486 57.3851 47.4564 57.4149C47.4427 57.4286 47.41 57.461 47.3613 57.491C47.3292 57.5108 47.1894 57.5938 46.9985 57.5555C46.9635 57.5484 46.7266 57.514 46.5397 57.365C46.4295 57.277 46.3327 57.1487 46.2877 56.9786C46.2448 56.816 46.2594 56.6542 46.3001 56.5077C46.6051 55.4125 47.5459 53.366 48.948 50.8668C50.3579 48.3539 52.2558 45.3453 54.5011 42.3137C58.9765 36.2712 64.8941 30.0542 71.1382 27.5707C77.8028 24.92 82.9648 23.8546 86.4725 23.4543Z" fill="#8B4513" stroke="#8B4513"/>
<path d="M86.9044 4.08191C87.1241 4.0575 87.4268 4.06947 87.6808 4.25476L87.7863 4.3446L87.8575 4.42273C88.1885 4.81576 88.1564 5.29076 88.089 5.58289C88.0511 5.74675 87.9958 5.88731 87.9513 5.98523C87.9287 6.03501 87.9075 6.07575 87.8917 6.10535C87.8889 6.11071 87.8855 6.11535 87.8829 6.12C87.8793 6.12842 87.8754 6.14018 87.8693 6.15417C87.8545 6.18812 87.832 6.23814 87.8038 6.30261C87.7475 6.43161 87.6651 6.61832 87.5626 6.85046C87.3574 7.31513 87.0696 7.96179 86.7394 8.68835C86.0803 10.1384 85.2477 11.9198 84.5626 13.2137C83.875 14.5125 81.7927 17.9174 79.8966 20.9774C78.9457 22.5121 78.0371 23.9672 77.3663 25.038C77.0311 25.5731 76.7557 26.0126 76.5636 26.3182C76.4675 26.4711 76.3921 26.5905 76.3409 26.6718C76.3154 26.7124 76.2955 26.7436 76.2823 26.7645C76.2759 26.7748 76.271 26.7827 76.2677 26.788C76.266 26.7906 76.2646 26.7925 76.2638 26.7938L76.2628 26.7958L76.1749 26.9354L76.0206 26.996L73.3107 28.0497L72.0568 28.537L72.6886 27.3485C74.9331 23.1225 76.6776 20.0757 79.631 15.5751L80.2911 14.5067C81.5215 12.4876 82.3073 11.0103 83.1827 8.96179C83.044 9.01984 82.8976 9.08206 82.7462 9.14343C81.8944 9.48879 80.8311 9.8859 80.1437 10.0087C78.8272 10.2436 72.881 10.886 68.8292 12.6776L68.1241 13.0223C64.6553 14.7487 62.0946 16.4913 59.8468 18.8114C57.4483 21.2871 55.3822 24.4429 52.9581 28.996C49.9699 36.1557 48.8144 43.7997 47.5812 56.8387C47.5525 57.1423 47.3723 57.4314 47.0519 57.5175C46.9054 57.5567 46.7239 57.549 46.5616 57.4481C46.385 57.3382 46.2823 57.148 46.2823 56.9423C46.2823 56.9445 46.2819 56.9387 46.2814 56.911C46.2809 56.8871 46.2801 56.8525 46.2794 56.8085C46.278 56.7204 46.2769 56.593 46.2755 56.4296C46.2726 56.1022 46.2707 55.6291 46.2765 55.0321C46.288 53.8379 46.3284 52.1466 46.4435 50.1288C46.6735 46.0954 47.203 40.7458 48.4025 35.452C49.5339 30.4589 51.377 26.0155 53.2638 22.3846L53.2716 22.37L53.2804 22.3553L53.2814 22.3544C53.2818 22.3537 53.2826 22.3526 53.2833 22.3514C53.2847 22.3492 53.2867 22.3458 53.2892 22.3417C53.2944 22.3331 53.3017 22.3206 53.3116 22.3046C53.3318 22.2719 53.3618 22.2236 53.4005 22.162C53.4781 22.0385 53.592 21.8594 53.7384 21.6356C54.0312 21.188 54.4548 20.5603 54.9777 19.8378C56.0211 18.3959 57.4719 16.5617 59.0841 15.0262C62.3139 11.9503 67.9583 9.05566 71.4786 7.98425C73.2641 7.44086 74.5882 7.32429 75.9171 7.22937C77.2365 7.13513 78.5538 7.06184 80.3907 6.62097C82.2425 6.17652 83.4902 5.69796 84.2667 5.33679C84.6549 5.15624 84.9261 5.00532 85.0958 4.90222C85.1803 4.85087 85.24 4.81116 85.2765 4.78601C85.2947 4.77344 85.3076 4.76375 85.3146 4.75867C85.3179 4.75621 85.3197 4.75434 85.3204 4.75378V4.75476H85.3195V4.75574L85.3331 4.74402L85.3488 4.73425L85.3507 4.7323C85.3518 4.73159 85.3539 4.73146 85.3556 4.73035C85.359 4.72808 85.3634 4.72439 85.3693 4.72058C85.3811 4.71288 85.3981 4.70252 85.4191 4.68933C85.4612 4.66286 85.5211 4.62598 85.5939 4.58386C85.7384 4.50018 85.9412 4.39094 86.1632 4.29578C86.3796 4.20304 86.6431 4.11098 86.9044 4.08191Z" fill="#8B4513" stroke="#8B4513"/>
<path d="M9.22803 43.6161C12.9015 43.5938 17.8298 43.9351 23.0942 45.0096L23.1069 45.0126C32.0392 47.0756 40.3811 51.0671 46.3276 55.4872L46.8159 55.8495L46.3657 56.2587L44.7095 57.7635L44.4028 58.0428L44.0728 57.7928C41.1717 55.6033 36.7022 53.4018 32.4634 51.6483C28.2244 49.8948 24.2789 48.6148 22.4448 48.2479C18.8082 47.5206 12.775 46.5044 5.90186 47.0018C6.50002 48.8603 6.70272 50.0887 6.78174 52.1044L6.79834 52.5253L6.38721 52.6132L4.27979 53.0653L3.7583 53.1766L3.68018 52.6493C3.4029 50.7808 2.9943 49.0743 2.70361 47.7059C2.56 47.0298 2.44307 46.4245 2.39209 45.9354C2.36656 45.6905 2.35541 45.4584 2.37061 45.2518C2.38528 45.0524 2.42716 44.8312 2.5415 44.6405L2.58447 44.578C2.68994 44.4402 2.83456 44.3572 2.93311 44.3085C3.06483 44.2434 3.22331 44.1875 3.39502 44.1385C3.74031 44.0402 4.20047 43.9531 4.75244 43.8788C5.86089 43.7296 7.39219 43.6272 9.22803 43.6161Z" fill="#8B4513" stroke="#8B4513"/>
<path d="M7.96912 20.6385C8.27391 20.5493 8.58328 20.5917 8.88513 20.6874L9.18396 20.7977L9.31775 20.8534L9.40076 20.9716C12.436 25.2713 15.0274 28.3257 18.0336 30.8807C21.0399 33.4359 24.4819 35.5086 29.2357 37.8231H29.2347C32.5703 39.3624 35.6758 41.6315 38.0853 43.746C40.4852 45.852 42.2419 47.8464 42.8451 48.8563C43.4278 49.8321 44.2689 51.7091 44.9535 53.3114C45.2985 54.1187 45.6081 54.8668 45.8314 55.413C45.943 55.6859 46.0338 55.9088 46.0961 56.0634C46.1271 56.1404 46.1509 56.2011 46.1674 56.2421C46.1755 56.2623 46.1817 56.2783 46.1859 56.2889C46.188 56.2942 46.1897 56.2989 46.1908 56.3016C46.1913 56.3029 46.1925 56.3039 46.1927 56.3046V56.3055L46.307 56.5917L46.1029 56.8221L45.7279 56.4901C46.0696 56.7927 46.0995 56.8196 46.1019 56.8221V56.8231L46.0931 56.8319C46.0894 56.8359 46.0856 56.8412 46.0804 56.8466C46.0699 56.8575 46.0561 56.871 46.0394 56.8866C46.0063 56.9176 45.9598 56.957 45.9017 56.9989C45.7876 57.0813 45.6129 57.1825 45.389 57.2303C45.1577 57.2798 44.888 57.2694 44.6058 57.1464C44.3295 57.0259 44.0696 56.8093 43.8265 56.494L43.7904 56.4471L43.766 56.3925C41.9295 52.2528 37.8696 47.0267 33.8734 44.5712L33.8724 44.5702L28.765 41.4149C20.3056 37.0287 15.9463 33.9684 10.6478 27.7313L11.7494 44.1112L11.7855 44.6444H8.52478L8.49353 44.1786L6.98767 21.745L6.97693 21.5887L7.05798 21.454C7.27723 21.0889 7.55121 20.761 7.96912 20.6385Z" fill="#8B4513" stroke="#8B4513"/>
<path d="M22.5325 2.05383C27.1055 0.0145989 34.6434 -0.370123 42.6321 3.07043L43.4065 3.41516L43.4163 3.41907L43.425 3.42395L50.9036 7.25305L50.9856 7.29504L51.0471 7.3634C51.4286 7.78703 51.7621 8.19627 51.9114 8.66614C52.0722 9.17258 52.0003 9.67463 51.759 10.2413L51.7571 10.2452C48.8231 16.9556 47.7302 21.5036 46.9153 31.3331C46.6184 38.0547 46.7764 50.7777 47.5354 56.3702L47.5803 56.6984L47.5393 56.7218L47.6956 57.2921H46.5813L45.842 57.7316L45.1829 58.1241L45.0901 57.3624C45.0631 57.1405 45.0392 56.9133 45.0129 56.6818C42.1894 48.9645 40.3127 44.9395 36.1721 40.1417L36.1643 40.1329L36.1575 40.1241C31.7945 34.5863 29.0324 31.4352 23.6516 26.671L23.6077 26.6329L23.5745 26.5851L18.4739 19.3751L16.7913 30.4708L16.6389 31.4738L15.9368 30.7423L15.1057 29.8781L14.9456 29.7111L14.969 29.4816L16.4182 14.9806C16.1528 11.785 16.4657 9.09642 17.4592 6.92883C18.464 4.73673 20.1464 3.11792 22.5325 2.05383ZM32.2073 3.68469C29.9342 3.52457 27.8875 3.78115 25.3606 4.35168C22.0405 5.42103 20.3376 6.62347 19.675 8.3468C18.9972 10.1102 19.335 12.5812 20.6008 16.3947C23.6163 22.1653 25.9735 25.0646 30.6145 29.0978L31.5764 29.922L31.5872 29.9308L31.5969 29.9406C37.744 35.7513 40.7363 39.8659 44.2708 46.837C43.974 40.2717 43.9919 33.1131 44.5686 28.2804C44.7384 24.4348 45.8439 19.9035 46.8831 16.255C47.4048 14.4229 47.913 12.8006 48.2825 11.5939C48.468 10.988 48.6177 10.4915 48.717 10.1222C48.7668 9.93731 48.8014 9.7918 48.8225 9.68469C48.8292 9.65056 48.8323 9.6241 48.8352 9.60461C48.8164 9.58195 48.788 9.55049 48.7463 9.51184C48.6247 9.399 48.436 9.25793 48.178 9.0929C47.6641 8.76426 46.9388 8.37812 46.092 7.9679C44.4063 7.15123 42.2906 6.26316 40.5344 5.57434C37.0285 4.42859 34.4901 3.84554 32.2073 3.68469Z" fill="#8B4513" stroke="#8B4513"/>
</svg>
