<svg width="25" height="25" viewBox="0 0 25 25" fill="none" xmlns="http://www.w3.org/2000/svg">
<path d="M18.2447 19.9077C16.6011 21.1826 14.5802 21.8747 12.5001 21.875C10.724 21.8777 8.98399 21.3736 7.48443 20.4219L3.12506 21.875L4.57818 17.5156C3.46532 15.7582 2.96853 13.6806 3.16602 11.6099C3.36351 9.53921 4.24407 7.59297 5.66906 6.07762C7.09406 4.56227 8.98256 3.56388 11.0372 3.23962C13.0919 2.91536 15.1961 3.28365 17.0185 4.28652C18.8409 5.28938 20.278 6.86985 21.1036 8.77912C21.9292 10.6884 22.0964 12.818 21.5788 14.8327C21.0613 16.8474 19.8883 18.6327 18.2447 19.9077Z" stroke="#8B4513" stroke-width="2" stroke-linecap="round" stroke-linejoin="round"/>
</svg>
