<svg width="35" height="35" viewBox="0 0 35 35" fill="none" xmlns="http://www.w3.org/2000/svg">
<path fill-rule="evenodd" clip-rule="evenodd" d="M21 3.9375C21 4.98179 20.5852 5.98331 19.8467 6.72173C19.1083 7.46016 18.1068 7.875 17.0625 7.875C16.0182 7.875 15.0167 7.46016 14.2783 6.72173C13.5398 5.98331 13.125 4.98179 13.125 3.9375C13.125 2.89321 13.5398 1.89169 14.2783 1.15327C15.0167 0.414843 16.0182 0 17.0625 0C18.1068 0 19.1083 0.414843 19.8467 1.15327C20.5852 1.89169 21 2.89321 21 3.9375ZM3.9375 21C4.98179 21 5.98331 20.5852 6.72173 19.8467C7.46016 19.1083 7.875 18.1068 7.875 17.0625C7.875 16.0182 7.46016 15.0167 6.72173 14.2783C5.98331 13.5398 4.98179 13.125 3.9375 13.125C2.89321 13.125 1.89169 13.5398 1.15327 14.2783C0.414843 15.0167 0 16.0182 0 17.0625C0 18.1068 0.414843 19.1083 1.15327 19.8467C1.89169 20.5852 2.89321 21 3.9375 21ZM21 17.0625C21 18.1068 20.5852 19.1083 19.8467 19.8467C19.1083 20.5852 18.1068 21 17.0625 21C16.0182 21 15.0167 20.5852 14.2783 19.8467C13.5398 19.1083 13.125 18.1068 13.125 17.0625C13.125 16.0182 13.5398 15.0167 14.2783 14.2783C15.0167 13.5398 16.0182 13.125 17.0625 13.125C18.1068 13.125 19.1083 13.5398 19.8467 14.2783C20.5852 15.0167 21 16.0182 21 17.0625ZM34.125 17.0625C34.125 18.1068 33.7102 19.1083 32.9717 19.8467C32.2333 20.5852 31.2318 21 30.1875 21C29.1432 21 28.1417 20.5852 27.4033 19.8467C26.6648 19.1083 26.25 18.1068 26.25 17.0625C26.25 16.0182 26.6648 15.0167 27.4033 14.2783C28.1417 13.5398 29.1432 13.125 30.1875 13.125C31.2318 13.125 32.2333 13.5398 32.9717 14.2783C33.7102 15.0167 34.125 16.0182 34.125 17.0625ZM30.1875 7.875C31.2318 7.875 32.2333 7.46016 32.9717 6.72173C33.7102 5.98331 34.125 4.98179 34.125 3.9375C34.125 2.89321 33.7102 1.89169 32.9717 1.15327C32.2333 0.414843 31.2318 0 30.1875 0C29.1432 0 28.1417 0.414843 27.4033 1.15327C26.6648 1.89169 26.25 2.89321 26.25 3.9375C26.25 4.98179 26.6648 5.98331 27.4033 6.72173C28.1417 7.46016 29.1432 7.875 30.1875 7.875ZM7.875 3.9375C7.875 4.98179 7.46016 5.98331 6.72173 6.72173C5.98331 7.46016 4.98179 7.875 3.9375 7.875C2.89321 7.875 1.89169 7.46016 1.15327 6.72173C0.414843 5.98331 0 4.98179 0 3.9375C0 2.89321 0.414843 1.89169 1.15327 1.15327C1.89169 0.414843 2.89321 0 3.9375 0C4.98179 0 5.98331 0.414843 6.72173 1.15327C7.46016 1.89169 7.875 2.89321 7.875 3.9375ZM17.0625 34.125C18.1068 34.125 19.1083 33.7102 19.8467 32.9717C20.5852 32.2333 21 31.2318 21 30.1875C21 29.1432 20.5852 28.1417 19.8467 27.4033C19.1083 26.6648 18.1068 26.25 17.0625 26.25C16.0182 26.25 15.0167 26.6648 14.2783 27.4033C13.5398 28.1417 13.125 29.1432 13.125 30.1875C13.125 31.2318 13.5398 32.2333 14.2783 32.9717C15.0167 33.7102 16.0182 34.125 17.0625 34.125ZM34.125 30.1875C34.125 31.2318 33.7102 32.2333 32.9717 32.9717C32.2333 33.7102 31.2318 34.125 30.1875 34.125C29.1432 34.125 28.1417 33.7102 27.4033 32.9717C26.6648 32.2333 26.25 31.2318 26.25 30.1875C26.25 29.1432 26.6648 28.1417 27.4033 27.4033C28.1417 26.6648 29.1432 26.25 30.1875 26.25C31.2318 26.25 32.2333 26.6648 32.9717 27.4033C33.7102 28.1417 34.125 29.1432 34.125 30.1875ZM3.9375 34.125C4.98179 34.125 5.98331 33.7102 6.72173 32.9717C7.46016 32.2333 7.875 31.2318 7.875 30.1875C7.875 29.1432 7.46016 28.1417 6.72173 27.4033C5.98331 26.6648 4.98179 26.25 3.9375 26.25C2.89321 26.25 1.89169 26.6648 1.15327 27.4033C0.414843 28.1417 0 29.1432 0 30.1875C0 31.2318 0.414843 32.2333 1.15327 32.9717C1.89169 33.7102 2.89321 34.125 3.9375 34.125Z" fill="white"/>
</svg>
