<svg width="50" height="25" viewBox="0 0 50 25" fill="none" xmlns="http://www.w3.org/2000/svg">
<path d="M0 25V21.7187C0 20.2257 0.763889 19.0104 2.29167 18.0729C3.81944 17.1354 5.83333 16.6667 8.33333 16.6667C8.78472 16.6667 9.21875 16.6757 9.63542 16.6937C10.0521 16.7118 10.4514 16.7549 10.8333 16.8229C10.3472 17.5521 9.98264 18.316 9.73958 19.1146C9.49653 19.9132 9.375 20.7465 9.375 21.6146V25H0ZM12.5 25V21.6146C12.5 20.5035 12.8042 19.4875 13.4125 18.5667C14.0208 17.6458 14.8799 16.8389 15.9896 16.1458C17.0993 15.4528 18.4278 14.9319 19.975 14.5833C21.5222 14.2347 23.1972 14.0611 25 14.0625C26.8403 14.0625 28.5333 14.2361 30.0792 14.5833C31.625 14.9306 32.9528 15.4514 34.0625 16.1458C35.1722 16.8403 36.0229 17.6479 36.6146 18.5688C37.2062 19.4896 37.5014 20.5049 37.5 21.6146V25H12.5ZM40.625 25V21.6146C40.625 20.7118 40.5125 19.8611 40.2875 19.0625C40.0625 18.2639 39.7236 17.5174 39.2708 16.8229C39.6528 16.7535 40.0437 16.7104 40.4437 16.6937C40.8438 16.6771 41.2514 16.6681 41.6667 16.6667C44.1667 16.6667 46.1806 17.1271 47.7083 18.0479C49.2361 18.9688 50 20.1924 50 21.7187V25H40.625ZM8.33333 14.5833C7.1875 14.5833 6.20694 14.1757 5.39167 13.3604C4.57639 12.5451 4.16806 11.5639 4.16667 10.4167C4.16667 9.23611 4.575 8.24653 5.39167 7.44792C6.20833 6.6493 7.18889 6.25 8.33333 6.25C9.51389 6.25 10.5035 6.6493 11.3021 7.44792C12.1007 8.24653 12.5 9.23611 12.5 10.4167C12.5 11.5625 12.1007 12.5437 11.3021 13.3604C10.5035 14.1771 9.51389 14.5847 8.33333 14.5833ZM41.6667 14.5833C40.5208 14.5833 39.5403 14.1757 38.725 13.3604C37.9097 12.5451 37.5014 11.5639 37.5 10.4167C37.5 9.23611 37.9083 8.24653 38.725 7.44792C39.5417 6.6493 40.5222 6.25 41.6667 6.25C42.8472 6.25 43.8368 6.6493 44.6354 7.44792C45.434 8.24653 45.8333 9.23611 45.8333 10.4167C45.8333 11.5625 45.434 12.5437 44.6354 13.3604C43.8368 14.1771 42.8472 14.5847 41.6667 14.5833ZM25 12.5C23.2639 12.5 21.7882 11.8924 20.5729 10.6771C19.3576 9.46181 18.75 7.98611 18.75 6.25C18.75 4.47917 19.3576 2.99514 20.5729 1.79792C21.7882 0.600694 23.2639 0.00138889 25 0C26.7708 0 28.2556 0.599305 29.4542 1.79792C30.6528 2.99653 31.2514 4.48056 31.25 6.25C31.25 7.98611 30.6514 9.46181 29.4542 10.6771C28.2569 11.8924 26.7722 12.5 25 12.5Z" fill="white"/>
</svg>
