<svg width="40" height="40" viewBox="0 0 40 40" fill="none" xmlns="http://www.w3.org/2000/svg">
<path d="M4.45215 37.1055H3.20215C2.53911 37.1055 1.90322 36.8421 1.43438 36.3732C0.965541 35.9044 0.702148 35.2685 0.702148 34.6055V8.35547C0.702148 7.69243 0.965541 7.05654 1.43438 6.5877C1.90322 6.11886 2.53911 5.85547 3.20215 5.85547H4.45215C5.11519 5.85547 5.75107 6.11886 6.21992 6.5877C6.68876 7.05654 6.95215 7.69243 6.95215 8.35547V34.6055C6.95215 35.2685 6.68876 35.9044 6.21992 36.3732C5.75107 36.8421 5.11519 37.1055 4.45215 37.1055ZM18.2021 13.3555C18.2021 12.6924 17.9388 12.0565 17.4699 11.5877C17.0011 11.1189 16.3652 10.8555 15.7021 10.8555H10.7021C10.0391 10.8555 9.40322 11.1189 8.93438 11.5877C8.46554 12.0565 8.20215 12.6924 8.20215 13.3555V15.543C8.20215 15.6258 8.23507 15.7053 8.29368 15.7639C8.35228 15.8225 8.43177 15.8555 8.51465 15.8555H17.8896C17.9725 15.8555 18.052 15.8225 18.1106 15.7639C18.1692 15.7053 18.2021 15.6258 18.2021 15.543V13.3555ZM8.20215 34.6055C8.20215 35.2685 8.46554 35.9044 8.93438 36.3732C9.40322 36.8421 10.0391 37.1055 10.7021 37.1055H15.7021C16.3652 37.1055 17.0011 36.8421 17.4699 36.3732C17.9388 35.9044 18.2021 35.2685 18.2021 34.6055V32.2617C18.2021 32.2203 18.1857 32.1805 18.1564 32.1512C18.1271 32.1219 18.0873 32.1055 18.0459 32.1055H8.3584C8.31696 32.1055 8.27722 32.1219 8.24791 32.1512C8.21861 32.1805 8.20215 32.2203 8.20215 32.2617V34.6055Z" fill="white"/>
<path d="M18.0459 18.3555H8.3584C8.2721 18.3555 8.20215 18.4254 8.20215 18.5117V29.4492C8.20215 29.5355 8.2721 29.6055 8.3584 29.6055H18.0459C18.1322 29.6055 18.2021 29.5355 18.2021 29.4492V18.5117C18.2021 18.4254 18.1322 18.3555 18.0459 18.3555Z" fill="white"/>
<path d="M24.4521 37.1055H21.9521C21.2891 37.1055 20.6532 36.8421 20.1844 36.3732C19.7155 35.9044 19.4521 35.2685 19.4521 34.6055V4.60547C19.4521 3.94243 19.7155 3.30654 20.1844 2.8377C20.6532 2.36886 21.2891 2.10547 21.9521 2.10547H24.4521C25.1152 2.10547 25.7511 2.36886 26.2199 2.8377C26.6888 3.30654 26.9521 3.94243 26.9521 4.60547V34.6055C26.9521 35.2685 26.6888 35.9044 26.2199 36.3732C25.7511 36.8421 25.1152 37.1055 24.4521 37.1055ZM38.1936 34.4062L35.6756 7.84375C35.56 6.62109 34.3521 5.73438 32.9779 5.86641L30.4896 6.10078C29.1154 6.23125 28.0951 7.32812 28.2107 8.55078L30.7287 35.1133C30.8443 36.3359 32.0521 37.2227 33.4264 37.0906L35.9146 36.8563C37.2889 36.7258 38.3092 35.6289 38.1936 34.4062Z" fill="white"/>
</svg>
