<svg width="655" height="568" viewBox="0 0 655 568" fill="none" xmlns="http://www.w3.org/2000/svg">
<g filter="url(#filter0_d_779_3792)">
<path d="M154.431 53.575L20.7777 309.648L251.089 402.7C257.427 418.376 288.364 430.338 300.385 422.616L533.27 516.708L613.783 238.648L598.594 234.376L595.866 243.116L600.04 244.803L527.87 490.535C527.469 490.504 527.07 490.472 526.672 490.438L521.805 502.485C452.251 487.727 420.15 427.867 277.663 409.054C170.665 327.572 84.2233 341.88 38.5676 305.726L42.987 294.787C42.4303 294.29 41.8734 293.783 41.3163 293.268L159.998 66.5633L164.913 68.5488L168.58 61.3147L154.431 53.575Z" fill="#733830"/>
<path d="M278.991 405.768C151.63 305.924 96.6476 342.735 42.987 294.787L38.5676 305.726C84.2233 341.88 170.665 327.572 277.663 409.054C420.15 427.867 452.251 487.727 521.805 502.485L526.672 490.438C450.707 486.331 433.409 418.926 278.991 405.768Z" fill="#F5E7E1"/>
<path d="M164.913 68.5488L159.998 66.5633L41.3163 293.268C41.8734 293.783 42.4303 294.29 42.987 294.787C96.6476 342.735 151.63 305.924 278.991 405.768C433.409 418.926 450.707 486.331 526.672 490.438C527.07 490.472 527.469 490.504 527.87 490.535L600.04 244.803L595.866 243.116L525.108 469.834C434.382 469.599 423.675 391.177 280.486 402.068C190.006 298.55 125.82 342.795 56.9186 281.553L164.913 68.5488Z" fill="#F5E7E1"/>
<path d="M280.486 402.068C423.675 391.177 434.382 469.599 525.108 469.834L595.866 243.116L598.594 234.376L600.732 227.526C543.986 231.042 510.751 153.537 373.811 171.08L280.486 402.068Z" fill="#F5E7E1"/>
<path d="M172.357 53.8651L168.58 61.3147L164.913 68.5488L56.9186 281.553C125.82 342.795 190.006 298.55 280.486 402.068L373.811 171.08C282.955 61.9721 220.85 99.0726 172.357 53.8651Z" fill="#F5E7E1"/>
<path d="M598.594 234.376L613.783 238.648L533.27 516.708L300.385 422.616C288.364 430.338 257.427 418.376 251.089 402.7L20.7777 309.648L154.431 53.575L168.58 61.3147M600.732 227.526L598.594 234.376L595.866 243.116M172.357 53.8651L168.58 61.3147L164.913 68.5488M595.866 243.116L600.04 244.803L527.87 490.535C527.469 490.504 527.07 490.472 526.672 490.438C450.707 486.331 433.409 418.926 278.991 405.768C151.63 305.924 96.6476 342.735 42.987 294.787C42.4303 294.29 41.8734 293.783 41.3163 293.268L159.998 66.5633L164.913 68.5488M164.913 68.5488L56.9186 281.553M373.811 171.08C282.955 61.9721 220.85 99.0726 172.357 53.8651L56.9186 281.553C125.82 342.795 190.006 298.55 280.486 402.068C423.675 391.177 434.382 469.599 525.108 469.834L595.866 243.116M42.987 294.787L38.5676 305.726C84.2233 341.88 170.665 327.572 277.663 409.054C420.15 427.867 452.251 487.727 521.805 502.485L526.672 490.438M280.486 402.068L373.811 171.08M373.811 171.08C510.751 153.537 543.986 231.042 600.732 227.526L525.108 469.834" stroke="black" stroke-width="1.11379"/>
</g>
<g filter="url(#filter1_d_779_3792)">
<path d="M143.155 430.568C161.082 425.02 168.266 419.693 174.63 407.844L168.074 400.663C157.322 406.306 152.35 413.511 143.155 430.568Z" fill="#E19E4C"/>
<path d="M168.074 400.663L174.63 407.844L174.802 407.923C178.065 409.414 179.229 409.946 180.527 408.771C215.507 377.136 251.481 341.858 251.481 341.858C254.334 332.492 244.442 321.975 235.036 326.476C235.036 326.476 200.82 358.132 165.781 392.833C164.409 395.175 164.771 396.845 168.074 400.663Z" fill="#AC6029"/>
<path d="M235.036 326.476C244.442 321.975 254.334 332.492 251.481 341.858C254.53 341.787 256.15 340.41 257.345 338.179C257.538 337.818 257.72 337.435 257.895 337.032C259.881 328.432 248.86 318.829 240.702 319.047C239.776 319.071 238.888 319.222 238.059 319.516C234.945 320.618 233.064 324.525 235.036 326.476Z" fill="#E19E4C"/>
<path d="M257.895 337.032C257.72 337.435 257.538 337.818 257.345 338.179C262.521 334.383 264.513 332.101 266.176 327.712C267.097 325.591 267.112 323.321 266.49 321.162C265.248 316.848 261.464 312.972 257.281 311.596C255.366 310.966 253.368 310.859 251.492 311.474C247.484 312.949 245.125 314.581 240.702 319.047C248.86 318.829 259.881 328.432 257.895 337.032Z" fill="#AC6029"/>
<path d="M257.281 311.596C261.464 312.972 265.248 316.848 266.49 321.162C268.392 319.39 270.289 317.63 272.182 315.882C385.816 210.939 485.396 146.851 600.965 120.224C487.562 132.057 372.778 203.097 257.281 311.596Z" fill="#E19E4C"/>
<path d="M280.594 319.535C303.973 327.11 324.545 340.809 326.633 357.985C329.559 348.553 320.227 333.933 300.777 321.255C294.692 319.964 288.213 319.461 280.594 319.535Z" fill="#4A3214"/>
<path d="M266.49 321.162C282.382 323.369 296.402 347.293 283.497 361.784C299.352 353.59 289.109 325.845 271.753 319.867C274.82 319.676 277.765 319.563 280.594 319.535C288.213 319.461 294.692 319.964 300.777 321.255C311.498 323.531 320.352 328.166 327.477 335.773C321.191 325.693 314.344 321.107 295.969 314.931C291.25 316.027 276.138 316.66 272.182 315.882C270.289 317.63 268.392 319.39 266.49 321.162Z" fill="#4A3214"/>
<path d="M227.722 266.36C254.09 274.842 261.263 284.316 257.281 311.596C271.849 294.542 272.315 276.981 273.425 270.543C273.926 246.089 267.734 232.694 249.499 209.154C264.131 237.312 268.354 252.274 268.436 277.441C265.474 259.778 261.162 252.985 250.206 244.69C261.826 263.748 264.448 273.128 263.818 288.075C260.065 271.837 248.03 265.063 227.722 266.36Z" fill="#4A3214"/>
<path d="M600.965 120.224C485.396 146.851 385.816 210.939 272.182 315.882C276.138 316.66 291.25 316.027 295.969 314.931C394.39 311.448 449.439 256.49 480.459 235.755L476.694 232.115C498.761 221.054 522.635 206.204 532.311 199.464C513.219 200.306 504.537 199.674 491.956 196.974C514.276 197.479 523.136 196.867 531.199 193.875C543.27 187.196 559.571 168.14 574.955 152.825C565.177 152.271 560.898 151.732 554.288 148.861C566.244 149.726 571.914 149.772 579.683 148.863C592.617 139.444 604.91 125.402 600.965 120.224Z" fill="#DBBCA5"/>
<path d="M257.281 311.596C372.778 203.097 487.562 132.057 600.965 120.224C597.493 112.918 564.862 102.633 535.285 103.187C527.706 108.684 522.813 112.911 512.94 124.093C520.771 112.289 525.302 108.042 532.719 103.121C517.82 101.827 508.727 102.239 494.284 105.274C486.565 111.793 482.26 119.515 471.648 138.636C476.918 126.503 481.919 113.11 490.259 106.331C475.655 106.645 467.179 108.295 451.507 114.067C442.334 130.931 437.433 141.074 429.19 160.585C431.851 142.513 435.57 132.52 446.939 114.997C423.193 122.72 410.614 128.61 390.333 143.708C388.212 146.535 382.281 165.161 377.161 181.707C377.145 170.253 378.44 162.661 385.11 145.188C370.31 153.729 362.837 159.217 351.238 170.449C347.16 176.726 339.669 211.644 329.539 237.637C333.589 210.54 337.261 195.508 348.436 169.231C317.613 188.379 284.472 215.895 273.425 270.543C272.315 276.981 271.849 294.542 257.281 311.596Z" fill="#DBBCA5"/>
<path d="M174.63 407.844C168.266 419.693 161.082 425.02 143.155 430.568C152.35 413.511 157.322 406.306 168.074 400.663M174.63 407.844L168.074 400.663M174.63 407.844L174.802 407.923M251.481 341.858C251.481 341.858 215.507 377.136 180.527 408.771C179.229 409.946 178.065 409.414 174.802 407.923C174.746 407.897 174.688 407.871 174.63 407.844M168.074 400.663C164.771 396.845 164.409 395.175 165.781 392.833C200.82 358.132 235.036 326.476 235.036 326.476M235.036 326.476C244.442 321.975 254.334 332.492 251.481 341.858M257.345 338.179C257.538 337.818 257.72 337.435 257.895 337.032C259.881 328.432 248.86 318.829 240.702 319.047C239.776 319.071 238.888 319.223 238.059 319.516C234.945 320.618 233.064 324.525 235.036 326.476M251.481 341.858C254.53 341.787 256.15 340.41 257.345 338.179M240.702 319.047C245.125 314.581 247.484 312.949 251.492 311.474C253.368 310.859 255.366 310.966 257.281 311.596C261.464 312.972 265.248 316.848 266.49 321.162C267.112 323.321 267.097 325.591 266.176 327.712C264.513 332.101 262.521 334.383 257.345 338.179M266.49 321.162C282.382 323.369 296.402 347.293 283.497 361.784C299.352 353.59 289.109 325.845 271.753 319.867C274.82 319.676 277.765 319.563 280.594 319.535M600.965 120.224C485.396 146.851 385.816 210.939 272.182 315.882C270.289 317.63 268.392 319.39 266.49 321.162M600.965 120.224C487.562 132.057 372.778 203.097 257.281 311.596M272.182 315.882C276.138 316.66 291.25 316.027 295.969 314.931C394.39 311.448 449.439 256.49 480.459 235.755L476.694 232.115C498.761 221.054 522.635 206.204 532.311 199.464C513.219 200.306 504.537 199.674 491.956 196.974C514.276 197.479 523.136 196.867 531.199 193.875C543.27 187.196 559.571 168.14 574.955 152.825C565.177 152.271 560.898 151.732 554.288 148.861C566.244 149.726 571.914 149.772 579.683 148.863C592.617 139.444 604.91 125.402 600.965 120.224M600.965 120.224C597.493 112.918 564.862 102.633 535.285 103.187C527.706 108.684 522.813 112.911 512.94 124.093C520.771 112.289 525.302 108.042 532.719 103.121C517.82 101.827 508.727 102.239 494.284 105.274C486.565 111.793 482.26 119.515 471.648 138.636C476.918 126.503 481.919 113.11 490.259 106.331C475.655 106.645 467.179 108.295 451.507 114.067C442.334 130.931 437.433 141.074 429.19 160.585C431.851 142.513 435.57 132.52 446.939 114.997C423.193 122.72 410.614 128.61 390.333 143.708C388.212 146.535 382.281 165.161 377.161 181.707C377.145 170.253 378.44 162.661 385.11 145.188C370.31 153.729 362.837 159.217 351.238 170.449C347.16 176.726 339.669 211.644 329.539 237.637C333.589 210.54 337.261 195.508 348.436 169.231C317.613 188.379 284.472 215.895 273.425 270.543M257.281 311.596C261.263 284.316 254.09 274.842 227.722 266.36C248.03 265.063 260.065 271.837 263.818 288.075C264.448 273.128 261.826 263.748 250.206 244.69C261.162 252.985 265.474 259.778 268.436 277.441C268.354 252.274 264.131 237.312 249.499 209.154C267.734 232.694 273.926 246.089 273.425 270.543M257.281 311.596C271.849 294.542 272.315 276.981 273.425 270.543M295.969 314.931C314.344 321.107 321.191 325.693 327.477 335.773C320.352 328.166 311.498 323.531 300.777 321.255M280.594 319.535C303.973 327.11 324.545 340.809 326.633 357.985C329.559 348.553 320.227 333.933 300.777 321.255M280.594 319.535C288.213 319.461 294.692 319.964 300.777 321.255" stroke="black" stroke-width="1.20264"/>
</g>
<defs>
<filter id="filter0_d_779_3792" x="0" y="42.8125" width="654.474" height="524.645" filterUnits="userSpaceOnUse" color-interpolation-filters="sRGB">
<feFlood flood-opacity="0" result="BackgroundImageFix"/>
<feColorMatrix in="SourceAlpha" type="matrix" values="0 0 0 0 0 0 0 0 0 0 0 0 0 0 0 0 0 0 127 0" result="hardAlpha"/>
<feOffset dx="10" dy="20"/>
<feGaussianBlur stdDeviation="15"/>
<feComposite in2="hardAlpha" operator="out"/>
<feColorMatrix type="matrix" values="0 0 0 0 0 0 0 0 0 0 0 0 0 0 0 0 0 0 0.25 0"/>
<feBlend mode="normal" in2="BackgroundImageFix" result="effect1_dropShadow_779_3792"/>
<feBlend mode="normal" in="SourceGraphic" in2="effect1_dropShadow_779_3792" result="shape"/>
</filter>
<filter id="filter1_d_779_3792" x="116.928" y="75.8281" width="520.388" height="389.75" filterUnits="userSpaceOnUse" color-interpolation-filters="sRGB">
<feFlood flood-opacity="0" result="BackgroundImageFix"/>
<feColorMatrix in="SourceAlpha" type="matrix" values="0 0 0 0 0 0 0 0 0 0 0 0 0 0 0 0 0 0 127 0" result="hardAlpha"/>
<feOffset dx="5" dy="4"/>
<feGaussianBlur stdDeviation="15"/>
<feComposite in2="hardAlpha" operator="out"/>
<feColorMatrix type="matrix" values="0 0 0 0 0 0 0 0 0 0 0 0 0 0 0 0 0 0 0.25 0"/>
<feBlend mode="normal" in2="BackgroundImageFix" result="effect1_dropShadow_779_3792"/>
<feBlend mode="normal" in="SourceGraphic" in2="effect1_dropShadow_779_3792" result="shape"/>
</filter>
</defs>
</svg>
