<svg width="25" height="25" viewBox="0 0 25 25" fill="none" xmlns="http://www.w3.org/2000/svg">
<path d="M3.125 10.6605L3.90312 10.5939C3.88519 10.3938 3.79087 10.2083 3.63975 10.0759C3.48863 9.94355 3.29233 9.87449 3.09162 9.88307C2.89092 9.89165 2.70123 9.97722 2.56196 10.122C2.42269 10.2668 2.34454 10.4596 2.34375 10.6605H3.125ZM21.0792 12.5595L20.3438 16.8095L21.8844 17.0762L22.6187 12.8262L21.0792 12.5595ZM13.7969 22.1355H8.95417V23.698H13.7969V22.1355ZM8.00521 21.2637L7.15938 11.4793L5.60208 11.6137L6.44896 21.398L8.00521 21.2637ZM20.3438 16.8095C19.8156 19.8616 17.0635 22.1355 13.7969 22.1355V23.698C17.7823 23.698 21.2198 20.9178 21.8844 17.0762L20.3438 16.8095ZM13.8073 5.31262L13.1167 9.52616L14.6583 9.77824L15.349 5.56574L13.8073 5.31262ZM7.4875 10.673L8.98646 9.38137L7.96562 8.19803L6.46875 9.4897L7.4875 10.673ZM11.7125 5.17928L12.2083 3.26887L10.6958 2.8772L10.2 4.78657L11.7125 5.17928ZM12.9562 2.89387L13.1073 2.94282L13.5854 1.45532L13.4344 1.40637L12.9562 2.89387ZM10.9615 7.10012C11.2867 6.49169 11.5388 5.84693 11.7125 5.17928L10.2 4.78657C10.0565 5.33479 9.84951 5.86441 9.58333 6.3647L10.9615 7.10012ZM13.1073 2.94282C13.2557 2.9883 13.3903 3.07031 13.4988 3.18133C13.6072 3.29235 13.6861 3.42882 13.7281 3.57824L15.2406 3.18657C15.1334 2.78168 14.9254 2.41054 14.636 2.1078C14.3465 1.80506 13.9851 1.58058 13.5854 1.45532L13.1073 2.94282ZM12.2083 3.26887C12.2294 3.19399 12.2664 3.12452 12.3167 3.06521C12.367 3.00589 12.4296 2.95811 12.5 2.92512L11.8219 1.51782C11.2677 1.78449 10.851 2.27824 10.6958 2.8772L12.2083 3.26887ZM12.5 2.92512C12.6427 2.85744 12.8057 2.84627 12.9562 2.89387L13.4344 1.40637C12.9024 1.23629 12.3254 1.27617 11.8219 1.51782L12.5 2.92512ZM14.7437 11.4418H20.1396V9.87928H14.7437V11.4418ZM4.91562 22.298L3.90312 10.5939L2.34688 10.7282L3.35729 22.4324L4.91562 22.298ZM3.90625 22.4095V10.6605H2.34375V22.4095H3.90625ZM3.35729 22.4324C3.35411 22.3946 3.35989 22.3565 3.37222 22.3205C3.38456 22.2846 3.40424 22.2516 3.43 22.2237C3.45576 22.1958 3.48705 22.1735 3.52188 22.1583C3.5567 22.1432 3.5943 22.1354 3.63229 22.1355V23.698C4.38854 23.698 4.98021 23.0501 4.91562 22.298L3.35729 22.4324ZM15.349 5.56574C15.4799 4.77385 15.443 3.96329 15.2406 3.18657L13.7281 3.57928C13.8759 4.1451 13.9028 4.73569 13.8073 5.31262L15.349 5.56574ZM8.95417 22.1355C8.71564 22.1351 8.48591 22.0454 8.31026 21.884C8.13461 21.7226 8.02578 21.5013 8.00521 21.2637L6.44896 21.398C6.50316 22.0253 6.7905 22.6094 7.25428 23.0352C7.71805 23.461 8.32458 23.6975 8.95417 23.698V22.1355ZM8.98646 9.38137C9.69479 8.77095 10.4573 8.04491 10.9625 7.10012L9.58333 6.3647C9.22292 7.04074 8.64896 7.61053 7.96562 8.19803L8.98646 9.38137ZM22.6187 12.8262C22.6815 12.4647 22.6644 12.0939 22.5687 11.7397C22.4731 11.3855 22.3011 11.0565 22.0649 10.7758C21.8287 10.4951 21.534 10.2694 21.2015 10.1145C20.8689 9.95963 20.5065 9.87935 20.1396 9.87928V11.4418C20.7302 11.4418 21.1812 11.9751 21.0792 12.5595L22.6187 12.8262ZM3.63229 22.1355C3.78437 22.1355 3.90625 22.2585 3.90625 22.4095H2.34375C2.34375 23.1199 2.91979 23.698 3.63229 23.698V22.1355ZM13.1167 9.52616C13.0778 9.76218 13.0908 10.0038 13.1547 10.2343C13.2186 10.4648 13.3319 10.6787 13.4867 10.861C13.6415 11.0434 13.8341 11.1899 14.0512 11.2903C14.2682 11.3908 14.5046 11.4418 14.7437 11.4418V9.87928C14.731 9.87934 14.7185 9.87764 14.7069 9.87228C14.6954 9.86693 14.6852 9.8591 14.6771 9.84935C14.6689 9.8396 14.663 9.82818 14.6598 9.81589C14.6565 9.8036 14.656 9.79074 14.6583 9.77824L13.1167 9.52616ZM7.15938 11.4793C7.14667 11.3284 7.16883 11.1767 7.22605 11.0366C7.28326 10.8965 7.37286 10.7719 7.4875 10.673L6.46667 9.48866C6.16473 9.74922 5.92893 10.0777 5.77863 10.4471C5.62833 10.8165 5.56782 11.2163 5.60208 11.6137L7.15938 11.4793Z" fill="#8B4513"/>
</svg>
