<svg width="554" height="305" viewBox="0 0 554 305" fill="none" xmlns="http://www.w3.org/2000/svg">
<path d="M28.6084 7.64096L0.61377 295.135H249.013C260.762 307.296 293.926 306.797 302.18 295.135L553.354 295.135L523.841 7.16103L508.158 8.8904L508.903 18.0161H513.405L538.543 272.89C538.16 273.012 537.777 273.132 537.396 273.249V286.243C467.379 298.615 415.191 255.138 276.032 291.072C146.302 255.605 71.5139 301.253 15.639 284.834V273.037C14.9365 272.784 14.2306 272.523 13.5209 272.254L38.6356 17.598H43.936L44.6267 9.51674L28.6084 7.64096Z" fill="#8B4513"/>
<path d="M276.032 287.527C120.543 242.664 83.3538 297.391 15.639 273.037V284.834C71.5139 301.253 146.302 255.605 276.032 291.072C415.191 255.138 467.379 298.615 537.396 286.243V273.249C465.424 297.899 424.135 241.882 276.032 287.527Z" fill="#FFE5B5"/>
<path d="M43.936 17.598H38.6356L13.5209 272.254C14.2306 272.523 14.9365 272.784 15.639 273.037C83.3538 297.391 120.543 242.664 276.032 287.527C424.135 241.882 465.424 297.899 537.396 273.249C537.777 273.132 538.16 273.012 538.543 272.89L513.405 18.0161H508.903L528.227 254.732C444.02 288.501 404.715 219.8 276.032 283.537C153.363 221.451 110.425 286.519 23.5985 255.547L43.936 17.598Z" fill="#FFE5B5"/>
<path d="M276.032 283.537C404.715 219.8 444.02 288.501 528.227 254.732L508.903 18.0161L508.158 8.8904L507.575 1.73818C456.278 26.2555 396.429 -33.1561 276.032 34.4088V283.537Z" fill="#FFE5B5"/>
<path d="M45.338 1.19468L44.6267 9.51674L43.936 17.598L23.5985 255.547C110.425 286.519 153.363 221.451 276.032 283.537V34.4088C150.919 -32.7193 107.234 24.9448 45.338 1.19468Z" fill="#FFE5B5"/>
<path d="M508.158 8.8904L523.841 7.16103L553.354 295.135L302.18 295.135C293.926 306.797 260.762 307.296 249.013 295.135H0.61377L28.6084 7.64096L44.6267 9.51674M507.575 1.73818L508.158 8.8904L508.903 18.0161M45.338 1.19468L44.6267 9.51674L43.936 17.598M508.903 18.0161H513.405L538.543 272.89C538.16 273.012 537.777 273.132 537.396 273.249C465.424 297.899 424.135 241.882 276.032 287.527C120.543 242.664 83.3538 297.391 15.639 273.037C14.9365 272.784 14.2306 272.523 13.5209 272.254L38.6356 17.598H43.936M43.936 17.598L23.5985 255.547M276.032 34.4088C150.919 -32.7193 107.234 24.9448 45.338 1.19468L23.5985 255.547C110.425 286.519 153.363 221.451 276.032 283.537C404.715 219.8 444.02 288.501 528.227 254.732L508.903 18.0161M15.639 273.037V284.834C71.5139 301.253 146.302 255.605 276.032 291.072C415.191 255.138 467.379 298.615 537.396 286.243V273.249M276.032 283.537V34.4088M276.032 34.4088C396.429 -33.1561 456.278 26.2555 507.575 1.73818L528.227 254.732" stroke="black" stroke-width="1.11379"/>
</svg>
