<svg width="614" height="365" viewBox="0 0 614 365" fill="none" xmlns="http://www.w3.org/2000/svg">
<g filter="url(#filter0_d_207_707)">
<path d="M48.6084 17.641L20.6138 305.135H269.013C280.762 317.296 313.926 316.797 322.18 305.135L573.354 305.135L543.841 17.161L528.158 18.8904L528.903 28.0161H533.405L558.543 282.89C558.16 283.012 557.777 283.132 557.396 283.249V296.243C487.379 308.615 435.191 265.138 296.032 301.072C166.302 265.605 91.5139 311.253 35.639 294.834V283.037C34.9365 282.784 34.2306 282.523 33.5209 282.254L58.6356 27.598H63.936L64.6267 19.5167L48.6084 17.641Z" fill="#8B4513"/>
<path d="M296.032 297.527C140.543 252.664 103.354 307.391 35.639 283.037V294.834C91.5139 311.253 166.302 265.605 296.032 301.072C435.191 265.138 487.379 308.615 557.396 296.243V283.249C485.424 307.899 444.135 251.882 296.032 297.527Z" fill="#FFE5B5"/>
<path d="M63.936 27.598H58.6356L33.5209 282.254C34.2306 282.523 34.9365 282.784 35.639 283.037C103.354 307.391 140.543 252.664 296.032 297.527C444.135 251.882 485.424 307.899 557.396 283.249C557.777 283.132 558.16 283.012 558.543 282.89L533.405 28.0161H528.903L548.227 264.732C464.02 298.501 424.715 229.8 296.032 293.537C173.363 231.451 130.425 296.519 43.5985 265.547L63.936 27.598Z" fill="#FFE5B5"/>
<path d="M296.032 293.537C424.715 229.8 464.02 298.501 548.227 264.732L528.903 28.0161L528.158 18.8904L527.575 11.7382C476.278 36.2555 416.429 -23.1561 296.032 44.4088V293.537Z" fill="#FFE5B5"/>
<path d="M65.338 11.1947L64.6267 19.5167L63.936 27.598L43.5985 265.547C130.425 296.519 173.363 231.451 296.032 293.537V44.4088C170.919 -22.7193 127.234 34.9448 65.338 11.1947Z" fill="#FFE5B5"/>
<path d="M528.158 18.8904L543.841 17.161L573.354 305.135L322.18 305.135C313.926 316.797 280.762 317.296 269.013 305.135H20.6138L48.6084 17.641L64.6267 19.5167M527.575 11.7382L528.158 18.8904L528.903 28.0161M65.338 11.1947L64.6267 19.5167L63.936 27.598M528.903 28.0161H533.405L558.543 282.89C558.16 283.012 557.777 283.132 557.396 283.249C485.424 307.899 444.135 251.882 296.032 297.527C140.543 252.664 103.354 307.391 35.639 283.037C34.9365 282.784 34.2306 282.523 33.5209 282.254L58.6356 27.598H63.936M63.936 27.598L43.5985 265.547M296.032 44.4088C170.919 -22.7193 127.234 34.9448 65.338 11.1947L43.5985 265.547C130.425 296.519 173.363 231.451 296.032 293.537C424.715 229.8 464.02 298.501 548.227 264.732L528.903 28.0161M35.639 283.037V294.834C91.5139 311.253 166.302 265.605 296.032 301.072C435.191 265.138 487.379 308.615 557.396 296.243V283.249M296.032 293.537V44.4088M296.032 44.4088C416.429 -23.1561 476.278 36.2555 527.575 11.7382L548.227 264.732" stroke="black" stroke-width="1.11379"/>
</g>
<defs>
<filter id="filter0_d_207_707" x="0" y="0" width="613.971" height="364.627" filterUnits="userSpaceOnUse" color-interpolation-filters="sRGB">
<feFlood flood-opacity="0" result="BackgroundImageFix"/>
<feColorMatrix in="SourceAlpha" type="matrix" values="0 0 0 0 0 0 0 0 0 0 0 0 0 0 0 0 0 0 127 0" result="hardAlpha"/>
<feOffset dx="10" dy="20"/>
<feGaussianBlur stdDeviation="15"/>
<feComposite in2="hardAlpha" operator="out"/>
<feColorMatrix type="matrix" values="0 0 0 0 0 0 0 0 0 0 0 0 0 0 0 0 0 0 0.25 0"/>
<feBlend mode="normal" in2="BackgroundImageFix" result="effect1_dropShadow_207_707"/>
<feBlend mode="normal" in="SourceGraphic" in2="effect1_dropShadow_207_707" result="shape"/>
</filter>
</defs>
</svg>
