<svg width="293" height="177" viewBox="0 0 293 177" fill="none" xmlns="http://www.w3.org/2000/svg">
<path d="M192.93 112.353C207.556 111.308 224.162 113.398 237.093 115.741C243.562 116.913 249.119 118.151 253.06 119.095C255.03 119.567 256.596 119.966 257.671 120.248C258.208 120.388 258.622 120.499 258.902 120.575C259.042 120.613 259.15 120.643 259.222 120.663C259.257 120.672 259.285 120.68 259.303 120.685C259.312 120.688 259.319 120.69 259.323 120.691C259.325 120.691 259.327 120.692 259.328 120.692H259.33C259.33 120.692 259.33 120.692 259.298 120.807L259.33 120.693L259.399 120.711L259.461 120.75L259.195 121.174C259.439 120.784 259.459 120.753 259.461 120.75H259.462L259.463 120.751L259.475 120.759C259.482 120.764 259.493 120.771 259.505 120.779C259.53 120.795 259.564 120.82 259.606 120.85C259.69 120.911 259.807 121 259.94 121.116C260.208 121.347 260.553 121.693 260.865 122.149C261.496 123.071 261.984 124.446 261.403 126.187C260.839 127.88 259.872 128.688 258.996 129.048C258.568 129.225 258.177 129.288 257.891 129.307C257.747 129.317 257.628 129.315 257.543 129.311C257.5 129.309 257.466 129.306 257.44 129.303C257.428 129.302 257.416 129.301 257.408 129.3C257.404 129.3 257.401 129.299 257.398 129.298C257.397 129.298 257.396 129.298 257.395 129.298L257.393 129.297H257.392L257.462 128.802L257.391 129.297L257.358 129.292L257.327 129.284H257.326C257.325 129.283 257.324 129.283 257.322 129.283C257.319 129.282 257.312 129.28 257.305 129.278C257.29 129.274 257.267 129.268 257.236 129.259C257.175 129.242 257.083 129.218 256.962 129.185C256.72 129.12 256.359 129.024 255.889 128.903C254.947 128.661 253.565 128.316 251.806 127.908C248.287 127.092 243.258 126.021 237.224 125.004C225.15 122.971 209.066 121.156 192.992 122.02C176.94 122.883 165.04 126.851 156.682 130.772C152.501 132.733 149.203 134.684 146.709 136.233C145.473 137 144.403 137.69 143.553 138.212C142.704 138.733 142.002 139.135 141.47 139.329C139.519 140.038 137.66 140.391 136.291 140.568C135.606 140.656 135.042 140.701 134.646 140.723C134.449 140.734 134.293 140.74 134.187 140.743C134.133 140.744 134.091 140.745 134.062 140.746H133.972C133.944 140.745 133.904 140.745 133.852 140.744C133.747 140.742 133.595 140.737 133.404 140.729C133.022 140.712 132.481 140.679 131.841 140.613C130.565 140.481 128.878 140.215 127.271 139.679C126.821 139.529 126.239 139.208 125.548 138.798C125.196 138.589 124.803 138.35 124.371 138.087C123.939 137.824 123.465 137.537 122.947 137.23C120.878 136.002 118.103 134.452 114.488 132.903C107.262 129.806 96.6596 126.699 81.6396 126.181C66.5841 125.662 54.8206 126.528 46.8262 127.522C42.8292 128.019 39.7739 128.547 37.7207 128.952C36.6941 129.154 35.9177 129.325 35.3994 129.445C35.1403 129.505 34.9456 129.552 34.8164 129.584L34.6367 129.629C34.6329 129.63 34.6297 129.632 34.6279 129.632H34.626L34.5625 129.649H34.4795C34.4706 129.649 34.4588 129.648 34.4443 129.648C34.4149 129.647 34.3736 129.645 34.3232 129.641C34.2227 129.633 34.0826 129.618 33.915 129.587C33.5813 129.527 33.129 129.405 32.6611 129.159C31.7012 128.653 30.7237 127.646 30.5322 125.732C30.3429 123.839 31.011 122.646 31.7725 121.935C32.1443 121.588 32.5273 121.366 32.8174 121.23C32.9628 121.162 33.0868 121.115 33.1768 121.084C33.2218 121.069 33.2591 121.057 33.2861 121.049C33.2926 121.047 33.2984 121.045 33.3037 121.043C33.3053 121.043 33.3078 121.043 33.3096 121.042C33.3213 121.038 33.3389 121.033 33.3613 121.025C33.4068 121.009 33.4735 120.985 33.5605 120.956C33.7349 120.896 33.9902 120.811 34.3145 120.705C34.9631 120.492 35.8892 120.197 37 119.871C39.22 119.218 42.1875 118.432 45.1602 117.908C51.0797 116.863 69.8687 113.732 94.5693 117.907C106.911 119.993 114.743 122.428 120.189 124.432C122.896 125.428 125.043 126.329 126.8 127.002C128.578 127.683 129.982 128.141 131.305 128.306C134.097 128.655 135.443 128.823 136.4 128.823C137.319 128.823 137.864 128.669 139.08 128.322C139.332 128.25 139.897 127.993 140.812 127.553C141.703 127.125 142.89 126.542 144.329 125.859C147.213 124.49 151.138 122.707 155.899 120.88C165.422 117.228 178.302 113.398 192.93 112.353Z" fill="#FFE5B5" stroke="#FFE5B5"/>
<path d="M235.059 89.4663C238.864 89.5098 241.705 89.6836 243.597 89.8472C244.543 89.929 245.253 90.0079 245.727 90.0669C245.964 90.0964 246.142 90.121 246.262 90.1382C246.322 90.1468 246.367 90.154 246.398 90.1587C246.413 90.161 246.425 90.1623 246.433 90.1636C246.435 90.1639 246.437 90.1643 246.439 90.1646C246.443 90.1651 246.449 90.1656 246.456 90.1665C246.471 90.1686 246.494 90.1722 246.524 90.1763C246.584 90.1845 246.671 90.1963 246.781 90.2124C247.001 90.2447 247.315 90.293 247.69 90.356C248.439 90.4817 249.438 90.6683 250.429 90.9106C251.413 91.1512 252.42 91.4534 253.168 91.8188C253.54 92.0001 253.884 92.2149 254.128 92.4722C254.379 92.7351 254.571 93.0986 254.485 93.5317C254.448 93.7171 254.335 93.9641 254.208 94.2144C254.071 94.4845 253.884 94.8214 253.657 95.2114C253.202 95.9924 252.573 97.0076 251.833 98.1714C250.35 100.501 248.407 103.441 246.478 106.325C244.548 109.209 242.629 112.038 241.193 114.146C240.475 115.2 239.878 116.075 239.459 116.685C239.25 116.99 239.086 117.23 238.974 117.393C238.918 117.474 238.875 117.537 238.846 117.579C238.832 117.6 238.821 117.616 238.814 117.626C238.81 117.632 238.807 117.636 238.805 117.639L238.803 117.642L238.39 117.36L238.802 117.643L238.599 117.939L238.253 117.84L233.399 116.454L232.705 116.255L233.134 115.675L233.536 115.972C233.134 115.675 233.134 115.674 233.134 115.674H233.135C233.136 115.674 233.135 115.672 233.136 115.671C233.138 115.669 233.141 115.666 233.144 115.662C233.151 115.653 233.16 115.639 233.173 115.622C233.199 115.586 233.239 115.534 233.29 115.465C233.391 115.328 233.539 115.126 233.728 114.87C234.106 114.356 234.644 113.621 235.289 112.736C236.577 110.966 238.287 108.595 239.975 106.193C241.664 103.789 243.328 101.358 244.524 99.4673C245.123 98.52 245.599 97.7183 245.901 97.1274C246.053 96.83 246.152 96.6029 246.204 96.4458C246.206 96.4375 246.207 96.4288 246.209 96.4214C246.201 96.4158 246.193 96.4091 246.183 96.4028C246.082 96.3378 245.933 96.2577 245.726 96.1675C245.313 95.9874 244.704 95.7804 243.871 95.5708C242.206 95.152 239.68 94.7326 236.104 94.4956C228.953 94.0217 217.632 94.2788 200.665 96.7026C183.787 99.1138 168.521 107.653 157.41 115.44C151.858 119.331 147.352 123.027 144.208 125.666C142.642 126.981 141.399 128.045 140.544 128.73C140.12 129.07 139.769 129.335 139.51 129.493C139.391 129.566 139.242 129.647 139.094 129.681C139.022 129.698 138.881 129.719 138.727 129.66C138.704 129.651 138.681 129.64 138.661 129.628C138.512 129.665 138.342 129.721 138.126 129.783C138.024 129.812 137.913 129.842 137.81 129.863C137.718 129.881 137.583 129.903 137.451 129.889C137.383 129.882 137.272 129.861 137.163 129.788C137.035 129.702 136.944 129.566 136.919 129.404C136.898 129.265 136.932 129.147 136.959 129.075C136.989 128.998 137.03 128.929 137.07 128.87C138.221 127.164 141.011 124.242 144.948 120.78C148.897 117.306 154.033 113.259 159.908 109.301C171.647 101.393 186.388 93.8045 200.528 91.8979C215.982 89.8143 227.449 89.3793 235.059 89.4663Z" fill="#FFE5B5" stroke="#FFE5B5"/>
<path d="M227.93 53.3633C231.94 52.9057 234.997 52.8285 237.056 52.8668C238.085 52.886 238.865 52.9343 239.39 52.9779C239.652 52.9996 239.851 53.0199 239.986 53.0353C240.046 53.0423 240.095 53.0487 240.129 53.0532C240.139 53.0522 240.15 53.0517 240.162 53.0506C240.219 53.0454 240.302 53.0381 240.407 53.0299C240.616 53.0135 240.914 52.9932 241.271 52.9767C241.983 52.9437 242.938 52.9258 243.894 52.989C244.841 53.0515 245.835 53.1963 246.599 53.5097C247.353 53.8185 248.059 54.3774 248.019 55.3291C248.012 55.4829 247.966 55.6437 247.914 55.787C247.859 55.9389 247.782 56.1109 247.691 56.2975C247.507 56.6713 247.246 57.1348 246.926 57.6708C246.284 58.7443 245.38 60.1419 244.316 61.7531C242.183 64.9825 239.4 69.0823 236.73 73.2449L236.723 73.2557L236.715 73.2667C233.607 77.5823 230.93 81.9881 229.028 85.3164C228.078 86.98 227.321 88.3732 226.803 89.3499C226.544 89.8381 226.345 90.2222 226.21 90.4838C226.143 90.6146 226.092 90.7153 226.058 90.7826C226.041 90.8158 226.028 90.8409 226.02 90.8578C226.016 90.8662 226.012 90.8728 226.01 90.8769C226.009 90.879 226.008 90.8812 226.007 90.8822L226.008 90.8831L225.869 91.1594L225.56 91.1594L220.358 91.16L219.651 91.1592L219.887 90.493L219.887 90.4921L219.888 90.491L219.894 90.4724C219.899 90.4599 219.906 90.4419 219.915 90.4184C219.932 90.3707 219.958 90.3003 219.993 90.2085C220.064 90.0246 220.172 89.7528 220.32 89.3988C220.616 88.6909 221.075 87.6519 221.73 86.3207C223.039 83.658 225.131 79.8247 228.265 75.1246C231.388 70.4389 234.296 66.2757 236.398 63.2444C237.45 61.727 238.298 60.4974 238.87 59.6255C239.122 59.2423 239.314 58.9328 239.448 58.7037C239.155 58.6647 238.742 58.6394 238.228 58.6292C237.163 58.6079 235.725 58.651 234.17 58.7374C231.057 58.9103 227.526 59.2554 225.649 59.5966C221.781 60.3 208.888 61.1488 194.567 67.8793C177.343 75.9743 163.186 91.5836 153.28 105.206C148.332 112.012 144.454 118.308 141.793 122.899C140.463 125.194 139.438 127.064 138.734 128.358C138.383 129.003 138.109 129.51 137.92 129.853C137.825 130.024 137.749 130.161 137.691 130.257C137.663 130.303 137.633 130.35 137.605 130.389C137.592 130.406 137.568 130.439 137.535 130.472C137.52 130.487 137.485 130.52 137.435 130.55C137.402 130.571 137.261 130.655 137.07 130.616C136.945 130.591 136.575 130.532 136.292 130.307C136.134 130.18 135.998 130.001 135.934 129.76C135.873 129.527 135.89 129.276 135.963 129.015C136.642 126.574 138.774 121.921 142.001 116.17C145.236 110.404 149.592 103.497 154.747 96.5376C165.04 82.6402 178.577 68.4502 192.78 62.8012C208.078 56.7171 219.91 54.2787 227.93 53.3633Z" fill="#FFE5B5" stroke="#FFE5B5"/>
<path d="M228.923 8.74463C229.423 8.68914 230.003 8.74604 230.421 9.16455C231.122 9.86519 231.09 10.7772 230.945 11.4077C230.87 11.7311 230.76 12.0133 230.669 12.2124C230.624 12.3127 230.582 12.3941 230.551 12.4517C230.536 12.4804 230.524 12.5035 230.514 12.52L230.513 12.522C230.505 12.5419 230.492 12.5714 230.475 12.6099C230.441 12.6877 230.39 12.8026 230.326 12.9507C230.196 13.2471 230.008 13.6773 229.772 14.2114C229.3 15.28 228.638 16.7672 227.878 18.438C226.361 21.7763 224.449 25.8622 222.881 28.8237C221.311 31.79 216.531 39.6098 212.158 46.6675C209.968 50.2009 207.877 53.5505 206.333 56.0161C205.56 57.249 204.924 58.2615 204.482 58.9653C204.261 59.317 204.088 59.592 203.97 59.7788C203.911 59.8721 203.867 59.9436 203.836 59.9917C203.821 60.0158 203.81 60.0342 203.802 60.0464C203.798 60.0525 203.795 60.057 203.793 60.0601C203.793 60.0613 203.792 60.0622 203.792 60.063L203.791 60.064L203.368 59.7983L203.791 60.0649L203.703 60.2046L203.548 60.2642L197.307 62.6909L196.053 63.1792L196.684 61.9907C201.85 52.2644 205.861 45.2622 212.659 34.9038C216.745 28.3595 218.862 24.5078 221.505 18.1079C220.858 18.3902 219.987 18.7633 219.031 19.1509C217.059 19.9503 214.67 20.8382 213.165 21.1069C210.211 21.634 196.367 23.1329 186.94 27.3071L185.305 28.106C177.271 32.1043 171.308 36.1586 166.065 41.5698C160.471 47.344 155.675 54.6865 150.072 65.2153C143.144 81.8097 140.476 99.5062 137.635 129.543C137.588 130.041 137.31 130.428 136.896 130.54C136.703 130.591 136.475 130.578 136.279 130.456C136.068 130.325 135.944 130.097 135.944 129.842C135.944 129.845 135.943 129.841 135.943 129.823C135.943 129.808 135.942 129.787 135.942 129.759C135.941 129.705 135.94 129.626 135.938 129.525C135.935 129.323 135.931 129.032 135.927 128.657C135.921 127.906 135.917 126.821 135.93 125.45C135.957 122.708 136.05 118.823 136.314 114.187C136.843 104.918 138.059 92.6374 140.811 80.4927C143.402 69.0583 147.624 58.8766 151.951 50.5513L151.958 50.5366L151.967 50.5229V50.522L151.968 50.521C151.969 50.5197 151.971 50.5176 151.972 50.5151C151.975 50.5103 151.979 50.503 151.985 50.4937C151.997 50.4745 152.014 50.4456 152.037 50.4087C152.082 50.3348 152.15 50.2261 152.239 50.0854C152.416 49.8041 152.676 49.3953 153.011 48.8833C153.681 47.8594 154.65 46.4225 155.847 44.7681C158.239 41.4623 161.554 37.2734 165.226 33.7759C172.576 26.776 185.479 20.1534 193.512 17.7085C197.554 16.4784 200.547 16.2161 203.592 15.9985C206.628 15.7817 209.711 15.61 214 14.5806C218.305 13.5475 221.22 12.4303 223.051 11.5786C223.967 11.1528 224.612 10.7937 225.024 10.5435C225.23 10.4183 225.378 10.3204 225.472 10.2554C225.519 10.223 225.553 10.1985 225.574 10.1831C225.584 10.1754 225.592 10.1697 225.596 10.1665L225.6 10.1636L225.614 10.1528L225.629 10.1421H225.63C225.631 10.1417 225.631 10.1407 225.632 10.1401C225.634 10.1389 225.638 10.1375 225.641 10.1353C225.648 10.1308 225.657 10.1237 225.669 10.1157C225.694 10.0995 225.731 10.0762 225.777 10.0474C225.868 9.98983 226 9.90961 226.16 9.81689C226.479 9.63207 226.92 9.39446 227.4 9.18896C227.874 8.98584 228.414 8.80127 228.923 8.74463Z" fill="#FFE5B5" stroke="#FFE5B5"/>
<path d="M49.9556 99.8022C58.113 99.7528 68.9767 100.486 80.6265 102.773L81.7563 103L81.769 103.002L83.686 103.458C103.447 108.307 121.813 117.206 135.008 127.014L135.496 127.376L135.046 127.786L131.232 131.253L130.925 131.532L130.594 131.282C123.845 126.188 113.49 121.093 103.714 117.049C93.9383 113.005 84.8046 110.038 80.5181 109.181C71.9767 107.473 57.6759 105.067 41.4165 106.364C42.9775 111.043 43.4761 113.868 43.6665 118.727L43.6821 119.147L43.271 119.236L38.4165 120.276L37.895 120.387L37.8169 119.86C37.1744 115.53 36.2273 111.568 35.562 108.436C35.231 106.878 34.9675 105.514 34.854 104.425C34.7972 103.881 34.7761 103.389 34.8071 102.966C34.8377 102.551 34.921 102.159 35.1089 101.845C35.2512 101.608 35.5054 101.446 35.7407 101.33C35.9951 101.204 36.3182 101.089 36.6938 100.982C37.4471 100.767 38.4729 100.57 39.73 100.401C42.2481 100.062 45.746 99.8278 49.9556 99.8022Z" fill="#FFE5B5" stroke="#FFE5B5"/>
<path d="M47.2344 46.8569C47.9442 46.6489 48.7183 46.8346 49.5996 47.2007L49.7334 47.2554L49.8164 47.3735C56.8239 57.3003 62.8288 64.3831 69.8105 70.3169C76.7902 76.2489 84.7661 81.0499 95.7354 86.3911C103.351 89.902 110.46 95.0917 115.984 99.9399C121.498 104.778 125.482 109.318 126.817 111.555C128.133 113.758 130.053 118.039 131.634 121.738C132.427 123.593 133.138 125.313 133.651 126.569C133.908 127.197 134.116 127.709 134.259 128.064C134.33 128.241 134.386 128.38 134.424 128.474C134.443 128.521 134.457 128.556 134.467 128.581C134.472 128.593 134.475 128.603 134.478 128.609C134.479 128.612 134.48 128.614 134.48 128.616V128.618H134.481L134.595 128.904L134.391 129.134L134.017 128.803L134.391 129.135H134.39L134.386 129.139C134.384 129.141 134.382 129.144 134.379 129.147C134.373 129.153 134.367 129.161 134.358 129.169C134.341 129.187 134.317 129.211 134.287 129.239C134.228 129.294 134.142 129.369 134.034 129.447C133.82 129.601 133.501 129.783 133.1 129.869C132.69 129.956 132.209 129.941 131.692 129.715C131.182 129.493 130.665 129.078 130.153 128.415L130.116 128.367L130.092 128.312C125.821 118.686 116.395 106.534 107.055 100.794H107.054L95.2764 93.52C75.1499 83.0863 65.1736 75.9504 52.4375 60.6196L55.1084 100.335L55.1445 100.869H48.9404L48.9092 100.403L45.4414 48.7358L45.4307 48.5796L45.5117 48.4448C45.9924 47.6445 46.5131 47.0684 47.2344 46.8569Z" fill="#FFE5B5" stroke="#FFE5B5"/>
<path d="M80.8594 4.02148C91.5351 -0.739124 109.485 -1.55177 128.396 7.15332L128.416 7.16309L145.639 15.9824L145.721 16.0244L145.782 16.0928C146.664 17.0722 147.339 17.9204 147.636 18.8535C147.944 19.8231 147.825 20.8119 147.307 22.0283L147.305 22.0332C140.512 37.5688 137.983 48.1152 136.102 70.8066C135.416 86.295 135.777 115.667 137.534 128.612L137.578 128.94L137.429 129.028L137.521 129.364L137.693 129.996H135.804L133.945 131.102L133.286 131.493L133.193 130.731C133.127 130.188 133.061 129.633 132.997 129.064C126.476 111.235 122.122 101.871 112.5 90.7227L112.492 90.7139L112.485 90.7051C102.42 77.9297 96.0325 70.6413 83.6025 59.6357L83.5586 59.5977L83.5254 59.5498L70.8457 41.625L66.7266 68.7783L66.5742 69.7812L65.8711 69.0498L63.958 67.0586L63.7979 66.8916L63.8213 66.6621L67.165 33.207C66.5499 25.8846 67.2686 19.7953 69.5 14.9268C71.7427 10.0337 75.4954 6.41343 80.8594 4.02148ZM102.921 6.53223C97.5913 6.1568 92.8032 6.76398 86.9336 8.09082C79.2349 10.567 75.0441 13.4185 73.4033 17.6865C71.7469 21.9953 72.6168 27.9083 75.5449 36.7158C82.7748 50.5594 88.3878 57.2969 99.8711 67.1445L101.002 68.1084L101.012 68.1172L101.022 68.126C115.91 82.1991 122.72 91.9089 131.463 109.62C130.631 93.7201 130.58 75.741 131.995 63.8936C132.377 55.1108 134.907 44.7205 137.302 36.3125C138.501 32.101 139.671 28.374 140.523 25.5898C140.95 24.1955 141.296 23.0424 141.528 22.1797C141.644 21.7479 141.73 21.3962 141.783 21.1279C141.81 20.9938 141.826 20.8863 141.835 20.8037C141.839 20.7627 141.842 20.7307 141.843 20.707C141.843 20.6862 141.842 20.6759 141.842 20.6738C141.841 20.6662 141.83 20.6117 141.756 20.5049C141.684 20.4019 141.572 20.2758 141.412 20.127C141.091 19.8287 140.618 19.4795 140.009 19.0898C138.793 18.3124 137.097 17.4105 135.139 16.4619C131.232 14.5691 126.336 12.5141 122.281 10.9238C114.172 8.27247 108.261 6.9084 102.921 6.53223Z" fill="#FFE5B5" stroke="#FFE5B5"/>
<path d="M9.6917 170.275C8.2417 170.275 6.9667 170.054 5.8667 169.612C4.77503 169.171 3.86253 168.542 3.1292 167.725C2.4042 166.9 1.85837 165.912 1.4917 164.762C1.12503 163.604 0.941699 162.312 0.941699 160.887C0.941699 159.404 1.1667 158.071 1.6167 156.887C2.07503 155.696 2.7167 154.679 3.5417 153.837C4.37503 152.987 5.34587 152.337 6.4542 151.887C7.57087 151.437 8.78337 151.212 10.0917 151.212C10.7084 151.212 11.2709 151.237 11.7792 151.287C12.2959 151.337 12.775 151.4 13.2167 151.475C13.6667 151.55 14.0959 151.617 14.5042 151.675C14.9209 151.733 15.3209 151.775 15.7042 151.8L15.4167 157.062H13.2042L12.4542 153.462C12.3459 153.346 12.175 153.237 11.9417 153.137C11.7084 153.029 11.4125 152.942 11.0542 152.875C10.7042 152.808 10.2834 152.775 9.7917 152.775C8.88337 152.775 8.07503 153.062 7.3667 153.637C6.6667 154.212 6.1167 155.071 5.7167 156.212C5.32503 157.354 5.1292 158.783 5.1292 160.5C5.1292 161.658 5.22503 162.737 5.4167 163.737C5.60837 164.729 5.90003 165.596 6.2917 166.337C6.68337 167.079 7.1792 167.658 7.7792 168.075C8.38753 168.492 9.10003 168.7 9.9167 168.7C10.45 168.7 10.8917 168.662 11.2417 168.587C11.6 168.504 11.8917 168.396 12.1167 168.262C12.3417 168.121 12.5334 167.975 12.6917 167.825L13.8167 164.962L15.8667 165.187L15.3417 169.325C14.95 169.35 14.5792 169.412 14.2292 169.512C13.8792 169.612 13.5 169.721 13.0917 169.837C12.6917 169.954 12.2167 170.054 11.6667 170.138C11.125 170.229 10.4667 170.275 9.6917 170.275ZM17.3175 163.125C17.3175 161.908 17.5008 160.846 17.8675 159.937C18.2425 159.021 18.7508 158.258 19.3925 157.65C20.0425 157.042 20.7758 156.587 21.5925 156.287C22.4175 155.979 23.28 155.825 24.18 155.825C25.5883 155.825 26.78 156.117 27.755 156.7C28.73 157.283 29.4675 158.112 29.9675 159.187C30.4758 160.254 30.73 161.512 30.73 162.962C30.73 164.204 30.5425 165.283 30.1675 166.2C29.7925 167.117 29.2841 167.879 28.6425 168.487C28.0008 169.087 27.2675 169.537 26.4425 169.837C25.6175 170.129 24.755 170.275 23.855 170.275C22.805 170.275 21.8716 170.108 21.055 169.775C20.2466 169.442 19.5633 168.962 19.005 168.337C18.455 167.712 18.0341 166.962 17.7425 166.087C17.4591 165.204 17.3175 164.217 17.3175 163.125ZM24.0675 168.712C24.6758 168.712 25.1841 168.517 25.5925 168.125C26.0091 167.733 26.3216 167.133 26.53 166.325C26.7466 165.508 26.855 164.479 26.855 163.237C26.855 162.329 26.805 161.517 26.705 160.8C26.605 160.075 26.4425 159.458 26.2175 158.95C26.0008 158.442 25.7133 158.054 25.355 157.787C24.9966 157.521 24.555 157.387 24.03 157.387C23.43 157.387 22.9175 157.583 22.4925 157.975C22.0675 158.367 21.7425 158.967 21.5175 159.775C21.2925 160.575 21.18 161.604 21.18 162.862C21.18 163.779 21.2341 164.6 21.3425 165.325C21.4508 166.042 21.6216 166.654 21.855 167.162C22.0883 167.662 22.3841 168.046 22.7425 168.312C23.1091 168.579 23.5508 168.712 24.0675 168.712ZM33.8862 168.325V158.525L32.2987 158.075V156.4L36.4612 155.862H36.5612L37.1737 156.35V157.312L37.1487 157.925C37.4987 157.592 37.9404 157.271 38.4737 156.962C39.0071 156.654 39.5904 156.396 40.2237 156.187C40.8654 155.979 41.5279 155.875 42.2112 155.875C43.2112 155.875 44.0112 156.058 44.6112 156.425C45.2196 156.792 45.6612 157.379 45.9362 158.187C46.2112 158.987 46.3487 160.042 46.3487 161.35V168.337L47.8737 168.55V170H41.4237V168.562L42.7487 168.337V161.425C42.7487 160.608 42.6779 159.95 42.5362 159.45C42.4029 158.95 42.1696 158.587 41.8362 158.362C41.5112 158.129 41.0612 158.012 40.4862 158.012C40.0946 158.012 39.7112 158.079 39.3362 158.212C38.9696 158.337 38.6279 158.496 38.3112 158.687C37.9946 158.871 37.7196 159.05 37.4862 159.225V168.325L38.9862 168.562V170H32.4362V168.562L33.8862 168.325ZM53.0997 170.238C52.083 170.238 51.3205 170 50.8122 169.525C50.3039 169.05 50.0497 168.279 50.0497 167.212V158.075H48.4247V156.712C48.6164 156.637 48.8122 156.571 49.0122 156.513C49.2122 156.454 49.3997 156.396 49.5747 156.337C49.7497 156.271 49.8872 156.196 49.9872 156.112C50.1039 156.012 50.1997 155.908 50.2747 155.8C50.358 155.692 50.433 155.571 50.4997 155.437C50.5747 155.296 50.6455 155.133 50.7122 154.95C50.7955 154.733 50.883 154.479 50.9747 154.187C51.0747 153.896 51.1705 153.596 51.2622 153.287C51.3539 152.979 51.433 152.704 51.4997 152.462H53.4997L53.6122 156.175H57.2497V158.075H53.6372V165.15C53.6372 166.017 53.6664 166.65 53.7247 167.05C53.7914 167.442 53.9205 167.692 54.1122 167.8C54.3039 167.9 54.5872 167.95 54.9622 167.95C55.3622 167.95 55.7789 167.9 56.2122 167.8C56.6455 167.7 56.9914 167.6 57.2497 167.5L57.7247 168.862C57.4414 169.079 57.0539 169.296 56.5622 169.512C56.0789 169.721 55.5372 169.892 54.9372 170.025C54.3455 170.167 53.733 170.238 53.0997 170.238ZM62.7845 170.275C62.0345 170.275 61.3428 170.117 60.7095 169.8C60.0761 169.483 59.5678 169.017 59.1845 168.4C58.8011 167.783 58.6095 167.029 58.6095 166.137C58.6095 165.346 58.822 164.662 59.247 164.087C59.672 163.512 60.2595 163.042 61.0095 162.675C61.7595 162.3 62.622 162.021 63.597 161.837C64.5803 161.654 65.6261 161.554 66.7345 161.537V160.862C66.7345 160.229 66.6636 159.721 66.522 159.337C66.3886 158.954 66.1345 158.671 65.7595 158.487C65.3845 158.304 64.847 158.212 64.147 158.212C63.1886 158.212 62.3511 158.35 61.6345 158.625C60.9261 158.9 60.372 159.133 59.972 159.325L59.2095 157.762C59.4095 157.587 59.7928 157.35 60.3595 157.05C60.9261 156.75 61.6178 156.479 62.4345 156.237C63.2511 155.987 64.1345 155.862 65.0845 155.862C66.3428 155.862 67.3345 156.046 68.0595 156.412C68.7845 156.771 69.3053 157.321 69.622 158.062C69.9386 158.804 70.097 159.746 70.097 160.887V168.512H71.4345V169.862C71.2428 169.904 70.9678 169.954 70.6095 170.013C70.2595 170.079 69.8803 170.133 69.472 170.175C69.072 170.217 68.7053 170.238 68.372 170.238C67.8136 170.238 67.4303 170.158 67.222 170C67.022 169.833 66.922 169.496 66.922 168.987V168.3C66.722 168.55 66.4261 168.829 66.0345 169.137C65.6428 169.446 65.172 169.712 64.622 169.937C64.0803 170.163 63.4678 170.275 62.7845 170.275ZM64.4095 168.225C64.7678 168.225 65.1636 168.121 65.597 167.912C66.0386 167.704 66.4178 167.454 66.7345 167.162V163.037C65.7095 163.037 64.872 163.162 64.222 163.412C63.5803 163.662 63.1053 163.992 62.797 164.4C62.497 164.808 62.347 165.262 62.347 165.762C62.347 166.304 62.4345 166.758 62.6095 167.125C62.7845 167.483 63.0261 167.758 63.3345 167.95C63.6511 168.133 64.0095 168.225 64.4095 168.225ZM78.1755 170.275C77.4422 170.275 76.7505 170.142 76.1005 169.875C75.4505 169.608 74.8713 169.2 74.363 168.65C73.863 168.092 73.4713 167.383 73.188 166.525C72.9047 165.658 72.763 164.629 72.763 163.437C72.763 162.054 73.0463 160.787 73.613 159.637C74.1797 158.479 75.0088 157.554 76.1005 156.863C77.1922 156.171 78.5255 155.825 80.1005 155.825C80.4422 155.825 80.7672 155.846 81.0755 155.887C81.3922 155.929 81.6797 155.983 81.938 156.05V151.7L79.513 151.362V150.012L84.638 149.512H84.763L85.4255 150.025V168.512H86.763V169.9C86.4047 169.975 85.9463 170.054 85.388 170.138C84.838 170.229 84.3047 170.275 83.788 170.275C83.2963 170.275 82.9213 170.196 82.663 170.038C82.413 169.887 82.288 169.537 82.288 168.987V168.262C82.0213 168.637 81.6755 168.979 81.2505 169.287C80.8338 169.587 80.3588 169.825 79.8255 170C79.3005 170.183 78.7505 170.275 78.1755 170.275ZM79.5005 168.225C79.8838 168.225 80.2338 168.167 80.5505 168.05C80.8755 167.933 81.1547 167.787 81.388 167.612C81.6213 167.437 81.8047 167.262 81.938 167.087V158C81.8213 157.833 81.5797 157.687 81.213 157.562C80.8463 157.437 80.4463 157.375 80.013 157.375C79.3713 157.375 78.788 157.558 78.263 157.925C77.7463 158.292 77.3338 158.887 77.0255 159.712C76.7172 160.537 76.5547 161.642 76.538 163.025C76.5297 164.258 76.6547 165.258 76.913 166.025C77.1797 166.792 77.538 167.35 77.988 167.7C78.438 168.05 78.9422 168.225 79.5005 168.225ZM88.1183 163.125C88.1183 161.908 88.3016 160.846 88.6683 159.937C89.0433 159.021 89.5516 158.258 90.1933 157.65C90.8433 157.042 91.5766 156.587 92.3933 156.287C93.2183 155.979 94.0808 155.825 94.9808 155.825C96.3891 155.825 97.5808 156.117 98.5558 156.7C99.5308 157.283 100.268 158.112 100.768 159.187C101.277 160.254 101.531 161.512 101.531 162.962C101.531 164.204 101.343 165.283 100.968 166.2C100.593 167.117 100.085 167.879 99.4433 168.487C98.8016 169.087 98.0683 169.537 97.2433 169.837C96.4183 170.129 95.5558 170.275 94.6558 170.275C93.6058 170.275 92.6724 170.108 91.8558 169.775C91.0474 169.442 90.3641 168.962 89.8058 168.337C89.2558 167.712 88.8349 166.962 88.5433 166.087C88.2599 165.204 88.1183 164.217 88.1183 163.125ZM94.8683 168.712C95.4766 168.712 95.9849 168.517 96.3933 168.125C96.8099 167.733 97.1224 167.133 97.3308 166.325C97.5474 165.508 97.6558 164.479 97.6558 163.237C97.6558 162.329 97.6058 161.517 97.5058 160.8C97.4058 160.075 97.2433 159.458 97.0183 158.95C96.8016 158.442 96.5141 158.054 96.1558 157.787C95.7974 157.521 95.3558 157.387 94.8308 157.387C94.2308 157.387 93.7183 157.583 93.2933 157.975C92.8683 158.367 92.5433 158.967 92.3183 159.775C92.0933 160.575 91.9808 161.604 91.9808 162.862C91.9808 163.779 92.0349 164.6 92.1433 165.325C92.2516 166.042 92.4224 166.654 92.6558 167.162C92.8891 167.662 93.1849 168.046 93.5433 168.312C93.9099 168.579 94.3516 168.712 94.8683 168.712ZM103.075 170V168.575L104.713 168.362V158.525L103.125 158.075V156.4L107.013 155.862H107.1L107.75 156.35V156.912L107.675 159.1H107.75C107.825 158.883 107.979 158.604 108.213 158.262C108.454 157.912 108.767 157.558 109.15 157.2C109.533 156.842 109.983 156.542 110.5 156.3C111.025 156.058 111.6 155.938 112.225 155.938C112.458 155.938 112.654 155.954 112.813 155.987C112.971 156.021 113.096 156.054 113.188 156.087V159.687C113.029 159.562 112.804 159.462 112.513 159.387C112.229 159.312 111.846 159.275 111.363 159.275C110.846 159.275 110.388 159.333 109.988 159.45C109.588 159.567 109.246 159.704 108.963 159.862C108.679 160.021 108.446 160.167 108.263 160.3V168.337L111.1 168.575V170H103.075ZM120.558 170.275C119.042 170.275 117.804 169.971 116.846 169.362C115.888 168.746 115.179 167.9 114.721 166.825C114.271 165.742 114.046 164.496 114.046 163.087C114.046 161.954 114.208 160.942 114.533 160.05C114.858 159.15 115.317 158.387 115.908 157.762C116.5 157.129 117.204 156.65 118.021 156.325C118.846 155.992 119.754 155.825 120.746 155.825C122.429 155.825 123.717 156.262 124.608 157.137C125.5 158.012 125.967 159.246 126.008 160.837C126.008 161.379 125.992 161.85 125.958 162.25C125.925 162.65 125.875 163 125.808 163.3H117.746C117.771 164.05 117.871 164.721 118.046 165.312C118.229 165.904 118.479 166.408 118.796 166.825C119.113 167.233 119.5 167.546 119.958 167.762C120.425 167.979 120.963 168.087 121.571 168.087C122.238 168.087 122.913 167.971 123.596 167.737C124.279 167.504 124.808 167.258 125.183 167L125.783 168.312C125.517 168.604 125.113 168.9 124.571 169.2C124.038 169.5 123.421 169.754 122.721 169.962C122.021 170.171 121.3 170.275 120.558 170.275ZM117.733 161.812L122.471 161.8C122.479 161.633 122.488 161.458 122.496 161.275C122.513 161.083 122.521 160.9 122.521 160.725C122.521 159.717 122.358 158.908 122.033 158.3C121.717 157.692 121.158 157.387 120.358 157.387C119.992 157.387 119.654 157.458 119.346 157.6C119.038 157.733 118.767 157.967 118.533 158.3C118.3 158.625 118.113 159.075 117.971 159.65C117.838 160.217 117.758 160.937 117.733 161.812ZM133.121 170.275C132.346 170.275 131.621 170.208 130.946 170.075C130.28 169.942 129.692 169.796 129.184 169.637C128.676 169.479 128.276 169.358 127.984 169.275V166H130.046L130.609 167.937C130.701 168.079 130.867 168.217 131.109 168.35C131.359 168.483 131.646 168.596 131.971 168.687C132.305 168.771 132.638 168.812 132.971 168.812C133.521 168.812 133.967 168.737 134.309 168.587C134.651 168.437 134.905 168.229 135.071 167.962C135.238 167.696 135.321 167.396 135.321 167.062C135.321 166.612 135.155 166.237 134.821 165.937C134.496 165.637 134.042 165.354 133.459 165.087C132.884 164.821 132.217 164.525 131.459 164.2C130.734 163.883 130.113 163.525 129.596 163.125C129.088 162.725 128.696 162.25 128.421 161.7C128.155 161.15 128.021 160.5 128.021 159.75C128.021 158.992 128.242 158.325 128.684 157.75C129.126 157.167 129.751 156.708 130.559 156.375C131.367 156.033 132.317 155.862 133.409 155.862C134.217 155.862 134.909 155.917 135.484 156.025C136.059 156.133 136.542 156.25 136.934 156.375C137.334 156.492 137.659 156.571 137.909 156.612V159.887H135.959L135.384 158.025C135.317 157.9 135.192 157.783 135.009 157.675C134.826 157.567 134.605 157.479 134.346 157.412C134.088 157.346 133.805 157.312 133.496 157.312C133.046 157.304 132.655 157.371 132.321 157.512C131.988 157.646 131.73 157.837 131.546 158.087C131.363 158.329 131.271 158.617 131.271 158.95C131.271 159.45 131.421 159.858 131.721 160.175C132.021 160.483 132.413 160.75 132.896 160.975C133.388 161.2 133.909 161.429 134.459 161.662C134.984 161.887 135.501 162.129 136.009 162.387C136.526 162.646 136.988 162.946 137.396 163.287C137.805 163.621 138.13 164.021 138.371 164.487C138.613 164.946 138.734 165.492 138.734 166.125C138.734 166.9 138.53 167.604 138.121 168.237C137.713 168.862 137.092 169.358 136.259 169.725C135.426 170.092 134.38 170.275 133.121 170.275ZM151.637 170.275C150.904 170.275 150.212 170.142 149.562 169.875C148.912 169.608 148.333 169.2 147.825 168.65C147.325 168.092 146.933 167.383 146.65 166.525C146.367 165.658 146.225 164.629 146.225 163.437C146.225 162.054 146.508 160.787 147.075 159.637C147.642 158.479 148.471 157.554 149.562 156.863C150.654 156.171 151.987 155.825 153.562 155.825C153.904 155.825 154.229 155.846 154.537 155.887C154.854 155.929 155.142 155.983 155.4 156.05V151.7L152.975 151.362V150.012L158.1 149.512H158.225L158.887 150.025V168.512H160.225V169.9C159.867 169.975 159.408 170.054 158.85 170.138C158.3 170.229 157.767 170.275 157.25 170.275C156.758 170.275 156.383 170.196 156.125 170.038C155.875 169.887 155.75 169.537 155.75 168.987V168.262C155.483 168.637 155.137 168.979 154.712 169.287C154.296 169.587 153.821 169.825 153.287 170C152.762 170.183 152.212 170.275 151.637 170.275ZM152.962 168.225C153.346 168.225 153.696 168.167 154.012 168.05C154.337 167.933 154.617 167.787 154.85 167.612C155.083 167.437 155.267 167.262 155.4 167.087V158C155.283 157.833 155.042 157.687 154.675 157.562C154.308 157.437 153.908 157.375 153.475 157.375C152.833 157.375 152.25 157.558 151.725 157.925C151.208 158.292 150.796 158.887 150.487 159.712C150.179 160.537 150.017 161.642 150 163.025C149.992 164.258 150.117 165.258 150.375 166.025C150.642 166.792 151 167.35 151.45 167.7C151.9 168.05 152.404 168.225 152.962 168.225ZM168.117 170.275C166.6 170.275 165.363 169.971 164.405 169.362C163.446 168.746 162.738 167.9 162.28 166.825C161.83 165.742 161.605 164.496 161.605 163.087C161.605 161.954 161.767 160.942 162.092 160.05C162.417 159.15 162.875 158.387 163.467 157.762C164.059 157.129 164.763 156.65 165.58 156.325C166.405 155.992 167.313 155.825 168.305 155.825C169.988 155.825 171.275 156.262 172.167 157.137C173.059 158.012 173.525 159.246 173.567 160.837C173.567 161.379 173.55 161.85 173.517 162.25C173.484 162.65 173.434 163 173.367 163.3H165.305C165.33 164.05 165.43 164.721 165.605 165.312C165.788 165.904 166.038 166.408 166.355 166.825C166.671 167.233 167.059 167.546 167.517 167.762C167.984 167.979 168.521 168.087 169.13 168.087C169.796 168.087 170.471 167.971 171.155 167.737C171.838 167.504 172.367 167.258 172.742 167L173.342 168.312C173.075 168.604 172.671 168.9 172.13 169.2C171.596 169.5 170.98 169.754 170.28 169.962C169.58 170.171 168.859 170.275 168.117 170.275ZM165.292 161.812L170.03 161.8C170.038 161.633 170.046 161.458 170.055 161.275C170.071 161.083 170.08 160.9 170.08 160.725C170.08 159.717 169.917 158.908 169.592 158.3C169.275 157.692 168.717 157.387 167.917 157.387C167.55 157.387 167.213 157.458 166.905 157.6C166.596 157.733 166.325 157.967 166.092 158.3C165.859 158.625 165.671 159.075 165.53 159.65C165.396 160.217 165.317 160.937 165.292 161.812ZM182.955 168.3V153.25L181.118 152.925V151.425H188.705V152.925L186.655 153.25V159.6H194.168V153.262L192.105 152.925V151.425H199.693V152.925L197.868 153.25V168.3L199.73 168.562V170H192.193V168.562L194.168 168.287V161.437H186.655V168.3L188.805 168.562V170H181.093V168.562L182.955 168.3ZM201.307 170V168.562L203.032 168.325V158.525L201.282 158.05V156.45L205.844 155.862H205.919L206.594 156.35V168.337L208.282 168.562V170H201.307ZM204.532 153.95C203.898 153.95 203.415 153.754 203.082 153.362C202.757 152.971 202.594 152.529 202.594 152.037C202.594 151.446 202.773 150.933 203.132 150.5C203.498 150.067 204.036 149.85 204.744 149.85H204.769C205.402 149.85 205.882 150.042 206.207 150.425C206.54 150.8 206.707 151.233 206.707 151.725C206.707 152.317 206.523 152.837 206.157 153.287C205.798 153.729 205.265 153.95 204.557 153.95H204.532ZM215.128 170.275C214.353 170.275 213.628 170.208 212.953 170.075C212.287 169.942 211.699 169.796 211.191 169.637C210.682 169.479 210.282 169.358 209.991 169.275V166H212.053L212.616 167.937C212.707 168.079 212.874 168.217 213.116 168.35C213.366 168.483 213.653 168.596 213.978 168.687C214.312 168.771 214.645 168.812 214.978 168.812C215.528 168.812 215.974 168.737 216.316 168.587C216.657 168.437 216.912 168.229 217.078 167.962C217.245 167.696 217.328 167.396 217.328 167.062C217.328 166.612 217.162 166.237 216.828 165.937C216.503 165.637 216.049 165.354 215.466 165.087C214.891 164.821 214.224 164.525 213.466 164.2C212.741 163.883 212.12 163.525 211.603 163.125C211.095 162.725 210.703 162.25 210.428 161.7C210.162 161.15 210.028 160.5 210.028 159.75C210.028 158.992 210.249 158.325 210.691 157.75C211.132 157.167 211.757 156.708 212.566 156.375C213.374 156.033 214.324 155.862 215.416 155.862C216.224 155.862 216.916 155.917 217.491 156.025C218.066 156.133 218.549 156.25 218.941 156.375C219.341 156.492 219.666 156.571 219.916 156.612V159.887H217.966L217.391 158.025C217.324 157.9 217.199 157.783 217.016 157.675C216.832 157.567 216.612 157.479 216.353 157.412C216.095 157.346 215.812 157.312 215.503 157.312C215.053 157.304 214.662 157.371 214.328 157.512C213.995 157.646 213.737 157.837 213.553 158.087C213.37 158.329 213.278 158.617 213.278 158.95C213.278 159.45 213.428 159.858 213.728 160.175C214.028 160.483 214.42 160.75 214.903 160.975C215.395 161.2 215.916 161.429 216.466 161.662C216.991 161.887 217.507 162.129 218.016 162.387C218.532 162.646 218.995 162.946 219.403 163.287C219.812 163.621 220.137 164.021 220.378 164.487C220.62 164.946 220.741 165.492 220.741 166.125C220.741 166.9 220.537 167.604 220.128 168.237C219.72 168.862 219.099 169.358 218.266 169.725C217.432 170.092 216.387 170.275 215.128 170.275ZM226.659 170.238C225.643 170.238 224.88 170 224.372 169.525C223.863 169.05 223.609 168.279 223.609 167.212V158.075H221.984V156.712C222.176 156.637 222.372 156.571 222.572 156.513C222.772 156.454 222.959 156.396 223.134 156.337C223.309 156.271 223.447 156.196 223.547 156.112C223.663 156.012 223.759 155.908 223.834 155.8C223.918 155.692 223.993 155.571 224.059 155.437C224.134 155.296 224.205 155.133 224.272 154.95C224.355 154.733 224.443 154.479 224.534 154.187C224.634 153.896 224.73 153.596 224.822 153.287C224.913 152.979 224.993 152.704 225.059 152.462H227.059L227.172 156.175H230.809V158.075H227.197V165.15C227.197 166.017 227.226 166.65 227.284 167.05C227.351 167.442 227.48 167.692 227.672 167.8C227.863 167.9 228.147 167.95 228.522 167.95C228.922 167.95 229.338 167.9 229.772 167.8C230.205 167.7 230.551 167.6 230.809 167.5L231.284 168.862C231.001 169.079 230.613 169.296 230.122 169.512C229.638 169.721 229.097 169.892 228.497 170.025C227.905 170.167 227.293 170.238 226.659 170.238ZM231.771 163.125C231.771 161.908 231.954 160.846 232.321 159.937C232.696 159.021 233.204 158.258 233.846 157.65C234.496 157.042 235.229 156.587 236.046 156.287C236.871 155.979 237.733 155.825 238.633 155.825C240.041 155.825 241.233 156.117 242.208 156.7C243.183 157.283 243.921 158.112 244.421 159.187C244.929 160.254 245.183 161.512 245.183 162.962C245.183 164.204 244.996 165.283 244.621 166.2C244.246 167.117 243.737 167.879 243.096 168.487C242.454 169.087 241.721 169.537 240.896 169.837C240.071 170.129 239.208 170.275 238.308 170.275C237.258 170.275 236.325 170.108 235.508 169.775C234.7 169.442 234.016 168.962 233.458 168.337C232.908 167.712 232.487 166.962 232.196 166.087C231.912 165.204 231.771 164.217 231.771 163.125ZM238.521 168.712C239.129 168.712 239.637 168.517 240.046 168.125C240.462 167.733 240.775 167.133 240.983 166.325C241.2 165.508 241.308 164.479 241.308 163.237C241.308 162.329 241.258 161.517 241.158 160.8C241.058 160.075 240.896 159.458 240.671 158.95C240.454 158.442 240.166 158.054 239.808 157.787C239.45 157.521 239.008 157.387 238.483 157.387C237.883 157.387 237.371 157.583 236.946 157.975C236.521 158.367 236.196 158.967 235.971 159.775C235.746 160.575 235.633 161.604 235.633 162.862C235.633 163.779 235.687 164.6 235.796 165.325C235.904 166.042 236.075 166.654 236.308 167.162C236.541 167.662 236.837 168.046 237.196 168.312C237.562 168.579 238.004 168.712 238.521 168.712ZM237.971 154.162L236.783 153.125L240.946 147.862L243.158 149.787C242.958 150.137 242.646 150.533 242.221 150.975C241.796 151.417 241.325 151.854 240.808 152.287C240.3 152.721 239.796 153.108 239.296 153.45C238.804 153.783 238.379 154.021 238.021 154.162H237.971ZM246.727 170V168.575L248.365 168.362V158.525L246.777 158.075V156.4L250.665 155.862H250.752L251.402 156.35V156.912L251.327 159.1H251.402C251.477 158.883 251.632 158.604 251.865 158.262C252.107 157.912 252.419 157.558 252.802 157.2C253.186 156.842 253.636 156.542 254.152 156.3C254.677 156.058 255.252 155.938 255.877 155.938C256.111 155.938 256.307 155.954 256.465 155.987C256.623 156.021 256.748 156.054 256.84 156.087V159.687C256.682 159.562 256.457 159.462 256.165 159.387C255.882 159.312 255.498 159.275 255.015 159.275C254.498 159.275 254.04 159.333 253.64 159.45C253.24 159.567 252.898 159.704 252.615 159.862C252.332 160.021 252.098 160.167 251.915 160.3V168.337L254.752 168.575V170H246.727ZM258.313 170V168.562L260.038 168.325V158.525L258.288 158.05V156.45L262.851 155.862H262.926L263.601 156.35V168.337L265.288 168.562V170H258.313ZM261.538 153.95C260.905 153.95 260.422 153.754 260.088 153.362C259.763 152.971 259.601 152.529 259.601 152.037C259.601 151.446 259.78 150.933 260.138 150.5C260.505 150.067 261.043 149.85 261.751 149.85H261.776C262.409 149.85 262.888 150.042 263.213 150.425C263.547 150.8 263.713 151.233 263.713 151.725C263.713 152.317 263.53 152.837 263.163 153.287C262.805 153.729 262.272 153.95 261.563 153.95H261.538ZM270.499 170.275C269.749 170.275 269.058 170.117 268.424 169.8C267.791 169.483 267.283 169.017 266.899 168.4C266.516 167.783 266.324 167.029 266.324 166.137C266.324 165.346 266.537 164.662 266.962 164.087C267.387 163.512 267.974 163.042 268.724 162.675C269.474 162.3 270.337 162.021 271.312 161.837C272.295 161.654 273.341 161.554 274.449 161.537V160.862C274.449 160.229 274.378 159.721 274.237 159.337C274.103 158.954 273.849 158.671 273.474 158.487C273.099 158.304 272.562 158.212 271.862 158.212C270.903 158.212 270.066 158.35 269.349 158.625C268.641 158.9 268.087 159.133 267.687 159.325L266.924 157.762C267.124 157.587 267.508 157.35 268.074 157.05C268.641 156.75 269.333 156.479 270.149 156.237C270.966 155.987 271.849 155.862 272.799 155.862C274.058 155.862 275.049 156.046 275.774 156.412C276.499 156.771 277.02 157.321 277.337 158.062C277.653 158.804 277.812 159.746 277.812 160.887V168.512H279.149V169.862C278.958 169.904 278.683 169.954 278.324 170.013C277.974 170.079 277.595 170.133 277.187 170.175C276.787 170.217 276.42 170.238 276.087 170.238C275.528 170.238 275.145 170.158 274.937 170C274.737 169.833 274.637 169.496 274.637 168.987V168.3C274.437 168.55 274.141 168.829 273.749 169.137C273.358 169.446 272.887 169.712 272.337 169.937C271.795 170.163 271.183 170.275 270.499 170.275ZM272.124 168.225C272.483 168.225 272.878 168.121 273.312 167.912C273.753 167.704 274.133 167.454 274.449 167.162V163.037C273.424 163.037 272.587 163.162 271.937 163.412C271.295 163.662 270.82 163.992 270.512 164.4C270.212 164.808 270.062 165.262 270.062 165.762C270.062 166.304 270.149 166.758 270.324 167.125C270.499 167.483 270.741 167.758 271.049 167.95C271.366 168.133 271.724 168.225 272.124 168.225ZM285.978 170.275C285.203 170.275 284.478 170.208 283.803 170.075C283.136 169.942 282.549 169.796 282.04 169.637C281.532 169.479 281.132 169.358 280.84 169.275V166H282.903L283.465 167.937C283.557 168.079 283.724 168.217 283.965 168.35C284.215 168.483 284.503 168.596 284.828 168.687C285.161 168.771 285.494 168.812 285.828 168.812C286.378 168.812 286.824 168.737 287.165 168.587C287.507 168.437 287.761 168.229 287.928 167.962C288.094 167.696 288.178 167.396 288.178 167.062C288.178 166.612 288.011 166.237 287.678 165.937C287.353 165.637 286.899 165.354 286.315 165.087C285.74 164.821 285.074 164.525 284.315 164.2C283.59 163.883 282.969 163.525 282.453 163.125C281.944 162.725 281.553 162.25 281.278 161.7C281.011 161.15 280.878 160.5 280.878 159.75C280.878 158.992 281.099 158.325 281.54 157.75C281.982 157.167 282.607 156.708 283.415 156.375C284.224 156.033 285.174 155.862 286.265 155.862C287.074 155.862 287.765 155.917 288.34 156.025C288.915 156.133 289.399 156.25 289.79 156.375C290.19 156.492 290.515 156.571 290.765 156.612V159.887H288.815L288.24 158.025C288.174 157.9 288.049 157.783 287.865 157.675C287.682 157.567 287.461 157.479 287.203 157.412C286.944 157.346 286.661 157.312 286.353 157.312C285.903 157.304 285.511 157.371 285.178 157.512C284.844 157.646 284.586 157.837 284.403 158.087C284.219 158.329 284.128 158.617 284.128 158.95C284.128 159.45 284.278 159.858 284.578 160.175C284.878 160.483 285.269 160.75 285.753 160.975C286.244 161.2 286.765 161.429 287.315 161.662C287.84 161.887 288.357 162.129 288.865 162.387C289.382 162.646 289.844 162.946 290.253 163.287C290.661 163.621 290.986 164.021 291.228 164.487C291.469 164.946 291.59 165.492 291.59 166.125C291.59 166.9 291.386 167.604 290.978 168.237C290.569 168.862 289.949 169.358 289.115 169.725C288.282 170.092 287.236 170.275 285.978 170.275Z" fill="#FFE5B5"/>
</svg>
