<svg width="295" height="310" viewBox="0 0 295 310" fill="none" xmlns="http://www.w3.org/2000/svg">
<rect width="294.049" height="310" rx="50" fill="#F2E4CA"/>
<path d="M34.3588 206.516C34.3588 206.516 31.5847 207.21 31.9315 210.677C32.2783 214.145 35.399 214.145 35.399 214.145C35.399 214.145 52.3901 209.637 82.5579 210.677C112.726 211.718 125.209 223.161 128.33 224.201C131.451 225.241 134.918 225.241 134.918 225.241C134.918 225.241 138.386 225.241 142.2 223.854C146.014 222.467 161.618 208.25 193.867 206.516C226.115 204.783 258.363 213.798 258.363 213.798C258.363 213.798 260.791 214.145 261.831 211.024C262.871 207.903 260.097 206.17 260.097 206.17C260.097 206.17 222.994 195.767 193.867 197.847C164.739 199.928 142.547 213.105 140.119 213.798C137.692 214.492 137.692 214.492 132.144 213.798C126.596 213.105 120.008 207.557 95.3879 203.395C70.7682 199.234 52.0434 202.355 46.1485 203.395C40.2536 204.436 34.3588 206.516 34.3588 206.516Z" fill="#532822"/>
<path d="M239.292 202.355C239.292 202.355 254.549 180.163 254.896 178.429C255.243 176.695 247.267 175.655 247.267 175.655C247.267 175.655 232.357 173.228 201.496 177.389C173.439 181.172 142.837 207.549 138.386 214.145C137.941 214.804 139.71 213.893 139.773 214.145C140.127 215.562 167.513 186.058 201.496 181.203C235.478 176.348 246.921 180.163 247.614 181.203C248.308 182.243 234.437 200.968 234.437 200.968L239.292 202.355Z" fill="#532822"/>
<path d="M226.461 175.655C226.461 175.655 230.969 166.639 237.211 157.971C242.555 149.639 248.368 141.531 248.421 140.303C248.529 137.786 241.025 138.552 241.025 138.552C241.025 138.552 224.381 136.125 193.866 148.261C165.733 159.451 139.995 204.63 137.345 214.145C137.121 214.95 137.755 215.058 138.071 215.122C138.386 215.185 160.578 168.72 195.255 152.422C209.653 145.655 222.647 144.794 226.461 144.1C230.275 143.407 240.678 142.713 241.025 143.407C241.203 143.763 235.824 151.035 229.582 160.398C223.34 169.76 221.26 175.655 221.26 175.655L226.461 175.655Z" fill="#532822"/>
<path d="M204.269 144.794C204.269 144.794 220.22 119.48 223.341 113.586C226.461 107.691 230.969 97.288 230.969 97.288C230.969 97.288 232.009 95.5542 230.969 94.5139C229.929 93.4737 226.808 95.5542 226.808 95.5542C226.808 95.5542 223.687 97.9815 215.018 100.062C206.349 102.143 202.535 100.756 194.56 103.183C186.584 105.61 173.754 112.198 166.473 119.134C159.191 126.069 153.296 135.778 153.296 135.778C148.985 144.075 144.779 154.215 142.2 165.599C136.713 189.815 137.345 214.602 137.345 214.838C137.345 215.185 137.974 215.177 138.039 214.492C140.881 184.441 143.554 166.673 150.522 149.995C161.754 128.886 169.817 120.411 187.625 111.852C197.126 107.64 211.086 106.126 213.978 105.61C216.87 105.094 223.341 102.143 223.341 102.143C220.454 109.287 218.318 113.223 213.978 120.174C207.19 130.517 203.187 137.506 198.028 147.221L204.269 144.794Z" fill="#532822"/>
<path d="M39.2133 204.782C37.9223 196.082 35.3993 188.832 36.4393 187.098C37.4794 185.364 58.4806 183.57 82.558 188.485C102.981 193.202 122.047 202.329 135.612 212.411L131.797 215.879C118.194 205.611 90.1865 195.42 81.5177 193.686C72.849 191.952 58.2321 189.495 41.6406 190.912C43.349 195.918 43.8713 198.726 44.0679 203.742L39.2133 204.782Z" fill="#532822"/>
<path d="M50.3094 185.364L46.8418 133.698C47.7658 132.159 48.5875 131.942 50.3094 132.658C64.3498 152.547 74.4395 161.135 96.4279 171.841C111.544 178.81 124.699 192.47 127.289 196.807C129.879 201.145 134.918 213.798 134.918 213.798C134.918 213.798 133.35 215.569 131.45 213.105C127.149 203.408 117.663 191.168 108.218 185.364L96.4279 178.083C75.8134 167.397 65.9049 160.205 52.7367 144.101L55.5107 185.364H50.3094Z" fill="#532822"/>
<path d="M67.1335 153.699L65.2198 151.707L68.5688 118.208C67.3327 103.619 71.4393 94.1674 81.9647 89.4739C92.49 84.7804 110.289 83.949 129.089 92.6033L146.313 101.423C148.081 103.387 148.726 104.531 147.748 106.828C140.928 122.426 138.39 133.029 136.505 155.761C135.817 171.256 136.177 200.682 137.94 213.676L134.591 215.667C132.439 198.004 131.282 166.597 133.395 148.933C134.148 131.484 143.466 107.522 143.24 105.61C143.014 103.699 131.478 98.6356 123.348 95.4483C107.085 90.1301 99.5175 89.9312 87.7057 92.6033C72.2254 97.5763 70.112 104.261 75.9844 121.906C83.4902 136.286 89.273 143.056 101.58 153.485C117.245 168.293 123.928 178.234 133.395 197.867L137.94 214.492H134.591C127.94 196.25 123.569 186.734 113.78 175.391C103.702 162.6 97.2938 155.288 84.8352 144.257L71.4393 125.32L67.1335 153.699Z" fill="#532822"/>
</svg>
