<svg width="150" height="159" viewBox="0 0 150 159" fill="none" xmlns="http://www.w3.org/2000/svg">
<rect width="150" height="158.137" rx="30" fill="#FFE5B5"/>
<path d="M17.5269 105.348C17.5269 105.348 16.1118 105.701 16.2887 107.47C16.4656 109.239 18.0576 109.239 18.0576 109.239C18.0576 109.239 26.725 106.94 42.1142 107.47C57.5034 108.001 63.8713 113.838 65.4633 114.369C67.0553 114.9 68.8241 114.9 68.8241 114.9C68.8241 114.9 70.593 114.9 72.5387 114.192C74.4845 113.484 82.4444 106.232 98.8949 105.348C115.345 104.463 131.796 109.062 131.796 109.062C131.796 109.062 133.034 109.239 133.565 107.647C134.095 106.055 132.68 105.171 132.68 105.171C132.68 105.171 113.753 99.8642 98.8949 100.925C84.0364 101.987 72.7156 108.709 71.4774 109.062C70.2392 109.416 70.2392 109.416 67.409 109.062C64.5788 108.709 61.218 105.878 48.659 103.756C36.1 101.633 26.5482 103.225 23.5411 103.756C20.534 104.286 17.5269 105.348 17.5269 105.348Z" fill="#8B4513"/>
<path d="M122.067 103.225C122.067 103.225 129.85 91.9041 130.027 91.0197C130.204 90.1353 126.136 89.6046 126.136 89.6046C126.136 89.6046 118.53 88.3664 102.787 90.4891C88.4747 92.4188 72.8638 105.874 70.5932 109.239C70.3662 109.575 71.2688 109.11 71.3009 109.239C71.4817 109.962 85.4518 94.9112 102.787 92.4348C120.122 89.9584 125.959 91.9041 126.313 92.4348C126.666 92.9655 119.591 102.517 119.591 102.517L122.067 103.225Z" fill="#8B4513"/>
<path d="M115.522 89.6047C115.522 89.6047 117.822 85.0057 121.005 80.5835C123.732 76.3332 126.697 72.1976 126.724 71.5709C126.779 70.287 122.951 70.6778 122.951 70.6778C122.951 70.6778 114.461 69.4396 98.8948 75.6306C84.5433 81.3386 71.4141 104.385 70.0624 109.239C69.948 109.65 70.2716 109.705 70.4323 109.737C70.593 109.77 81.9135 86.067 99.6032 77.7532C106.948 74.3013 113.576 73.8618 115.522 73.508C117.468 73.1542 122.774 72.8005 122.951 73.1542C123.042 73.3357 120.298 77.0458 117.114 81.8217C113.93 86.5976 112.869 89.6047 112.869 89.6047L115.522 89.6047Z" fill="#8B4513"/>
<path d="M104.201 73.8622C104.201 73.8622 112.338 60.9494 113.93 57.9423C115.522 54.9353 117.822 49.6286 117.822 49.6286C117.822 49.6286 118.352 48.7442 117.822 48.2135C117.291 47.6829 115.699 48.7442 115.699 48.7442C115.699 48.7442 114.107 49.9824 109.685 51.0437C105.263 52.105 103.317 51.3975 99.2486 52.6357C95.1802 53.8739 88.6354 57.2347 84.9208 60.7725C81.2062 64.3102 78.1992 69.263 78.1992 69.263C75.9999 73.4953 73.8547 78.6683 72.5388 84.4753C69.7397 96.8286 70.0624 109.473 70.0623 109.593C70.0622 109.77 70.3831 109.766 70.4162 109.416C71.8661 94.087 73.2297 85.0234 76.7841 76.5154C82.5136 65.7474 86.6268 61.4239 95.711 57.0579C100.558 54.9095 107.679 54.1372 109.154 53.8739C110.63 53.6106 113.93 52.105 113.93 52.105C112.458 55.7495 111.368 57.7576 109.154 61.3031C105.692 66.5794 103.65 70.1444 101.018 75.1003L104.201 73.8622Z" fill="#8B4513"/>
<path d="M20.0036 104.463C19.345 100.025 18.058 96.3264 18.5886 95.4419C19.1191 94.5575 29.8322 93.6424 42.1145 96.1495C52.5327 98.5556 62.2588 103.211 69.1781 108.355L67.2324 110.124C60.2929 104.886 46.006 99.6872 41.5839 98.8028C37.1618 97.9183 29.7054 96.6647 21.2418 97.3877C22.1133 99.9413 22.3798 101.374 22.48 103.933L20.0036 104.463Z" fill="#8B4513"/>
<path d="M25.6639 94.5582L23.895 68.202C24.3664 67.4171 24.7855 67.3065 25.6639 67.6714C32.8262 77.8173 37.9731 82.1985 49.1898 87.6596C56.9009 91.2145 63.6114 98.1828 64.9328 100.395C66.2541 102.608 68.8243 109.063 68.8243 109.063C68.8243 109.063 68.0243 109.966 67.0554 108.709C64.8611 103.763 60.0221 97.5187 55.204 94.5582L49.1898 90.8435C38.674 85.3927 33.6195 81.7238 26.9021 73.5086L28.3172 94.5582H25.6639Z" fill="#8B4513"/>
<path d="M34.2462 78.4049L33.27 77.389L34.9784 60.3003C34.3478 52.8583 36.4427 48.0368 41.8119 45.6425C47.181 43.2483 56.2604 42.8241 65.851 47.2389L74.6369 51.7378C75.5393 52.74 75.8679 53.3235 75.3691 54.4952C71.8902 62.452 70.5953 67.8607 69.6338 79.4569C69.2831 87.361 69.4664 102.372 70.366 109L68.6576 110.016C67.5598 101.006 66.9695 84.9845 68.0475 75.9739C68.4314 67.0724 73.1849 54.849 73.0695 53.874C72.9542 52.899 67.0693 50.3161 62.9224 48.6902C54.6261 45.9773 50.7659 45.8758 44.7405 47.2389C36.8437 49.7757 35.7656 53.1857 38.7612 62.1869C42.5901 69.5221 45.54 72.9758 51.818 78.2959C59.8091 85.8498 63.218 90.9206 68.0475 100.936L70.366 109.416H68.6576C65.2645 100.111 63.0352 95.2569 58.0413 89.4706C52.9005 82.9454 49.6316 79.2154 43.2762 73.5884L36.4427 63.9284L34.2462 78.4049Z" fill="#8B4513"/>
</svg>
