<svg width="80" height="49" viewBox="0 0 80 49" fill="none" xmlns="http://www.w3.org/2000/svg">
<path d="M1.33567 41.4865C1.33567 41.4865 0.392269 41.7223 0.510203 42.9016C0.628136 44.0808 1.68944 44.0808 1.68944 44.0808C1.68944 44.0808 7.46774 42.5478 17.7272 42.9016C27.9866 43.2554 32.2319 47.1469 33.2932 47.5007C34.3546 47.8544 35.5338 47.8544 35.5338 47.8544C35.5338 47.8544 36.713 47.8544 38.0102 47.3827C39.3074 46.911 44.614 42.0761 55.581 41.4865C66.5479 40.8969 77.5149 43.9629 77.5149 43.9629C77.5149 43.9629 78.3404 44.0808 78.6942 43.0195C79.0479 41.9582 78.1045 41.3686 78.1045 41.3686C78.1045 41.3686 65.4866 37.8308 55.581 38.5384C45.6753 39.2459 38.1281 43.7271 37.3026 43.9629C36.4772 44.1988 36.4772 44.1988 34.5904 43.9629C32.7036 43.7271 30.463 41.8403 22.0904 40.4252C13.7177 39.0101 7.34983 40.0714 5.34511 40.4252C3.34038 40.7789 1.33567 41.4865 1.33567 41.4865Z" fill="#FFE5B5" stroke="#FFE5B5"/>
<path d="M71.0296 40.072C71.0296 40.072 76.2183 32.5248 76.3362 31.9352C76.4542 31.3456 73.7419 30.9918 73.7419 30.9918C73.7419 30.9918 68.6711 30.1663 58.1758 31.5814C48.6344 32.8679 38.2272 41.8384 36.7134 44.0814C36.5621 44.3057 37.1638 43.9957 37.1853 44.0814C37.3058 44.5635 46.6192 34.5295 58.1758 32.8786C69.7325 31.2276 73.6239 32.5248 73.8598 32.8786C74.0956 33.2323 69.3786 39.6003 69.3786 39.6003L71.0296 40.072Z" fill="#FFE5B5" stroke="#FFE5B5"/>
<path d="M66.6657 30.9948C66.6657 30.9948 68.1987 27.9287 70.3214 24.9806C72.1389 22.1471 74.1157 19.39 74.1337 18.9722C74.1704 18.1163 71.6185 18.3769 71.6185 18.3769C71.6185 18.3769 65.9583 17.5514 55.5809 21.6787C46.0132 25.4841 37.2605 40.8484 36.3593 44.0844C36.283 44.3582 36.4988 44.3949 36.6059 44.4166C36.7131 44.4382 44.2601 28.6363 56.0532 23.0938C60.9498 20.7925 65.3685 20.4995 66.6657 20.2636C67.9629 20.0278 71.5006 19.7919 71.6185 20.0278C71.679 20.1488 69.8497 22.6221 67.727 25.8061C65.6044 28.9901 64.8968 30.9948 64.8968 30.9948L66.6657 30.9948Z" fill="#FFE5B5"/>
<path d="M70.3214 24.9806C70.3214 24.9806 67.9162 28.8721 66.6657 30.9948L64.8968 30.9948C64.8968 30.9948 65.6044 28.9901 67.727 25.8061C69.8497 22.6221 71.679 20.1488 71.6185 20.0278C71.5006 19.7919 67.9629 20.0278 66.6657 20.2636C65.3685 20.4995 60.9498 20.7925 56.0532 23.0938C44.2601 28.6363 36.7131 44.4382 36.6059 44.4166C36.4988 44.3949 36.283 44.3582 36.3593 44.0844C37.2605 40.8484 46.0132 25.4841 55.5809 21.6787C65.9583 17.5514 71.6185 18.3769 71.6185 18.3769C71.6185 18.3769 74.1704 18.1163 74.1337 18.9722C74.1157 19.39 72.1389 22.1471 70.3214 24.9806ZM66.6657 30.9948C66.6657 30.9948 68.1987 27.9287 70.3214 24.9806" stroke="#FFE5B5"/>
<path d="M59.1188 20.4987C59.1188 20.4987 64.5433 11.8902 65.6046 9.88547C66.6659 7.88078 68.199 4.34299 68.199 4.34299C68.199 4.34299 68.5527 3.75336 68.199 3.39959C67.8452 3.04583 66.7839 3.75336 66.7839 3.75336C66.7839 3.75336 65.7225 4.57884 62.7744 5.28638C59.8263 5.99393 58.5291 5.52223 55.8169 6.3477C53.1046 7.17317 48.7414 9.41374 46.265 11.7722C43.7886 14.1307 41.7839 17.4326 41.7839 17.4326C40.3177 20.2541 38.8876 23.7028 38.0104 27.5741C36.1443 35.8096 36.3594 44.2392 36.3593 44.3194C36.3592 44.4373 36.5732 44.4346 36.5953 44.2015C37.5618 33.9819 38.471 27.9395 40.8405 22.2675C44.6602 15.0888 47.4023 12.2065 53.4585 9.29582C56.6896 7.86358 61.4372 7.34873 62.4207 7.17317C63.4043 6.99762 65.6046 5.99393 65.6046 5.99393C64.6229 8.4236 63.8967 9.76228 62.4207 12.126C60.1122 15.6435 58.751 18.0201 56.9962 21.3241L59.1188 20.4987Z" fill="#FFE5B5" stroke="#FFE5B5"/>
<path d="M2.98715 40.9012C2.54808 37.9424 1.69006 35.4766 2.04378 34.887C2.39749 34.2974 9.53955 33.6873 17.7278 35.3587C24.6732 36.9628 31.1573 40.0667 35.7702 43.4955L34.473 44.6747C29.8467 41.1831 20.3221 37.7172 17.374 37.1276C14.4259 36.5379 9.45503 35.7021 3.81263 36.1842C4.3936 37.8866 4.57124 38.8415 4.6381 40.5474L2.98715 40.9012Z" fill="#FFE5B5" stroke="#FFE5B5"/>
<path d="M6.7603 34.2971L5.58105 16.7263C5.8953 16.2031 6.17472 16.1293 6.7603 16.3725C11.5352 23.1365 14.9665 26.0573 22.4443 29.698C27.585 32.068 32.0587 36.7135 32.9395 38.1885C33.8204 39.6636 35.5339 43.9669 35.5339 43.9669C35.5339 43.9669 35.0005 44.5691 34.3546 43.731C32.8917 40.4334 29.6658 36.2708 26.4537 34.2971L22.4443 31.8207C15.4337 28.1868 12.064 25.7409 7.58577 20.2641L8.52917 34.2971H6.7603Z" fill="#FFE5B5" stroke="#FFE5B5"/>
<path d="M12.4819 23.5245L11.8311 22.8472L12.97 11.4547C12.5496 6.49342 13.9462 3.27906 17.5256 1.68289C21.105 0.0867263 27.158 -0.19602 33.5517 2.74715L39.409 5.74643C40.0106 6.41452 40.2297 6.80359 39.8971 7.5847C37.5778 12.8892 36.7146 16.495 36.0736 24.2258C35.8398 29.4952 35.962 39.5024 36.5617 43.9213L35.4228 44.5985C34.6909 38.5917 34.2974 27.9109 35.016 21.9038C35.272 15.9695 38.441 7.82053 38.3641 7.17055C38.2872 6.52058 34.3639 4.79861 31.5993 3.71466C26.0685 1.90607 23.495 1.8384 19.478 2.74715C14.2135 4.43834 13.4948 6.7117 15.4918 12.7125C18.0444 17.6026 20.011 19.9051 24.1964 23.4518C29.5238 28.4878 31.7964 31.8683 35.016 38.545L36.5617 44.1989H35.4228C33.1607 37.9954 31.6745 34.7592 28.3453 30.9016C24.918 26.5515 22.7387 24.0648 18.5018 20.3135L13.9462 13.8735L12.4819 23.5245Z" fill="#FFE5B5" stroke="#FFE5B5"/>
</svg>
