<svg width="293" height="177" viewBox="0 0 293 177" fill="none" xmlns="http://www.w3.org/2000/svg">
<path d="M192.93 112.353C207.556 111.308 224.162 113.398 237.093 115.741C243.562 116.913 249.119 118.151 253.06 119.095C255.03 119.567 256.596 119.966 257.671 120.248C258.208 120.388 258.622 120.499 258.902 120.575C259.042 120.613 259.15 120.643 259.222 120.663C259.257 120.672 259.285 120.68 259.303 120.685C259.312 120.688 259.319 120.69 259.323 120.691C259.325 120.691 259.327 120.692 259.328 120.692H259.33C259.33 120.692 259.33 120.692 259.298 120.807L259.33 120.693L259.399 120.711L259.461 120.75L259.195 121.174C259.439 120.784 259.459 120.753 259.461 120.75H259.462L259.463 120.751L259.475 120.759C259.482 120.764 259.493 120.771 259.505 120.779C259.53 120.795 259.564 120.82 259.606 120.85C259.69 120.911 259.807 121 259.94 121.116C260.208 121.347 260.553 121.693 260.865 122.149C261.496 123.071 261.984 124.446 261.403 126.187C260.839 127.88 259.872 128.688 258.996 129.048C258.568 129.225 258.177 129.288 257.891 129.307C257.747 129.317 257.628 129.315 257.543 129.311C257.5 129.309 257.466 129.306 257.44 129.303C257.428 129.302 257.416 129.301 257.408 129.3C257.404 129.3 257.401 129.299 257.398 129.298C257.397 129.298 257.396 129.298 257.395 129.298L257.393 129.297H257.392L257.462 128.802L257.391 129.297L257.358 129.292L257.327 129.284H257.326C257.325 129.283 257.324 129.283 257.322 129.283C257.319 129.282 257.312 129.28 257.305 129.278C257.29 129.274 257.267 129.268 257.236 129.259C257.175 129.242 257.083 129.218 256.962 129.185C256.72 129.12 256.359 129.024 255.889 128.903C254.947 128.661 253.565 128.316 251.806 127.908C248.287 127.092 243.258 126.021 237.224 125.004C225.15 122.971 209.066 121.156 192.992 122.02C176.94 122.883 165.04 126.851 156.682 130.772C152.501 132.733 149.203 134.684 146.709 136.233C145.473 137 144.403 137.69 143.553 138.212C142.704 138.733 142.002 139.135 141.47 139.329C139.519 140.038 137.66 140.391 136.291 140.568C135.606 140.656 135.042 140.701 134.646 140.723C134.449 140.734 134.293 140.74 134.187 140.743C134.133 140.744 134.091 140.745 134.062 140.746H133.972C133.944 140.745 133.904 140.745 133.852 140.744C133.747 140.742 133.595 140.737 133.404 140.729C133.022 140.712 132.481 140.679 131.841 140.613C130.565 140.481 128.878 140.215 127.271 139.679C126.821 139.529 126.239 139.208 125.548 138.798C125.196 138.589 124.803 138.35 124.371 138.087C123.939 137.824 123.465 137.537 122.947 137.23C120.878 136.002 118.103 134.452 114.488 132.903C107.262 129.806 96.6596 126.699 81.6396 126.181C66.5841 125.662 54.8206 126.528 46.8262 127.522C42.8292 128.019 39.7739 128.547 37.7207 128.952C36.6941 129.154 35.9177 129.325 35.3994 129.445C35.1403 129.505 34.9456 129.552 34.8164 129.584L34.6367 129.629C34.6329 129.63 34.6297 129.632 34.6279 129.632H34.626L34.5625 129.649H34.4795C34.4706 129.649 34.4588 129.648 34.4443 129.648C34.4149 129.647 34.3736 129.645 34.3232 129.641C34.2227 129.633 34.0826 129.618 33.915 129.587C33.5813 129.527 33.129 129.405 32.6611 129.159C31.7012 128.653 30.7237 127.646 30.5322 125.732C30.3429 123.839 31.011 122.646 31.7725 121.935C32.1443 121.588 32.5273 121.366 32.8174 121.23C32.9628 121.162 33.0868 121.115 33.1768 121.084C33.2218 121.069 33.2591 121.057 33.2861 121.049C33.2926 121.047 33.2984 121.045 33.3037 121.043C33.3053 121.043 33.3078 121.043 33.3096 121.042C33.3213 121.038 33.3389 121.033 33.3613 121.025C33.4068 121.009 33.4735 120.985 33.5605 120.956C33.7349 120.896 33.9902 120.811 34.3145 120.705C34.9631 120.492 35.8892 120.197 37 119.871C39.22 119.218 42.1875 118.432 45.1602 117.908C51.0797 116.863 69.8687 113.732 94.5693 117.907C106.911 119.993 114.743 122.428 120.189 124.432C122.896 125.428 125.043 126.329 126.8 127.002C128.578 127.683 129.982 128.141 131.305 128.306C134.097 128.655 135.443 128.823 136.4 128.823C137.319 128.823 137.864 128.669 139.08 128.322C139.332 128.25 139.897 127.993 140.812 127.553C141.703 127.125 142.89 126.542 144.329 125.859C147.213 124.49 151.138 122.707 155.899 120.88C165.422 117.228 178.302 113.398 192.93 112.353Z" fill="#8B4513" stroke="#8B4513"/>
<path d="M235.059 89.4663C238.864 89.5098 241.705 89.6836 243.597 89.8472C244.543 89.929 245.253 90.0079 245.727 90.0669C245.964 90.0964 246.142 90.121 246.262 90.1382C246.322 90.1468 246.367 90.154 246.398 90.1587C246.413 90.161 246.425 90.1623 246.433 90.1636C246.435 90.1639 246.437 90.1643 246.439 90.1646C246.443 90.1651 246.449 90.1656 246.455 90.1665C246.471 90.1686 246.494 90.1722 246.524 90.1763C246.583 90.1845 246.671 90.1963 246.781 90.2124C247.001 90.2447 247.315 90.293 247.69 90.356C248.439 90.4817 249.438 90.6683 250.429 90.9106C251.413 91.1512 252.42 91.4534 253.168 91.8188C253.54 92.0001 253.884 92.2149 254.128 92.4722C254.378 92.7351 254.571 93.0986 254.485 93.5317C254.448 93.7171 254.335 93.9641 254.208 94.2144C254.071 94.4845 253.884 94.8214 253.657 95.2114C253.201 95.9924 252.573 97.0076 251.832 98.1714C250.35 100.501 248.407 103.441 246.478 106.325C244.548 109.209 242.629 112.038 241.193 114.146C240.475 115.2 239.877 116.075 239.459 116.685C239.25 116.99 239.086 117.23 238.974 117.393C238.918 117.474 238.875 117.537 238.846 117.579C238.832 117.6 238.821 117.616 238.814 117.626C238.81 117.632 238.807 117.636 238.805 117.639L238.803 117.642L238.39 117.36L238.802 117.643L238.599 117.939L238.253 117.84L233.399 116.454L232.704 116.255L233.134 115.675L233.536 115.972C233.134 115.675 233.134 115.674 233.134 115.674H233.135C233.136 115.674 233.135 115.672 233.136 115.671C233.138 115.669 233.141 115.666 233.144 115.662C233.151 115.653 233.16 115.639 233.173 115.622C233.199 115.586 233.239 115.534 233.289 115.465C233.391 115.328 233.539 115.126 233.728 114.87C234.105 114.356 234.644 113.621 235.288 112.736C236.577 110.966 238.287 108.595 239.975 106.193C241.664 103.789 243.328 101.358 244.524 99.4673C245.123 98.52 245.598 97.7183 245.901 97.1274C246.053 96.83 246.152 96.6029 246.203 96.4458C246.206 96.4375 246.207 96.4288 246.209 96.4214C246.201 96.4158 246.193 96.4091 246.183 96.4028C246.082 96.3378 245.933 96.2577 245.726 96.1675C245.313 95.9874 244.704 95.7804 243.87 95.5708C242.206 95.152 239.68 94.7326 236.104 94.4956C228.953 94.0217 217.632 94.2788 200.664 96.7026C183.787 99.1138 168.521 107.653 157.41 115.44C151.858 119.331 147.352 123.027 144.208 125.666C142.641 126.981 141.399 128.045 140.544 128.73C140.12 129.07 139.769 129.335 139.51 129.493C139.391 129.566 139.242 129.647 139.094 129.681C139.022 129.698 138.881 129.719 138.727 129.66C138.704 129.651 138.681 129.64 138.661 129.628C138.512 129.665 138.341 129.721 138.126 129.783C138.024 129.812 137.913 129.842 137.81 129.863C137.718 129.881 137.583 129.903 137.451 129.889C137.383 129.882 137.272 129.861 137.162 129.788C137.035 129.702 136.944 129.566 136.919 129.404C136.898 129.265 136.931 129.147 136.959 129.075C136.989 128.998 137.03 128.929 137.07 128.87C138.221 127.164 141.011 124.242 144.948 120.78C148.897 117.306 154.033 113.259 159.908 109.301C171.646 101.393 186.388 93.8045 200.528 91.8979C215.982 89.8143 227.449 89.3793 235.059 89.4663Z" fill="#8B4513" stroke="#8B4513"/>
<path d="M227.93 53.3633C231.94 52.9057 234.997 52.8285 237.056 52.8668C238.085 52.886 238.865 52.9343 239.39 52.9779C239.652 52.9996 239.851 53.0199 239.985 53.0353C240.046 53.0423 240.094 53.0487 240.129 53.0532C240.139 53.0522 240.15 53.0517 240.162 53.0506C240.219 53.0454 240.302 53.0381 240.407 53.0299C240.616 53.0135 240.914 52.9932 241.271 52.9767C241.983 52.9437 242.938 52.9258 243.894 52.989C244.841 53.0515 245.835 53.1963 246.599 53.5097C247.353 53.8185 248.059 54.3774 248.018 55.3291C248.012 55.4829 247.966 55.6437 247.914 55.787C247.858 55.9389 247.782 56.1109 247.691 56.2975C247.507 56.6713 247.246 57.1348 246.926 57.6708C246.283 58.7443 245.38 60.1419 244.316 61.7531C242.183 64.9825 239.4 69.0823 236.73 73.2449L236.723 73.2557L236.715 73.2667C233.607 77.5823 230.93 81.9881 229.028 85.3164C228.078 86.98 227.321 88.3732 226.803 89.3499C226.544 89.8381 226.345 90.2222 226.21 90.4838C226.143 90.6146 226.092 90.7153 226.058 90.7826C226.041 90.8158 226.028 90.8409 226.02 90.8578C226.016 90.8662 226.012 90.8728 226.01 90.8769C226.009 90.879 226.008 90.8812 226.007 90.8822L226.007 90.8831L225.869 91.1594L225.559 91.1594L220.358 91.16L219.651 91.1592L219.887 90.493L219.887 90.4921L219.888 90.491L219.894 90.4724C219.899 90.4599 219.906 90.4419 219.914 90.4184C219.932 90.3707 219.958 90.3003 219.993 90.2085C220.064 90.0246 220.172 89.7528 220.32 89.3988C220.616 88.6909 221.075 87.6519 221.73 86.3207C223.039 83.658 225.131 79.8247 228.265 75.1246C231.388 70.4389 234.296 66.2757 236.398 63.2444C237.45 61.727 238.297 60.4974 238.87 59.6255C239.122 59.2423 239.314 58.9328 239.448 58.7037C239.154 58.6647 238.741 58.6394 238.228 58.6292C237.163 58.6079 235.725 58.651 234.17 58.7374C231.056 58.9103 227.526 59.2554 225.649 59.5966C221.781 60.3 208.888 61.1488 194.567 67.8793C177.342 75.9743 163.186 91.5836 153.28 105.206C148.332 112.012 144.454 118.308 141.793 122.899C140.463 125.194 139.437 127.064 138.734 128.358C138.383 129.003 138.109 129.51 137.919 129.853C137.825 130.024 137.749 130.161 137.691 130.257C137.663 130.303 137.633 130.35 137.604 130.389C137.592 130.406 137.567 130.439 137.535 130.472C137.52 130.487 137.485 130.52 137.435 130.55C137.402 130.571 137.261 130.655 137.07 130.616C136.945 130.591 136.575 130.532 136.292 130.307C136.134 130.18 135.998 130.001 135.934 129.76C135.873 129.527 135.89 129.276 135.962 129.015C136.642 126.574 138.774 121.921 142.001 116.17C145.236 110.404 149.592 103.497 154.747 96.5376C165.04 82.6402 178.577 68.4502 192.78 62.8012C208.077 56.7171 219.91 54.2787 227.93 53.3633Z" fill="#8B4513" stroke="#8B4513"/>
<path d="M228.923 8.74463C229.423 8.68914 230.003 8.74604 230.421 9.16455C231.122 9.86519 231.09 10.7772 230.945 11.4077C230.87 11.7311 230.76 12.0133 230.669 12.2124C230.624 12.3127 230.582 12.3941 230.551 12.4517C230.536 12.4804 230.524 12.5035 230.514 12.52L230.513 12.522C230.505 12.5419 230.492 12.5714 230.475 12.6099C230.441 12.6877 230.39 12.8026 230.326 12.9507C230.196 13.2471 230.008 13.6773 229.772 14.2114C229.3 15.28 228.638 16.7672 227.878 18.438C226.361 21.7763 224.449 25.8622 222.881 28.8237C221.311 31.79 216.531 39.6098 212.158 46.6675C209.968 50.2009 207.877 53.5505 206.333 56.0161C205.56 57.249 204.924 58.2615 204.482 58.9653C204.261 59.317 204.088 59.592 203.97 59.7788C203.911 59.8721 203.867 59.9436 203.836 59.9917C203.821 60.0158 203.81 60.0342 203.802 60.0464C203.798 60.0525 203.795 60.057 203.793 60.0601C203.793 60.0613 203.792 60.0622 203.792 60.063L203.791 60.064L203.368 59.7983L203.791 60.0649L203.703 60.2046L203.548 60.2642L197.307 62.6909L196.053 63.1792L196.684 61.9907C201.85 52.2644 205.861 45.2622 212.659 34.9038C216.745 28.3595 218.862 24.5078 221.505 18.1079C220.858 18.3902 219.987 18.7633 219.031 19.1509C217.059 19.9503 214.67 20.8382 213.165 21.1069C210.211 21.634 196.367 23.1329 186.94 27.3071L185.305 28.106C177.271 32.1043 171.308 36.1586 166.065 41.5698C160.471 47.344 155.675 54.6865 150.072 65.2153C143.144 81.8097 140.476 99.5062 137.635 129.543C137.588 130.041 137.31 130.428 136.896 130.54C136.703 130.591 136.475 130.578 136.279 130.456C136.068 130.325 135.944 130.097 135.944 129.842C135.944 129.845 135.943 129.841 135.943 129.823C135.943 129.808 135.942 129.787 135.942 129.759C135.941 129.705 135.94 129.626 135.938 129.525C135.935 129.323 135.931 129.032 135.927 128.657C135.921 127.906 135.917 126.821 135.93 125.45C135.957 122.708 136.05 118.823 136.314 114.187C136.843 104.918 138.059 92.6374 140.811 80.4927C143.402 69.0583 147.624 58.8766 151.951 50.5513L151.958 50.5366L151.967 50.5229V50.522L151.968 50.521C151.969 50.5197 151.971 50.5176 151.972 50.5151C151.975 50.5103 151.979 50.503 151.985 50.4937C151.997 50.4745 152.014 50.4456 152.037 50.4087C152.082 50.3348 152.15 50.2261 152.239 50.0854C152.416 49.8041 152.676 49.3953 153.011 48.8833C153.681 47.8594 154.65 46.4225 155.847 44.7681C158.239 41.4623 161.554 37.2734 165.226 33.7759C172.576 26.776 185.479 20.1534 193.512 17.7085C197.554 16.4784 200.547 16.2161 203.592 15.9985C206.628 15.7817 209.711 15.61 214 14.5806C218.305 13.5475 221.22 12.4303 223.051 11.5786C223.967 11.1528 224.612 10.7937 225.024 10.5435C225.23 10.4183 225.378 10.3204 225.472 10.2554C225.519 10.223 225.553 10.1985 225.574 10.1831C225.584 10.1754 225.592 10.1697 225.596 10.1665L225.6 10.1636L225.614 10.1528L225.629 10.1421H225.63C225.631 10.1417 225.631 10.1407 225.632 10.1401C225.634 10.1389 225.638 10.1375 225.641 10.1353C225.648 10.1308 225.657 10.1237 225.669 10.1157C225.694 10.0995 225.731 10.0762 225.777 10.0474C225.868 9.98983 226 9.90961 226.16 9.81689C226.479 9.63207 226.92 9.39446 227.4 9.18896C227.874 8.98584 228.414 8.80127 228.923 8.74463Z" fill="#8B4513" stroke="#8B4513"/>
<path d="M49.9556 99.8022C58.113 99.7528 68.9767 100.486 80.6265 102.773L81.7563 103L81.769 103.002L83.686 103.458C103.447 108.307 121.813 117.206 135.008 127.014L135.496 127.376L135.046 127.786L131.232 131.253L130.925 131.532L130.594 131.282C123.845 126.188 113.49 121.093 103.714 117.049C93.9383 113.005 84.8046 110.038 80.5181 109.181C71.9767 107.473 57.6759 105.067 41.4165 106.364C42.9775 111.043 43.4761 113.868 43.6665 118.727L43.6821 119.147L43.271 119.236L38.4165 120.276L37.895 120.387L37.8169 119.86C37.1744 115.53 36.2273 111.568 35.562 108.436C35.231 106.878 34.9675 105.514 34.854 104.425C34.7972 103.881 34.7761 103.389 34.8071 102.966C34.8377 102.551 34.921 102.159 35.1089 101.845C35.2512 101.608 35.5054 101.446 35.7407 101.33C35.9951 101.204 36.3182 101.089 36.6938 100.982C37.4471 100.767 38.4729 100.57 39.73 100.401C42.2481 100.062 45.746 99.8278 49.9556 99.8022Z" fill="#8B4513" stroke="#8B4513"/>
<path d="M47.2343 46.8569C47.9441 46.6489 48.7181 46.8346 49.5995 47.2007L49.7333 47.2554L49.8163 47.3735C56.8238 57.3003 62.8287 64.3831 69.8104 70.3169C76.7901 76.2489 84.766 81.0499 95.7352 86.3911C103.351 89.902 110.459 95.0917 115.984 99.9399C121.497 104.778 125.481 109.318 126.817 111.555C128.133 113.758 130.053 118.039 131.634 121.738C132.427 123.593 133.138 125.313 133.651 126.569C133.908 127.197 134.116 127.709 134.259 128.064C134.33 128.241 134.386 128.38 134.424 128.474C134.442 128.521 134.457 128.556 134.467 128.581C134.472 128.593 134.475 128.603 134.477 128.609C134.479 128.612 134.48 128.614 134.48 128.616V128.618H134.481L134.595 128.904L134.391 129.134L134.016 128.803L134.391 129.135H134.39L134.386 129.139C134.384 129.141 134.381 129.144 134.379 129.147C134.373 129.153 134.367 129.161 134.358 129.169C134.341 129.187 134.317 129.211 134.287 129.239C134.227 129.294 134.142 129.369 134.034 129.447C133.82 129.601 133.501 129.783 133.099 129.869C132.69 129.956 132.209 129.941 131.692 129.715C131.182 129.493 130.665 129.078 130.153 128.415L130.116 128.367L130.092 128.312C125.821 118.686 116.395 106.534 107.055 100.794H107.054L95.2762 93.52C75.1498 83.0863 65.1734 75.9504 52.4374 60.6196L55.1083 100.335L55.1444 100.869H48.9403L48.9091 100.403L45.4413 48.7358L45.4305 48.5796L45.5116 48.4448C45.9923 47.6445 46.513 47.0684 47.2343 46.8569Z" fill="#8B4513" stroke="#8B4513"/>
<path d="M80.8594 4.02148C91.5351 -0.739124 109.485 -1.55177 128.396 7.15332L128.416 7.16309L145.639 15.9824L145.721 16.0244L145.782 16.0928C146.664 17.0722 147.339 17.9204 147.636 18.8535C147.944 19.8231 147.825 20.8119 147.307 22.0283L147.305 22.0332C140.512 37.5688 137.983 48.1152 136.102 70.8066C135.416 86.295 135.777 115.667 137.534 128.612L137.578 128.94L137.429 129.028L137.521 129.364L137.693 129.996H135.804L133.945 131.102L133.286 131.493L133.193 130.731C133.127 130.188 133.061 129.633 132.997 129.064C126.476 111.235 122.122 101.871 112.5 90.7227L112.492 90.7139L112.485 90.7051C102.42 77.9297 96.0325 70.6413 83.6025 59.6357L83.5586 59.5977L83.5254 59.5498L70.8457 41.625L66.7266 68.7783L66.5742 69.7812L65.8711 69.0498L63.958 67.0586L63.7979 66.8916L63.8213 66.6621L67.165 33.207C66.5499 25.8846 67.2686 19.7953 69.5 14.9268C71.7427 10.0337 75.4954 6.41343 80.8594 4.02148ZM102.921 6.53223C97.5913 6.1568 92.8032 6.76398 86.9336 8.09082C79.2349 10.567 75.0441 13.4185 73.4033 17.6865C71.7469 21.9953 72.6168 27.9083 75.5449 36.7158C82.7748 50.5594 88.3878 57.2969 99.8711 67.1445L101.002 68.1084L101.012 68.1172L101.022 68.126C115.91 82.1991 122.72 91.9089 131.463 109.62C130.631 93.7201 130.58 75.741 131.995 63.8936C132.377 55.1108 134.907 44.7205 137.302 36.3125C138.501 32.101 139.671 28.374 140.523 25.5898C140.95 24.1955 141.296 23.0424 141.528 22.1797C141.644 21.7479 141.73 21.3962 141.783 21.1279C141.81 20.9938 141.826 20.8863 141.835 20.8037C141.839 20.7627 141.842 20.7307 141.843 20.707C141.843 20.6862 141.842 20.6759 141.842 20.6738C141.841 20.6662 141.83 20.6117 141.756 20.5049C141.684 20.4019 141.572 20.2758 141.412 20.127C141.091 19.8287 140.618 19.4795 140.009 19.0898C138.793 18.3124 137.097 17.4105 135.139 16.4619C131.232 14.5691 126.336 12.5141 122.281 10.9238C114.172 8.27247 108.261 6.9084 102.921 6.53223Z" fill="#8B4513" stroke="#8B4513"/>
<path d="M9.6917 170.279C8.2417 170.279 6.9667 170.059 5.8667 169.617C4.77503 169.175 3.86253 168.546 3.1292 167.729C2.4042 166.904 1.85837 165.917 1.4917 164.767C1.12503 163.609 0.941699 162.317 0.941699 160.892C0.941699 159.409 1.1667 158.075 1.6167 156.892C2.07503 155.7 2.7167 154.684 3.5417 153.842C4.37503 152.992 5.34587 152.342 6.4542 151.892C7.57087 151.442 8.78337 151.217 10.0917 151.217C10.7084 151.217 11.2709 151.242 11.7792 151.292C12.2959 151.342 12.775 151.404 13.2167 151.479C13.6667 151.554 14.0959 151.621 14.5042 151.679C14.9209 151.738 15.3209 151.779 15.7042 151.804L15.4167 157.067H13.2042L12.4542 153.467C12.3459 153.35 12.175 153.242 11.9417 153.142C11.7084 153.034 11.4125 152.946 11.0542 152.879C10.7042 152.813 10.2834 152.779 9.7917 152.779C8.88337 152.779 8.07503 153.067 7.3667 153.642C6.6667 154.217 6.1167 155.075 5.7167 156.217C5.32503 157.359 5.1292 158.788 5.1292 160.504C5.1292 161.663 5.22503 162.742 5.4167 163.742C5.60837 164.734 5.90003 165.6 6.2917 166.342C6.68337 167.084 7.1792 167.663 7.7792 168.079C8.38753 168.496 9.10003 168.704 9.9167 168.704C10.45 168.704 10.8917 168.667 11.2417 168.592C11.6 168.509 11.8917 168.4 12.1167 168.267C12.3417 168.125 12.5334 167.979 12.6917 167.829L13.8167 164.967L15.8667 165.192L15.3417 169.329C14.95 169.354 14.5792 169.417 14.2292 169.517C13.8792 169.617 13.5 169.725 13.0917 169.842C12.6917 169.959 12.2167 170.059 11.6667 170.142C11.125 170.234 10.4667 170.279 9.6917 170.279ZM17.3175 163.129C17.3175 161.913 17.5008 160.85 17.8675 159.942C18.2425 159.025 18.7508 158.263 19.3925 157.654C20.0425 157.046 20.7758 156.592 21.5925 156.292C22.4175 155.984 23.28 155.829 24.18 155.829C25.5883 155.829 26.78 156.121 27.755 156.704C28.73 157.288 29.4675 158.117 29.9675 159.192C30.4758 160.259 30.73 161.517 30.73 162.967C30.73 164.209 30.5425 165.288 30.1675 166.204C29.7925 167.121 29.2841 167.884 28.6425 168.492C28.0008 169.092 27.2675 169.542 26.4425 169.842C25.6175 170.134 24.755 170.279 23.855 170.279C22.805 170.279 21.8716 170.113 21.055 169.779C20.2466 169.446 19.5633 168.967 19.005 168.342C18.455 167.717 18.0341 166.967 17.7425 166.092C17.4591 165.209 17.3175 164.221 17.3175 163.129ZM24.0675 168.717C24.6758 168.717 25.1841 168.521 25.5925 168.129C26.0091 167.738 26.3216 167.138 26.53 166.329C26.7466 165.513 26.855 164.484 26.855 163.242C26.855 162.334 26.805 161.521 26.705 160.804C26.605 160.079 26.4425 159.463 26.2175 158.954C26.0008 158.446 25.7133 158.059 25.355 157.792C24.9966 157.525 24.555 157.392 24.03 157.392C23.43 157.392 22.9175 157.588 22.4925 157.979C22.0675 158.371 21.7425 158.971 21.5175 159.779C21.2925 160.579 21.18 161.609 21.18 162.867C21.18 163.784 21.2341 164.604 21.3425 165.329C21.4508 166.046 21.6216 166.659 21.855 167.167C22.0883 167.667 22.3841 168.05 22.7425 168.317C23.1091 168.584 23.5508 168.717 24.0675 168.717ZM33.8862 168.329V158.529L32.2987 158.079V156.404L36.4612 155.867H36.5612L37.1737 156.354V157.317L37.1487 157.929C37.4987 157.596 37.9404 157.275 38.4737 156.967C39.0071 156.659 39.5904 156.4 40.2237 156.192C40.8654 155.984 41.5279 155.879 42.2112 155.879C43.2112 155.879 44.0112 156.063 44.6112 156.429C45.2196 156.796 45.6612 157.384 45.9362 158.192C46.2112 158.992 46.3487 160.046 46.3487 161.354V168.342L47.8737 168.554V170.004H41.4237V168.567L42.7487 168.342V161.429C42.7487 160.613 42.6779 159.954 42.5362 159.454C42.4029 158.954 42.1696 158.592 41.8362 158.367C41.5112 158.134 41.0612 158.017 40.4862 158.017C40.0946 158.017 39.7112 158.084 39.3362 158.217C38.9696 158.342 38.6279 158.5 38.3112 158.692C37.9946 158.875 37.7196 159.054 37.4862 159.229V168.329L38.9862 168.567V170.004H32.4362V168.567L33.8862 168.329ZM53.0997 170.242C52.083 170.242 51.3205 170.004 50.8122 169.529C50.3039 169.054 50.0497 168.284 50.0497 167.217V158.079H48.4247V156.717C48.6164 156.642 48.8122 156.575 49.0122 156.517C49.2122 156.459 49.3997 156.4 49.5747 156.342C49.7497 156.275 49.8872 156.2 49.9872 156.117C50.1039 156.017 50.1997 155.913 50.2747 155.804C50.358 155.696 50.433 155.575 50.4997 155.442C50.5747 155.3 50.6455 155.138 50.7122 154.954C50.7955 154.738 50.883 154.484 50.9747 154.192C51.0747 153.9 51.1705 153.6 51.2622 153.292C51.3539 152.984 51.433 152.709 51.4997 152.467H53.4997L53.6122 156.179H57.2497V158.079H53.6372V165.154C53.6372 166.021 53.6664 166.654 53.7247 167.054C53.7914 167.446 53.9205 167.696 54.1122 167.804C54.3039 167.904 54.5872 167.954 54.9622 167.954C55.3622 167.954 55.7789 167.904 56.2122 167.804C56.6455 167.704 56.9914 167.604 57.2497 167.504L57.7247 168.867C57.4414 169.084 57.0539 169.3 56.5622 169.517C56.0789 169.725 55.5372 169.896 54.9372 170.029C54.3455 170.171 53.733 170.242 53.0997 170.242ZM62.7845 170.279C62.0345 170.279 61.3428 170.121 60.7095 169.804C60.0761 169.488 59.5678 169.021 59.1845 168.404C58.8011 167.788 58.6095 167.034 58.6095 166.142C58.6095 165.35 58.822 164.667 59.247 164.092C59.672 163.517 60.2595 163.046 61.0095 162.679C61.7595 162.304 62.622 162.025 63.597 161.842C64.5803 161.659 65.6261 161.559 66.7345 161.542V160.867C66.7345 160.234 66.6636 159.725 66.522 159.342C66.3886 158.959 66.1345 158.675 65.7595 158.492C65.3845 158.309 64.847 158.217 64.147 158.217C63.1886 158.217 62.3511 158.354 61.6345 158.629C60.9261 158.904 60.372 159.138 59.972 159.329L59.2095 157.767C59.4095 157.592 59.7928 157.354 60.3595 157.054C60.9261 156.754 61.6178 156.484 62.4345 156.242C63.2511 155.992 64.1345 155.867 65.0845 155.867C66.3428 155.867 67.3345 156.05 68.0595 156.417C68.7845 156.775 69.3053 157.325 69.622 158.067C69.9386 158.809 70.097 159.75 70.097 160.892V168.517H71.4345V169.867C71.2428 169.909 70.9678 169.959 70.6095 170.017C70.2595 170.084 69.8803 170.138 69.472 170.179C69.072 170.221 68.7053 170.242 68.372 170.242C67.8136 170.242 67.4303 170.163 67.222 170.004C67.022 169.838 66.922 169.5 66.922 168.992V168.304C66.722 168.554 66.4261 168.834 66.0345 169.142C65.6428 169.45 65.172 169.717 64.622 169.942C64.0803 170.167 63.4678 170.279 62.7845 170.279ZM64.4095 168.229C64.7678 168.229 65.1636 168.125 65.597 167.917C66.0386 167.709 66.4178 167.459 66.7345 167.167V163.042C65.7095 163.042 64.872 163.167 64.222 163.417C63.5803 163.667 63.1053 163.996 62.797 164.404C62.497 164.813 62.347 165.267 62.347 165.767C62.347 166.309 62.4345 166.763 62.6095 167.129C62.7845 167.488 63.0261 167.763 63.3345 167.954C63.6511 168.138 64.0095 168.229 64.4095 168.229ZM78.1755 170.279C77.4422 170.279 76.7505 170.146 76.1005 169.879C75.4505 169.613 74.8713 169.204 74.363 168.654C73.863 168.096 73.4713 167.388 73.188 166.529C72.9047 165.663 72.763 164.634 72.763 163.442C72.763 162.059 73.0463 160.792 73.613 159.642C74.1797 158.484 75.0088 157.559 76.1005 156.867C77.1922 156.175 78.5255 155.829 80.1005 155.829C80.4422 155.829 80.7672 155.85 81.0755 155.892C81.3922 155.934 81.6797 155.988 81.938 156.054V151.704L79.513 151.367V150.017L84.638 149.517H84.763L85.4255 150.029V168.517H86.763V169.904C86.4047 169.979 85.9463 170.059 85.388 170.142C84.838 170.234 84.3047 170.279 83.788 170.279C83.2963 170.279 82.9213 170.2 82.663 170.042C82.413 169.892 82.288 169.542 82.288 168.992V168.267C82.0213 168.642 81.6755 168.984 81.2505 169.292C80.8338 169.592 80.3588 169.829 79.8255 170.004C79.3005 170.188 78.7505 170.279 78.1755 170.279ZM79.5005 168.229C79.8838 168.229 80.2338 168.171 80.5505 168.054C80.8755 167.938 81.1547 167.792 81.388 167.617C81.6213 167.442 81.8047 167.267 81.938 167.092V158.004C81.8213 157.838 81.5797 157.692 81.213 157.567C80.8463 157.442 80.4463 157.379 80.013 157.379C79.3713 157.379 78.788 157.563 78.263 157.929C77.7463 158.296 77.3338 158.892 77.0255 159.717C76.7172 160.542 76.5547 161.646 76.538 163.029C76.5297 164.263 76.6547 165.263 76.913 166.029C77.1797 166.796 77.538 167.354 77.988 167.704C78.438 168.054 78.9422 168.229 79.5005 168.229ZM88.1183 163.129C88.1183 161.913 88.3016 160.85 88.6683 159.942C89.0433 159.025 89.5516 158.263 90.1933 157.654C90.8433 157.046 91.5766 156.592 92.3933 156.292C93.2183 155.984 94.0808 155.829 94.9808 155.829C96.3891 155.829 97.5808 156.121 98.5558 156.704C99.5308 157.288 100.268 158.117 100.768 159.192C101.277 160.259 101.531 161.517 101.531 162.967C101.531 164.209 101.343 165.288 100.968 166.204C100.593 167.121 100.085 167.884 99.4433 168.492C98.8016 169.092 98.0683 169.542 97.2433 169.842C96.4183 170.134 95.5558 170.279 94.6558 170.279C93.6058 170.279 92.6724 170.113 91.8558 169.779C91.0474 169.446 90.3641 168.967 89.8058 168.342C89.2558 167.717 88.8349 166.967 88.5433 166.092C88.2599 165.209 88.1183 164.221 88.1183 163.129ZM94.8683 168.717C95.4766 168.717 95.9849 168.521 96.3933 168.129C96.8099 167.738 97.1224 167.138 97.3308 166.329C97.5474 165.513 97.6558 164.484 97.6558 163.242C97.6558 162.334 97.6058 161.521 97.5058 160.804C97.4058 160.079 97.2433 159.463 97.0183 158.954C96.8016 158.446 96.5141 158.059 96.1558 157.792C95.7974 157.525 95.3558 157.392 94.8308 157.392C94.2308 157.392 93.7183 157.588 93.2933 157.979C92.8683 158.371 92.5433 158.971 92.3183 159.779C92.0933 160.579 91.9808 161.609 91.9808 162.867C91.9808 163.784 92.0349 164.604 92.1433 165.329C92.2516 166.046 92.4224 166.659 92.6558 167.167C92.8891 167.667 93.1849 168.05 93.5433 168.317C93.9099 168.584 94.3516 168.717 94.8683 168.717ZM103.075 170.004V168.579L104.713 168.367V158.529L103.125 158.079V156.404L107.013 155.867H107.1L107.75 156.354V156.917L107.675 159.104H107.75C107.825 158.888 107.979 158.609 108.213 158.267C108.454 157.917 108.767 157.563 109.15 157.204C109.533 156.846 109.983 156.546 110.5 156.304C111.025 156.063 111.6 155.942 112.225 155.942C112.458 155.942 112.654 155.959 112.813 155.992C112.971 156.025 113.096 156.059 113.188 156.092V159.692C113.029 159.567 112.804 159.467 112.513 159.392C112.229 159.317 111.846 159.279 111.363 159.279C110.846 159.279 110.388 159.338 109.988 159.454C109.588 159.571 109.246 159.709 108.963 159.867C108.679 160.025 108.446 160.171 108.263 160.304V168.342L111.1 168.579V170.004H103.075ZM120.558 170.279C119.042 170.279 117.804 169.975 116.846 169.367C115.888 168.75 115.179 167.904 114.721 166.829C114.271 165.746 114.046 164.5 114.046 163.092C114.046 161.959 114.208 160.946 114.533 160.054C114.858 159.154 115.317 158.392 115.908 157.767C116.5 157.134 117.204 156.654 118.021 156.329C118.846 155.996 119.754 155.829 120.746 155.829C122.429 155.829 123.717 156.267 124.608 157.142C125.5 158.017 125.967 159.25 126.008 160.842C126.008 161.384 125.992 161.854 125.958 162.254C125.925 162.654 125.875 163.004 125.808 163.304H117.746C117.771 164.054 117.871 164.725 118.046 165.317C118.229 165.909 118.479 166.413 118.796 166.829C119.113 167.238 119.5 167.55 119.958 167.767C120.425 167.984 120.963 168.092 121.571 168.092C122.238 168.092 122.913 167.975 123.596 167.742C124.279 167.509 124.808 167.263 125.183 167.004L125.783 168.317C125.517 168.609 125.113 168.904 124.571 169.204C124.038 169.504 123.421 169.759 122.721 169.967C122.021 170.175 121.3 170.279 120.558 170.279ZM117.733 161.817L122.471 161.804C122.479 161.638 122.488 161.463 122.496 161.279C122.513 161.088 122.521 160.904 122.521 160.729C122.521 159.721 122.358 158.913 122.033 158.304C121.717 157.696 121.158 157.392 120.358 157.392C119.992 157.392 119.654 157.463 119.346 157.604C119.038 157.738 118.767 157.971 118.533 158.304C118.3 158.629 118.113 159.079 117.971 159.654C117.838 160.221 117.758 160.942 117.733 161.817ZM133.121 170.279C132.346 170.279 131.621 170.213 130.946 170.079C130.28 169.946 129.692 169.8 129.184 169.642C128.676 169.484 128.276 169.363 127.984 169.279V166.004H130.046L130.609 167.942C130.701 168.084 130.867 168.221 131.109 168.354C131.359 168.488 131.646 168.6 131.971 168.692C132.305 168.775 132.638 168.817 132.971 168.817C133.521 168.817 133.967 168.742 134.309 168.592C134.651 168.442 134.905 168.234 135.071 167.967C135.238 167.7 135.321 167.4 135.321 167.067C135.321 166.617 135.155 166.242 134.821 165.942C134.496 165.642 134.042 165.359 133.459 165.092C132.884 164.825 132.217 164.529 131.459 164.204C130.734 163.888 130.113 163.529 129.596 163.129C129.088 162.729 128.696 162.254 128.421 161.704C128.155 161.154 128.021 160.504 128.021 159.754C128.021 158.996 128.242 158.329 128.684 157.754C129.126 157.171 129.751 156.713 130.559 156.379C131.367 156.038 132.317 155.867 133.409 155.867C134.217 155.867 134.909 155.921 135.484 156.029C136.059 156.138 136.542 156.254 136.934 156.379C137.334 156.496 137.659 156.575 137.909 156.617V159.892H135.959L135.384 158.029C135.317 157.904 135.192 157.788 135.009 157.679C134.826 157.571 134.605 157.484 134.346 157.417C134.088 157.35 133.805 157.317 133.496 157.317C133.046 157.309 132.655 157.375 132.321 157.517C131.988 157.65 131.73 157.842 131.546 158.092C131.363 158.334 131.271 158.621 131.271 158.954C131.271 159.454 131.421 159.863 131.721 160.179C132.021 160.488 132.413 160.754 132.896 160.979C133.388 161.204 133.909 161.434 134.459 161.667C134.984 161.892 135.501 162.134 136.009 162.392C136.526 162.65 136.988 162.95 137.396 163.292C137.805 163.625 138.13 164.025 138.371 164.492C138.613 164.95 138.734 165.496 138.734 166.129C138.734 166.904 138.53 167.609 138.121 168.242C137.713 168.867 137.092 169.363 136.259 169.729C135.426 170.096 134.38 170.279 133.121 170.279ZM151.637 170.279C150.904 170.279 150.212 170.146 149.562 169.879C148.912 169.613 148.333 169.204 147.825 168.654C147.325 168.096 146.933 167.388 146.65 166.529C146.367 165.663 146.225 164.634 146.225 163.442C146.225 162.059 146.508 160.792 147.075 159.642C147.642 158.484 148.471 157.559 149.562 156.867C150.654 156.175 151.987 155.829 153.562 155.829C153.904 155.829 154.229 155.85 154.537 155.892C154.854 155.934 155.142 155.988 155.4 156.054V151.704L152.975 151.367V150.017L158.1 149.517H158.225L158.887 150.029V168.517H160.225V169.904C159.867 169.979 159.408 170.059 158.85 170.142C158.3 170.234 157.767 170.279 157.25 170.279C156.758 170.279 156.383 170.2 156.125 170.042C155.875 169.892 155.75 169.542 155.75 168.992V168.267C155.483 168.642 155.137 168.984 154.712 169.292C154.296 169.592 153.821 169.829 153.287 170.004C152.762 170.188 152.212 170.279 151.637 170.279ZM152.962 168.229C153.346 168.229 153.696 168.171 154.012 168.054C154.337 167.938 154.617 167.792 154.85 167.617C155.083 167.442 155.267 167.267 155.4 167.092V158.004C155.283 157.838 155.042 157.692 154.675 157.567C154.308 157.442 153.908 157.379 153.475 157.379C152.833 157.379 152.25 157.563 151.725 157.929C151.208 158.296 150.796 158.892 150.487 159.717C150.179 160.542 150.017 161.646 150 163.029C149.992 164.263 150.117 165.263 150.375 166.029C150.642 166.796 151 167.354 151.45 167.704C151.9 168.054 152.404 168.229 152.962 168.229ZM168.117 170.279C166.6 170.279 165.363 169.975 164.405 169.367C163.446 168.75 162.738 167.904 162.28 166.829C161.83 165.746 161.605 164.5 161.605 163.092C161.605 161.959 161.767 160.946 162.092 160.054C162.417 159.154 162.875 158.392 163.467 157.767C164.059 157.134 164.763 156.654 165.58 156.329C166.405 155.996 167.313 155.829 168.305 155.829C169.988 155.829 171.275 156.267 172.167 157.142C173.059 158.017 173.525 159.25 173.567 160.842C173.567 161.384 173.55 161.854 173.517 162.254C173.484 162.654 173.434 163.004 173.367 163.304H165.305C165.33 164.054 165.43 164.725 165.605 165.317C165.788 165.909 166.038 166.413 166.355 166.829C166.671 167.238 167.059 167.55 167.517 167.767C167.984 167.984 168.521 168.092 169.13 168.092C169.796 168.092 170.471 167.975 171.155 167.742C171.838 167.509 172.367 167.263 172.742 167.004L173.342 168.317C173.075 168.609 172.671 168.904 172.13 169.204C171.596 169.504 170.98 169.759 170.28 169.967C169.58 170.175 168.859 170.279 168.117 170.279ZM165.292 161.817L170.03 161.804C170.038 161.638 170.046 161.463 170.055 161.279C170.071 161.088 170.08 160.904 170.08 160.729C170.08 159.721 169.917 158.913 169.592 158.304C169.275 157.696 168.717 157.392 167.917 157.392C167.55 157.392 167.213 157.463 166.905 157.604C166.596 157.738 166.325 157.971 166.092 158.304C165.859 158.629 165.671 159.079 165.53 159.654C165.396 160.221 165.317 160.942 165.292 161.817ZM182.955 168.304V153.254L181.118 152.929V151.429H188.705V152.929L186.655 153.254V159.604H194.168V153.267L192.105 152.929V151.429H199.693V152.929L197.868 153.254V168.304L199.73 168.567V170.004H192.193V168.567L194.168 168.292V161.442H186.655V168.304L188.805 168.567V170.004H181.093V168.567L182.955 168.304ZM201.307 170.004V168.567L203.032 168.329V158.529L201.282 158.054V156.454L205.844 155.867H205.919L206.594 156.354V168.342L208.282 168.567V170.004H201.307ZM204.532 153.954C203.898 153.954 203.415 153.759 203.082 153.367C202.757 152.975 202.594 152.534 202.594 152.042C202.594 151.45 202.773 150.938 203.132 150.504C203.498 150.071 204.036 149.854 204.744 149.854H204.769C205.402 149.854 205.882 150.046 206.207 150.429C206.54 150.804 206.707 151.238 206.707 151.729C206.707 152.321 206.523 152.842 206.157 153.292C205.798 153.734 205.265 153.954 204.557 153.954H204.532ZM215.128 170.279C214.353 170.279 213.628 170.213 212.953 170.079C212.287 169.946 211.699 169.8 211.191 169.642C210.682 169.484 210.282 169.363 209.991 169.279V166.004H212.053L212.616 167.942C212.707 168.084 212.874 168.221 213.116 168.354C213.366 168.488 213.653 168.6 213.978 168.692C214.312 168.775 214.645 168.817 214.978 168.817C215.528 168.817 215.974 168.742 216.316 168.592C216.657 168.442 216.912 168.234 217.078 167.967C217.245 167.7 217.328 167.4 217.328 167.067C217.328 166.617 217.162 166.242 216.828 165.942C216.503 165.642 216.049 165.359 215.466 165.092C214.891 164.825 214.224 164.529 213.466 164.204C212.741 163.888 212.12 163.529 211.603 163.129C211.095 162.729 210.703 162.254 210.428 161.704C210.162 161.154 210.028 160.504 210.028 159.754C210.028 158.996 210.249 158.329 210.691 157.754C211.132 157.171 211.757 156.713 212.566 156.379C213.374 156.038 214.324 155.867 215.416 155.867C216.224 155.867 216.916 155.921 217.491 156.029C218.066 156.138 218.549 156.254 218.941 156.379C219.341 156.496 219.666 156.575 219.916 156.617V159.892H217.966L217.391 158.029C217.324 157.904 217.199 157.788 217.016 157.679C216.832 157.571 216.612 157.484 216.353 157.417C216.095 157.35 215.812 157.317 215.503 157.317C215.053 157.309 214.662 157.375 214.328 157.517C213.995 157.65 213.737 157.842 213.553 158.092C213.37 158.334 213.278 158.621 213.278 158.954C213.278 159.454 213.428 159.863 213.728 160.179C214.028 160.488 214.42 160.754 214.903 160.979C215.395 161.204 215.916 161.434 216.466 161.667C216.991 161.892 217.507 162.134 218.016 162.392C218.532 162.65 218.995 162.95 219.403 163.292C219.812 163.625 220.137 164.025 220.378 164.492C220.62 164.95 220.741 165.496 220.741 166.129C220.741 166.904 220.537 167.609 220.128 168.242C219.72 168.867 219.099 169.363 218.266 169.729C217.432 170.096 216.387 170.279 215.128 170.279ZM226.659 170.242C225.643 170.242 224.88 170.004 224.372 169.529C223.863 169.054 223.609 168.284 223.609 167.217V158.079H221.984V156.717C222.176 156.642 222.372 156.575 222.572 156.517C222.772 156.459 222.959 156.4 223.134 156.342C223.309 156.275 223.447 156.2 223.547 156.117C223.663 156.017 223.759 155.913 223.834 155.804C223.918 155.696 223.993 155.575 224.059 155.442C224.134 155.3 224.205 155.138 224.272 154.954C224.355 154.738 224.443 154.484 224.534 154.192C224.634 153.9 224.73 153.6 224.822 153.292C224.913 152.984 224.993 152.709 225.059 152.467H227.059L227.172 156.179H230.809V158.079H227.197V165.154C227.197 166.021 227.226 166.654 227.284 167.054C227.351 167.446 227.48 167.696 227.672 167.804C227.863 167.904 228.147 167.954 228.522 167.954C228.922 167.954 229.338 167.904 229.772 167.804C230.205 167.704 230.551 167.604 230.809 167.504L231.284 168.867C231.001 169.084 230.613 169.3 230.122 169.517C229.638 169.725 229.097 169.896 228.497 170.029C227.905 170.171 227.293 170.242 226.659 170.242ZM231.771 163.129C231.771 161.913 231.954 160.85 232.321 159.942C232.696 159.025 233.204 158.263 233.846 157.654C234.496 157.046 235.229 156.592 236.046 156.292C236.871 155.984 237.733 155.829 238.633 155.829C240.041 155.829 241.233 156.121 242.208 156.704C243.183 157.288 243.921 158.117 244.421 159.192C244.929 160.259 245.183 161.517 245.183 162.967C245.183 164.209 244.996 165.288 244.621 166.204C244.246 167.121 243.737 167.884 243.096 168.492C242.454 169.092 241.721 169.542 240.896 169.842C240.071 170.134 239.208 170.279 238.308 170.279C237.258 170.279 236.325 170.113 235.508 169.779C234.7 169.446 234.016 168.967 233.458 168.342C232.908 167.717 232.487 166.967 232.196 166.092C231.912 165.209 231.771 164.221 231.771 163.129ZM238.521 168.717C239.129 168.717 239.637 168.521 240.046 168.129C240.462 167.738 240.775 167.138 240.983 166.329C241.2 165.513 241.308 164.484 241.308 163.242C241.308 162.334 241.258 161.521 241.158 160.804C241.058 160.079 240.896 159.463 240.671 158.954C240.454 158.446 240.166 158.059 239.808 157.792C239.45 157.525 239.008 157.392 238.483 157.392C237.883 157.392 237.371 157.588 236.946 157.979C236.521 158.371 236.196 158.971 235.971 159.779C235.746 160.579 235.633 161.609 235.633 162.867C235.633 163.784 235.687 164.604 235.796 165.329C235.904 166.046 236.075 166.659 236.308 167.167C236.541 167.667 236.837 168.05 237.196 168.317C237.562 168.584 238.004 168.717 238.521 168.717ZM237.971 154.167L236.783 153.129L240.946 147.867L243.158 149.792C242.958 150.142 242.646 150.538 242.221 150.979C241.796 151.421 241.325 151.859 240.808 152.292C240.3 152.725 239.796 153.113 239.296 153.454C238.804 153.788 238.379 154.025 238.021 154.167H237.971ZM246.727 170.004V168.579L248.365 168.367V158.529L246.777 158.079V156.404L250.665 155.867H250.752L251.402 156.354V156.917L251.327 159.104H251.402C251.477 158.888 251.632 158.609 251.865 158.267C252.107 157.917 252.419 157.563 252.802 157.204C253.186 156.846 253.636 156.546 254.152 156.304C254.677 156.063 255.252 155.942 255.877 155.942C256.111 155.942 256.307 155.959 256.465 155.992C256.623 156.025 256.748 156.059 256.84 156.092V159.692C256.682 159.567 256.457 159.467 256.165 159.392C255.882 159.317 255.498 159.279 255.015 159.279C254.498 159.279 254.04 159.338 253.64 159.454C253.24 159.571 252.898 159.709 252.615 159.867C252.332 160.025 252.098 160.171 251.915 160.304V168.342L254.752 168.579V170.004H246.727ZM258.313 170.004V168.567L260.038 168.329V158.529L258.288 158.054V156.454L262.851 155.867H262.926L263.601 156.354V168.342L265.288 168.567V170.004H258.313ZM261.538 153.954C260.905 153.954 260.422 153.759 260.088 153.367C259.763 152.975 259.601 152.534 259.601 152.042C259.601 151.45 259.78 150.938 260.138 150.504C260.505 150.071 261.043 149.854 261.751 149.854H261.776C262.409 149.854 262.888 150.046 263.213 150.429C263.547 150.804 263.713 151.238 263.713 151.729C263.713 152.321 263.53 152.842 263.163 153.292C262.805 153.734 262.272 153.954 261.563 153.954H261.538ZM270.499 170.279C269.749 170.279 269.058 170.121 268.424 169.804C267.791 169.488 267.283 169.021 266.899 168.404C266.516 167.788 266.324 167.034 266.324 166.142C266.324 165.35 266.537 164.667 266.962 164.092C267.387 163.517 267.974 163.046 268.724 162.679C269.474 162.304 270.337 162.025 271.312 161.842C272.295 161.659 273.341 161.559 274.449 161.542V160.867C274.449 160.234 274.378 159.725 274.237 159.342C274.103 158.959 273.849 158.675 273.474 158.492C273.099 158.309 272.562 158.217 271.862 158.217C270.903 158.217 270.066 158.354 269.349 158.629C268.641 158.904 268.087 159.138 267.687 159.329L266.924 157.767C267.124 157.592 267.508 157.354 268.074 157.054C268.641 156.754 269.333 156.484 270.149 156.242C270.966 155.992 271.849 155.867 272.799 155.867C274.058 155.867 275.049 156.05 275.774 156.417C276.499 156.775 277.02 157.325 277.337 158.067C277.653 158.809 277.812 159.75 277.812 160.892V168.517H279.149V169.867C278.958 169.909 278.683 169.959 278.324 170.017C277.974 170.084 277.595 170.138 277.187 170.179C276.787 170.221 276.42 170.242 276.087 170.242C275.528 170.242 275.145 170.163 274.937 170.004C274.737 169.838 274.637 169.5 274.637 168.992V168.304C274.437 168.554 274.141 168.834 273.749 169.142C273.358 169.45 272.887 169.717 272.337 169.942C271.795 170.167 271.183 170.279 270.499 170.279ZM272.124 168.229C272.483 168.229 272.878 168.125 273.312 167.917C273.753 167.709 274.133 167.459 274.449 167.167V163.042C273.424 163.042 272.587 163.167 271.937 163.417C271.295 163.667 270.82 163.996 270.512 164.404C270.212 164.813 270.062 165.267 270.062 165.767C270.062 166.309 270.149 166.763 270.324 167.129C270.499 167.488 270.741 167.763 271.049 167.954C271.366 168.138 271.724 168.229 272.124 168.229ZM285.978 170.279C285.203 170.279 284.478 170.213 283.803 170.079C283.136 169.946 282.549 169.8 282.04 169.642C281.532 169.484 281.132 169.363 280.84 169.279V166.004H282.903L283.465 167.942C283.557 168.084 283.724 168.221 283.965 168.354C284.215 168.488 284.503 168.6 284.828 168.692C285.161 168.775 285.494 168.817 285.828 168.817C286.378 168.817 286.824 168.742 287.165 168.592C287.507 168.442 287.761 168.234 287.928 167.967C288.094 167.7 288.178 167.4 288.178 167.067C288.178 166.617 288.011 166.242 287.678 165.942C287.353 165.642 286.899 165.359 286.315 165.092C285.74 164.825 285.074 164.529 284.315 164.204C283.59 163.888 282.969 163.529 282.453 163.129C281.944 162.729 281.553 162.254 281.278 161.704C281.011 161.154 280.878 160.504 280.878 159.754C280.878 158.996 281.099 158.329 281.54 157.754C281.982 157.171 282.607 156.713 283.415 156.379C284.224 156.038 285.174 155.867 286.265 155.867C287.074 155.867 287.765 155.921 288.34 156.029C288.915 156.138 289.399 156.254 289.79 156.379C290.19 156.496 290.515 156.575 290.765 156.617V159.892H288.815L288.24 158.029C288.174 157.904 288.049 157.788 287.865 157.679C287.682 157.571 287.461 157.484 287.203 157.417C286.944 157.35 286.661 157.317 286.353 157.317C285.903 157.309 285.511 157.375 285.178 157.517C284.844 157.65 284.586 157.842 284.403 158.092C284.219 158.334 284.128 158.621 284.128 158.954C284.128 159.454 284.278 159.863 284.578 160.179C284.878 160.488 285.269 160.754 285.753 160.979C286.244 161.204 286.765 161.434 287.315 161.667C287.84 161.892 288.357 162.134 288.865 162.392C289.382 162.65 289.844 162.95 290.253 163.292C290.661 163.625 290.986 164.025 291.228 164.492C291.469 164.95 291.59 165.496 291.59 166.129C291.59 166.904 291.386 167.609 290.978 168.242C290.569 168.867 289.949 169.363 289.115 169.729C288.282 170.096 287.236 170.279 285.978 170.279Z" fill="#8B4513"/>
</svg>
