<svg width="521" height="390" viewBox="0 0 521 390" fill="none" xmlns="http://www.w3.org/2000/svg">
<g filter="url(#filter0_d_207_706)">
<path d="M26.2272 354.741C44.1538 349.193 51.338 343.866 57.7023 332.017L51.1459 324.836C40.3946 330.479 35.422 337.684 26.2272 354.741Z" fill="#E19E4C"/>
<path d="M51.1459 324.836L57.7023 332.017L57.8746 332.096C61.1368 333.586 62.3011 334.118 63.5995 332.944C98.579 301.309 134.553 266.031 134.553 266.031C137.406 256.665 127.514 246.148 118.108 250.649C118.108 250.649 83.8925 282.305 48.8535 317.006C47.4813 319.348 47.8436 321.018 51.1459 324.836Z" fill="#AC6029"/>
<path d="M118.108 250.649C127.514 246.148 137.406 256.665 134.553 266.031C137.602 265.96 139.222 264.582 140.417 262.352C140.61 261.991 140.792 261.608 140.967 261.205C142.953 252.605 131.932 243.001 123.774 243.22C122.849 243.244 121.96 243.395 121.131 243.689C118.017 244.791 116.136 248.698 118.108 250.649Z" fill="#E19E4C"/>
<path d="M140.967 261.205C140.792 261.608 140.61 261.991 140.417 262.352C145.593 258.556 147.585 256.273 149.248 251.884C150.169 249.764 150.185 247.494 149.563 245.334C148.32 241.021 144.536 237.145 140.353 235.768C138.438 235.138 136.44 235.032 134.564 235.647C130.556 237.122 128.197 238.753 123.774 243.22C131.932 243.001 142.953 252.605 140.967 261.205Z" fill="#AC6029"/>
<path d="M140.353 235.768C144.536 237.145 148.32 241.021 149.563 245.334C151.464 243.563 153.361 241.803 155.255 240.055C268.888 135.112 368.468 71.0243 484.037 44.3968C370.634 56.2298 255.85 127.27 140.353 235.768Z" fill="#E19E4C"/>
<path d="M163.666 243.708C187.045 251.282 207.617 264.982 209.705 282.158C212.631 272.726 203.299 258.106 183.849 245.428C177.765 244.137 171.285 243.634 163.666 243.708Z" fill="#4A3214"/>
<path d="M149.563 245.334C165.454 247.542 179.475 271.466 166.569 285.957C182.424 277.763 172.182 250.018 154.826 244.04C157.892 243.849 160.837 243.736 163.666 243.708C171.285 243.634 177.765 244.137 183.849 245.428C194.57 247.703 203.424 252.339 210.549 259.946C204.264 249.865 197.417 245.279 179.041 239.104C174.322 240.199 159.21 240.833 155.255 240.055C153.361 241.803 151.464 243.563 149.563 245.334Z" fill="#4A3214"/>
<path d="M110.794 190.533C137.162 199.014 144.335 208.489 140.353 235.768C154.922 218.714 155.387 201.154 156.498 194.716C156.998 170.262 150.806 156.867 132.571 133.326C147.203 161.485 151.426 176.447 151.508 201.614C148.547 183.95 144.235 177.158 133.278 168.863C144.898 187.921 147.52 197.3 146.89 212.248C143.137 196.01 131.102 189.236 110.794 190.533Z" fill="#4A3214"/>
<path d="M484.037 44.3968C368.468 71.0243 268.888 135.112 155.255 240.055C159.21 240.833 174.322 240.199 179.041 239.104C277.462 235.621 332.511 180.663 363.532 159.928L359.766 156.288C381.833 145.227 405.707 130.377 415.383 123.637C396.291 124.479 387.609 123.847 375.029 121.147C397.348 121.652 406.208 121.039 414.271 118.048C426.343 111.369 442.643 92.3128 458.027 76.9974C448.249 76.4439 443.97 75.9044 437.361 73.0337C449.316 73.899 454.986 73.9449 462.755 73.036C475.689 63.6164 487.982 49.5744 484.037 44.3968Z" fill="#DBBCA5"/>
<path d="M140.353 235.768C255.85 127.27 370.634 56.2298 484.037 44.3968C480.566 37.0911 447.934 26.8057 418.357 27.3598C410.778 32.8572 405.885 37.0841 396.012 48.2658C403.843 36.4616 408.374 32.2153 415.791 27.2934C400.892 25.9996 391.799 26.4117 377.357 29.4467C369.637 35.9663 365.332 43.6881 354.72 62.8092C359.99 50.6757 364.991 37.283 373.331 30.5037C358.727 30.8181 350.251 32.4675 334.579 38.2394C325.406 55.1036 320.505 65.2469 312.262 84.7575C314.923 66.6855 318.642 56.6929 330.011 39.17C306.265 46.8927 293.686 52.7831 273.405 67.8813C271.284 70.7075 265.353 89.334 260.233 105.88C260.217 94.4256 261.512 86.8335 268.183 69.3605C253.382 77.9017 245.909 83.3899 234.311 94.6214C230.232 100.899 222.741 135.816 212.611 161.81C216.661 134.712 220.333 119.681 231.508 93.4043C200.685 112.552 167.544 140.068 156.498 194.716C155.387 201.154 154.922 218.714 140.353 235.768Z" fill="#DBBCA5"/>
<path d="M57.7023 332.017C51.338 343.866 44.1538 349.193 26.2272 354.741C35.422 337.684 40.3945 330.479 51.1459 324.836M57.7023 332.017L51.1459 324.836M57.7023 332.017L57.8746 332.096M134.553 266.031C134.553 266.031 98.579 301.309 63.5995 332.944C62.3011 334.118 61.1368 333.586 57.8746 332.096C57.8178 332.07 57.7604 332.044 57.7023 332.017M51.1459 324.836C47.8436 321.018 47.4813 319.348 48.8535 317.006C83.8925 282.305 118.108 250.649 118.108 250.649M118.108 250.649C127.514 246.148 137.406 256.665 134.553 266.031M140.417 262.352C140.61 261.991 140.792 261.608 140.967 261.205C142.953 252.605 131.932 243.001 123.774 243.22C122.849 243.244 121.96 243.395 121.131 243.689C118.017 244.791 116.136 248.698 118.108 250.649M134.553 266.031C137.602 265.96 139.222 264.582 140.417 262.352M140.353 235.768C144.536 237.145 148.32 241.021 149.563 245.334C150.185 247.494 150.169 249.764 149.248 251.884C147.585 256.273 145.593 258.556 140.417 262.352M123.774 243.22C128.197 238.753 130.556 237.122 134.564 235.647C136.44 235.032 138.438 235.138 140.353 235.768M149.563 245.334C165.454 247.542 179.475 271.466 166.569 285.957C182.424 277.763 172.182 250.018 154.826 244.04C157.892 243.848 160.837 243.736 163.666 243.708M484.037 44.3968C368.468 71.0243 268.888 135.112 155.255 240.055C153.361 241.803 151.464 243.563 149.563 245.334M484.037 44.3968C370.634 56.2298 255.85 127.27 140.353 235.768M155.255 240.055C159.21 240.833 174.322 240.199 179.041 239.104C277.462 235.621 332.511 180.663 363.532 159.928L359.766 156.288C381.833 145.227 405.707 130.377 415.383 123.637C396.291 124.479 387.609 123.847 375.029 121.147C397.348 121.652 406.208 121.039 414.271 118.048C426.343 111.369 442.643 92.3128 458.027 76.9974C448.249 76.4439 443.97 75.9044 437.361 73.0337C449.316 73.899 454.986 73.9449 462.755 73.036C475.689 63.6164 487.982 49.5744 484.037 44.3968M484.037 44.3968C480.566 37.0911 447.934 26.8057 418.357 27.3598C410.778 32.8572 405.885 37.0841 396.012 48.2658C403.843 36.4616 408.374 32.2153 415.791 27.2934C400.892 25.9996 391.799 26.4117 377.357 29.4467C369.637 35.9663 365.332 43.6881 354.72 62.8092C359.99 50.6757 364.991 37.283 373.331 30.5037C358.727 30.8181 350.251 32.4675 334.579 38.2394C325.406 55.1036 320.505 65.2469 312.262 84.7575C314.923 66.6855 318.642 56.6929 330.011 39.17C306.265 46.8927 293.686 52.7831 273.405 67.8813C271.284 70.7075 265.353 89.334 260.233 105.88C260.217 94.4256 261.512 86.8335 268.183 69.3605C253.382 77.9017 245.909 83.3899 234.311 94.6214C230.232 100.899 222.741 135.816 212.611 161.81C216.661 134.712 220.333 119.681 231.508 93.4043C200.685 112.552 167.544 140.068 156.498 194.716M140.353 235.768C144.335 208.489 137.162 199.014 110.794 190.533C131.102 189.236 143.137 196.01 146.89 212.248C147.52 197.3 144.898 187.921 133.278 168.863C144.235 177.158 148.547 183.95 151.508 201.614C151.426 176.447 147.203 161.485 132.571 133.326C150.806 156.867 156.998 170.262 156.498 194.716M140.353 235.768C154.922 218.714 155.387 201.154 156.498 194.716M179.041 239.104C197.417 245.279 204.263 249.865 210.549 259.946C203.424 252.339 194.57 247.703 183.849 245.428M163.666 243.708C187.045 251.282 207.617 264.982 209.705 282.158C212.631 272.726 203.299 258.106 183.849 245.428M163.666 243.708C171.285 243.634 177.765 244.137 183.849 245.428" stroke="black" stroke-width="1.20264"/>
</g>
<defs>
<filter id="filter0_d_207_706" x="0" y="0" width="520.388" height="389.75" filterUnits="userSpaceOnUse" color-interpolation-filters="sRGB">
<feFlood flood-opacity="0" result="BackgroundImageFix"/>
<feColorMatrix in="SourceAlpha" type="matrix" values="0 0 0 0 0 0 0 0 0 0 0 0 0 0 0 0 0 0 127 0" result="hardAlpha"/>
<feOffset dx="5" dy="4"/>
<feGaussianBlur stdDeviation="15"/>
<feComposite in2="hardAlpha" operator="out"/>
<feColorMatrix type="matrix" values="0 0 0 0 0 0 0 0 0 0 0 0 0 0 0 0 0 0 0.25 0"/>
<feBlend mode="normal" in2="BackgroundImageFix" result="effect1_dropShadow_207_706"/>
<feBlend mode="normal" in="SourceGraphic" in2="effect1_dropShadow_207_706" result="shape"/>
</filter>
</defs>
</svg>
