<svg width="198" height="142" viewBox="0 0 198 142" fill="none" xmlns="http://www.w3.org/2000/svg">
<path d="M195.972 140.406C188.334 138.043 185.273 135.773 182.562 130.725L185.355 127.665C189.936 130.07 192.054 133.139 195.972 140.406Z" fill="#77635C"/>
<path d="M185.355 127.665L182.562 130.725L182.488 130.758C181.099 131.393 180.603 131.62 180.049 131.12C165.146 117.641 149.819 102.611 149.819 102.611C148.604 98.6207 152.819 94.1398 156.826 96.0576C156.826 96.0576 171.403 109.545 186.332 124.329C186.917 125.327 186.762 126.039 185.355 127.665Z" fill="#532822"/>
<path d="M156.826 96.0576C152.819 94.1398 148.604 98.6207 149.819 102.611C148.52 102.581 147.83 101.994 147.321 101.044C147.239 100.89 147.161 100.727 147.086 100.555C146.241 96.891 150.936 92.7994 154.412 92.8923C154.806 92.9029 155.185 92.9672 155.538 93.0922C156.865 93.562 157.666 95.2266 156.826 96.0576Z" fill="#77635C"/>
<path d="M147.086 100.555C147.161 100.727 147.239 100.89 147.321 101.044C145.116 99.4266 144.267 98.454 143.558 96.584C143.166 95.6805 143.159 94.7136 143.424 93.7934C143.954 91.9555 145.566 90.3043 147.348 89.7178C148.164 89.4493 149.015 89.404 149.815 89.6658C151.522 90.2945 152.527 90.9895 154.412 92.8923C150.936 92.7994 146.241 96.891 147.086 100.555Z" fill="#532822"/>
<path d="M147.348 89.7178C145.566 90.3043 143.954 91.9555 143.424 93.7934C142.614 93.0387 141.806 92.2889 140.999 91.5439C92.5853 46.8327 50.1592 19.528 0.920617 8.18325C49.2362 13.2247 98.1405 43.4917 147.348 89.7178Z" fill="#77635C"/>
<path d="M137.416 93.1005C127.455 96.3275 118.69 102.164 117.801 109.482C116.554 105.464 120.53 99.2347 128.817 93.8333C131.409 93.2831 134.169 93.0689 137.416 93.1005Z" fill="#4E241E"/>
<path d="M143.424 93.7934C136.654 94.7339 130.68 104.927 136.179 111.101C129.424 107.61 133.788 95.7888 141.182 93.242C139.876 93.1603 138.621 93.1122 137.416 93.1005C134.169 93.0689 131.409 93.2831 128.817 93.8333C124.249 94.8027 120.477 96.7776 117.441 100.019C120.119 95.7239 123.036 93.7699 130.865 91.1388C132.875 91.6056 139.314 91.8755 140.999 91.5439C141.806 92.2889 142.614 93.0387 143.424 93.7934Z" fill="#4E241E"/>
<path d="M159.942 70.4451C148.708 74.0586 145.652 78.0954 147.348 89.7178C141.141 82.4518 140.943 74.9703 140.47 72.2271C140.257 61.8085 142.895 56.1016 150.664 46.072C144.43 58.0692 142.63 64.4437 142.596 75.166C143.857 67.6405 145.695 64.7466 150.362 61.2123C145.412 69.3322 144.295 73.3283 144.563 79.6966C146.162 72.7785 151.29 69.8925 159.942 70.4451Z" fill="#4E241E"/>
<path d="M0.920617 8.18325C50.1592 19.528 92.5853 46.8327 140.999 91.5439C139.314 91.8755 132.875 91.6056 130.865 91.1388C88.9325 89.6551 65.4786 66.24 52.2623 57.4058L53.8665 55.8548C44.4649 51.1424 34.2934 44.8153 30.1709 41.9436C38.3052 42.3025 42.0041 42.0332 47.364 40.8829C37.8546 41.0979 34.0798 40.8371 30.6445 39.5626C25.5015 36.717 18.5564 28.598 12.002 22.0728C16.168 21.837 17.9911 21.6072 20.8072 20.3841C15.7133 20.7527 13.2978 20.7723 9.98761 20.3851C4.47706 16.3718 -0.760381 10.3892 0.920617 8.18325Z" fill="#DBBCA5"/>
<path d="M147.348 89.7178C98.1405 43.4917 49.2362 13.2247 0.920617 8.18325C2.39956 5.07062 16.3024 0.688463 28.9035 0.924549C32.1328 3.26675 34.2172 5.06763 38.4239 9.83162C35.0873 4.80239 33.1571 2.99325 29.997 0.896243C36.3447 0.345024 40.2189 0.520616 46.3721 1.8137C49.6612 4.5914 51.4953 7.88129 56.0165 16.0279C53.7713 10.8584 51.6403 5.15237 48.0872 2.26404C54.3091 2.39797 57.9204 3.10071 64.5976 5.55983C68.5058 12.7449 70.5939 17.0665 74.1059 25.379C72.9721 17.6794 71.3877 13.422 66.5438 5.95634C76.661 9.2466 82.0203 11.7562 90.6609 18.1889C91.5646 19.393 94.0914 27.3289 96.2731 34.3783C96.2796 29.4982 95.7281 26.2635 92.886 18.8191C99.1919 22.4581 102.376 24.7964 107.317 29.5816C109.055 32.2562 112.246 47.1329 116.563 58.2077C114.837 46.6625 113.273 40.2582 108.511 29.063C121.644 37.2211 135.763 48.9441 140.47 72.2271C140.943 74.9703 141.141 82.4518 147.348 89.7178Z" fill="#DBBCA5"/>
<path d="M182.562 130.725C185.273 135.773 188.334 138.043 195.972 140.406C192.054 133.139 189.936 130.07 185.355 127.665M182.562 130.725L185.355 127.665M182.562 130.725L182.488 130.758M149.819 102.611C149.819 102.611 165.146 117.641 180.049 131.12C180.603 131.62 181.099 131.393 182.488 130.758C182.513 130.747 182.537 130.736 182.562 130.725M185.355 127.665C186.762 126.039 186.917 125.327 186.332 124.329C171.403 109.545 156.826 96.0576 156.826 96.0576M156.826 96.0576C152.819 94.1398 148.604 98.6207 149.819 102.611M147.321 101.044C147.239 100.89 147.161 100.727 147.086 100.555C146.241 96.891 150.936 92.7994 154.412 92.8923C154.806 92.9029 155.185 92.9672 155.538 93.0922C156.865 93.562 157.666 95.2266 156.826 96.0576M149.819 102.611C148.52 102.581 147.83 101.994 147.321 101.044M147.348 89.7178C145.566 90.3043 143.954 91.9555 143.424 93.7934C143.159 94.7136 143.166 95.6805 143.558 96.584C144.267 98.454 145.116 99.4266 147.321 101.044M154.412 92.8923C152.527 90.9895 151.522 90.2945 149.815 89.6658C149.015 89.404 148.164 89.4493 147.348 89.7178M143.424 93.7934C136.654 94.7339 130.68 104.927 136.179 111.101C129.424 107.61 133.788 95.7888 141.182 93.242C139.876 93.1603 138.621 93.1122 137.416 93.1005M0.920617 8.18325C50.1592 19.528 92.5853 46.8327 140.999 91.5439C141.806 92.2889 142.614 93.0387 143.424 93.7934M0.920617 8.18325C49.2362 13.2247 98.1405 43.4917 147.348 89.7178M140.999 91.5439C139.314 91.8755 132.875 91.6056 130.865 91.1388C88.9325 89.6551 65.4786 66.24 52.2623 57.4058L53.8665 55.8548C44.4649 51.1424 34.2934 44.8153 30.1709 41.9436C38.3052 42.3025 42.0041 42.0332 47.364 40.8829C37.8546 41.0979 34.0798 40.8371 30.6445 39.5626C25.5015 36.717 18.5564 28.598 12.002 22.0728C16.168 21.837 17.9911 21.6072 20.8072 20.3841C15.7133 20.7527 13.2978 20.7723 9.98761 20.3851C4.47706 16.3718 -0.760381 10.3892 0.920617 8.18325M0.920617 8.18325C2.39956 5.07062 16.3024 0.688463 28.9035 0.924549C32.1328 3.26675 34.2172 5.06763 38.4239 9.83162C35.0873 4.80239 33.1571 2.99325 29.997 0.896243C36.3447 0.345024 40.2189 0.520616 46.3721 1.8137C49.6612 4.5914 51.4953 7.88129 56.0165 16.0279C53.7713 10.8584 51.6403 5.15237 48.0872 2.26404C54.3091 2.39797 57.9204 3.10071 64.5976 5.55983C68.5058 12.7449 70.5939 17.0665 74.1059 25.379C72.9721 17.6794 71.3877 13.422 66.5438 5.95634C76.661 9.2466 82.0203 11.7562 90.6609 18.1889C91.5646 19.393 94.0914 27.3289 96.2731 34.3783C96.2796 29.4982 95.7281 26.2635 92.886 18.8191C99.1919 22.4581 102.376 24.7964 107.317 29.5816C109.055 32.2562 112.246 47.1329 116.563 58.2077C114.837 46.6625 113.273 40.2582 108.511 29.063C121.644 37.2211 135.763 48.9441 140.47 72.2271M147.348 89.7178C145.652 78.0954 148.708 74.0586 159.942 70.4451C151.29 69.8925 146.162 72.7785 144.563 79.6966C144.295 73.3283 145.412 69.3322 150.362 61.2123C145.695 64.7466 143.857 67.6405 142.596 75.166C142.63 64.4437 144.43 58.0692 150.664 46.072C142.895 56.1016 140.257 61.8085 140.47 72.2271M147.348 89.7178C141.141 82.4518 140.943 74.9703 140.47 72.2271M130.865 91.1388C123.036 93.7699 120.119 95.7239 117.441 100.019C120.477 96.7776 124.249 94.8027 128.817 93.8333M137.416 93.1005C127.455 96.3275 118.69 102.164 117.801 109.482C116.554 105.464 120.53 99.2347 128.817 93.8333M137.416 93.1005C134.169 93.0689 131.409 93.2831 128.817 93.8333" stroke="black" stroke-width="1.20264"/>
</svg>
