<svg width="198" height="142" viewBox="0 0 198 142" fill="none" xmlns="http://www.w3.org/2000/svg">
<path d="M1.22714 140.406C8.86486 138.043 11.9257 135.773 14.6372 130.725L11.8438 127.665C7.2632 130.07 5.14462 133.139 1.22714 140.406Z" fill="#E19E4C"/>
<path d="M11.8438 127.665L14.6372 130.725L14.7106 130.758C16.1005 131.393 16.5965 131.62 17.1497 131.12C32.0529 117.642 47.3797 102.611 47.3797 102.611C48.5954 98.6207 44.3806 94.1398 40.3735 96.0577C40.3735 96.0577 25.7956 109.545 10.8672 124.329C10.2825 125.327 10.4369 126.039 11.8438 127.665Z" fill="#AC6029"/>
<path d="M40.3735 96.0577C44.3806 94.1398 48.5954 98.6207 47.3797 102.611C48.679 102.581 49.3692 101.994 49.8782 101.044C49.9605 100.89 50.038 100.727 50.1126 100.555C50.9584 96.891 46.2631 92.7994 42.7873 92.8923C42.393 92.9029 42.0144 92.9673 41.6614 93.0923C40.3345 93.562 39.5333 95.2266 40.3735 96.0577Z" fill="#E19E4C"/>
<path d="M50.1126 100.555C50.038 100.727 49.9605 100.89 49.8782 101.044C52.0835 99.4266 52.932 98.454 53.6407 96.5841C54.0332 95.6805 54.0396 94.7136 53.7746 93.7934C53.2453 91.9555 51.6332 90.3043 49.8509 89.7178C49.0352 89.4494 48.1838 89.404 47.3843 89.6658C45.6767 90.2945 44.6717 90.9896 42.7873 92.8923C46.2631 92.7994 50.9584 96.891 50.1126 100.555Z" fill="#AC6029"/>
<path d="M49.8509 89.7178C51.6332 90.3043 53.2453 91.9555 53.7746 93.7934C54.5847 93.0388 55.393 92.2889 56.1997 91.5439C104.614 46.8327 147.04 19.528 196.278 8.18327C147.963 13.2247 99.0586 43.4917 49.8509 89.7178Z" fill="#E19E4C"/>
<path d="M59.7836 93.1005C69.7442 96.3276 78.5088 102.164 79.3983 109.482C80.645 105.464 76.6692 99.2347 68.3824 93.8333C65.7902 93.2831 63.0297 93.0689 59.7836 93.1005Z" fill="#4A3214"/>
<path d="M53.7746 93.7934C60.5454 94.7339 66.5187 104.927 61.0203 111.101C67.7755 107.61 63.4115 95.7888 56.0169 93.242C57.3235 93.1603 58.5781 93.1122 59.7836 93.1005C63.0297 93.0689 65.7902 93.2831 68.3824 93.8333C72.9501 94.8027 76.7226 96.7776 79.758 100.019C77.0801 95.7239 74.163 93.77 66.3339 91.1388C64.3236 91.6056 57.8848 91.8756 56.1997 91.5439C55.393 92.2889 54.5847 93.0388 53.7746 93.7934Z" fill="#4A3214"/>
<path d="M37.2572 70.4451C48.4913 74.0586 51.5476 78.0954 49.8509 89.7178C56.0578 82.4519 56.256 74.9703 56.7293 72.2271C56.9424 61.8086 54.3044 56.1016 46.5352 46.072C52.7693 58.0692 54.5686 64.4437 54.6035 75.1661C53.3417 67.6405 51.5046 64.7467 46.8367 61.2124C51.7872 69.3322 52.9043 73.3283 52.6358 79.6967C51.0371 72.7786 45.9094 69.8925 37.2572 70.4451Z" fill="#4A3214"/>
<path d="M196.278 8.18327C147.04 19.528 104.614 46.8327 56.1997 91.5439C57.8848 91.8756 64.3236 91.6056 66.3339 91.1388C108.267 89.6551 131.721 66.2401 144.937 57.4058L143.333 55.8548C152.734 51.1424 162.906 44.8154 167.028 41.9436C158.894 42.3025 155.195 42.0333 149.835 40.8829C159.345 41.0979 163.119 40.8371 166.555 39.5626C171.698 36.717 178.643 28.598 185.197 22.0729C181.031 21.837 179.208 21.6072 176.392 20.3841C181.486 20.7528 183.901 20.7723 187.211 20.3851C192.722 16.3718 197.959 10.3892 196.278 8.18327Z" fill="#DBBCA5"/>
<path d="M49.8509 89.7178C99.0586 43.4917 147.963 13.2247 196.278 8.18327C194.8 5.07064 180.897 0.688487 168.296 0.924572C165.066 3.26677 162.982 5.06766 158.775 9.83164C162.112 4.80241 164.042 2.99327 167.202 0.896267C160.854 0.345048 156.98 0.52064 150.827 1.81372C147.538 4.59142 145.704 7.88131 141.183 16.0279C143.428 10.8584 145.559 5.1524 149.112 2.26406C142.89 2.39799 139.279 3.10073 132.602 5.55985C128.693 12.7449 126.605 17.0665 123.093 25.3791C124.227 17.6794 125.811 13.422 130.655 5.95637C120.538 9.24662 115.179 11.7563 106.538 18.1889C105.635 19.393 103.108 27.3289 100.926 34.3783C100.919 29.4982 101.471 26.2636 104.313 18.8191C98.0072 22.4581 94.8233 24.7964 89.8818 29.5816C88.1441 32.2562 84.9527 47.1329 80.6365 58.2077C82.3623 46.6626 83.9266 40.2583 88.6878 29.0631C75.5554 37.2211 61.4358 48.9441 56.7293 72.2271C56.256 74.9703 56.0578 82.4519 49.8509 89.7178Z" fill="#DBBCA5"/>
<path d="M14.6372 130.725C11.9257 135.773 8.86486 138.043 1.22714 140.406C5.14462 133.139 7.2632 130.07 11.8438 127.665M14.6372 130.725L11.8438 127.665M14.6372 130.725L14.7106 130.758M47.3797 102.611C47.3797 102.611 32.0529 117.642 17.1497 131.12C16.5966 131.62 16.1005 131.393 14.7106 130.758C14.6864 130.747 14.662 130.736 14.6372 130.725M11.8438 127.665C10.4369 126.039 10.2825 125.327 10.8672 124.329C25.7956 109.545 40.3735 96.0577 40.3735 96.0577M40.3735 96.0577C44.3806 94.1398 48.5954 98.6207 47.3797 102.611M49.8782 101.044C49.9605 100.89 50.038 100.727 50.1126 100.555C50.9584 96.891 46.2631 92.7994 42.7873 92.8923C42.393 92.9029 42.0144 92.9673 41.6614 93.0922C40.3345 93.562 39.5333 95.2266 40.3735 96.0577M47.3797 102.611C48.679 102.581 49.3692 101.994 49.8782 101.044M49.8509 89.7178C51.6331 90.3043 53.2453 91.9555 53.7746 93.7934C54.0396 94.7136 54.0332 95.6805 53.6407 96.5841C52.932 98.454 52.0835 99.4266 49.8782 101.044M42.7873 92.8923C44.6717 90.9896 45.6767 90.2945 47.3843 89.6658C48.1838 89.404 49.0352 89.4494 49.8509 89.7178M53.7746 93.7934C60.5454 94.7339 66.5187 104.927 61.0203 111.101C67.7755 107.61 63.4115 95.7888 56.0169 93.242C57.3235 93.1603 58.5781 93.1122 59.7836 93.1005M196.278 8.18327C147.04 19.528 104.614 46.8327 56.1997 91.5439C55.393 92.2889 54.5847 93.0388 53.7746 93.7934M196.278 8.18327C147.963 13.2247 99.0586 43.4917 49.8509 89.7178M56.1997 91.5439C57.8848 91.8756 64.3236 91.6056 66.3339 91.1388C108.267 89.6551 131.721 66.2401 144.937 57.4058L143.333 55.8548C152.734 51.1424 162.906 44.8154 167.028 41.9436C158.894 42.3025 155.195 42.0333 149.835 40.8829C159.345 41.0979 163.119 40.8371 166.555 39.5626C171.698 36.717 178.643 28.598 185.197 22.0728C181.031 21.837 179.208 21.6072 176.392 20.3841C181.486 20.7528 183.901 20.7723 187.211 20.3851C192.722 16.3718 197.959 10.3892 196.278 8.18327M196.278 8.18327C194.8 5.07064 180.897 0.688485 168.296 0.924572C165.066 3.26677 162.982 5.06766 158.775 9.83164C162.112 4.80241 164.042 2.99327 167.202 0.896266C160.854 0.345047 156.98 0.520639 150.827 1.81373C147.538 4.59142 145.704 7.88131 141.183 16.0279C143.428 10.8584 145.559 5.1524 149.112 2.26406C142.89 2.39799 139.279 3.10073 132.602 5.55985C128.693 12.7449 126.605 17.0665 123.093 25.3791C124.227 17.6794 125.811 13.422 130.655 5.95637C120.538 9.24662 115.179 11.7563 106.538 18.1889C105.635 19.393 103.108 27.3289 100.926 34.3783C100.919 29.4982 101.471 26.2636 104.313 18.8191C98.0072 22.4581 94.8233 24.7964 89.8818 29.5816C88.1441 32.2562 84.9527 47.1329 80.6365 58.2077C82.3623 46.6626 83.9266 40.2583 88.6878 29.0631C75.5554 37.2211 61.4358 48.9441 56.7293 72.2271M49.8509 89.7178C51.5476 78.0954 48.4913 74.0586 37.2572 70.4451C45.9094 69.8925 51.0371 72.7786 52.6358 79.6967C52.9043 73.3283 51.7872 69.3322 46.8367 61.2124C51.5046 64.7467 53.3417 67.6405 54.6035 75.1661C54.5686 64.4437 52.7693 58.0692 46.5352 46.072C54.3044 56.1016 56.9424 61.8086 56.7293 72.2271M49.8509 89.7178C56.0578 82.4519 56.256 74.9703 56.7293 72.2271M66.3339 91.1388C74.163 93.77 77.0801 95.7239 79.758 100.019C76.7226 96.7776 72.9501 94.8027 68.3824 93.8333M59.7836 93.1005C69.7443 96.3276 78.5088 102.164 79.3983 109.482C80.645 105.464 76.6692 99.2347 68.3824 93.8333M59.7836 93.1005C63.0297 93.0689 65.7902 93.2831 68.3824 93.8333" stroke="black" stroke-width="1.20264"/>
</svg>
