<svg width="25" height="25" viewBox="0 0 25 25" fill="none" xmlns="http://www.w3.org/2000/svg">
<path fill-rule="evenodd" clip-rule="evenodd" d="M22.6562 12.5L23.3046 12.175V12.1719L23.2999 12.1672L23.2906 12.1484L23.2578 12.0859L23.1328 11.8609C22.9802 11.5978 22.8181 11.3404 22.6468 11.0891C22.0751 10.2499 21.418 9.47233 20.6859 8.76875C18.9265 7.08125 16.2187 5.35938 12.4999 5.35938C8.78432 5.35938 6.07495 7.07969 4.31557 8.76875C3.58348 9.47233 2.92632 10.2499 2.35463 11.0891C2.12266 11.4313 1.90781 11.7849 1.71088 12.1484L1.70151 12.1672L1.69838 12.1719V12.1734C1.69838 12.1734 1.69682 12.175 2.34526 12.5L1.69682 12.1734C1.64669 12.2747 1.62061 12.3862 1.62061 12.4992C1.62061 12.6122 1.64669 12.7237 1.69682 12.825L1.69526 12.8281L1.69995 12.8328L1.70932 12.8516C1.75804 12.9492 1.81016 13.0451 1.86557 13.1391C2.53838 14.2756 3.36143 15.3163 4.31245 16.2328C6.07338 17.9203 8.7812 19.6391 12.4999 19.6391C16.2171 19.6391 18.9265 17.9203 20.6874 16.2312C21.4182 15.5268 22.0747 14.7493 22.6468 13.9109C22.8659 13.5884 23.0698 13.2557 23.2578 12.9141L23.2906 12.8516L23.2999 12.8328L23.3031 12.8281V12.8266C23.3031 12.8266 23.3046 12.825 22.6562 12.5ZM22.6562 12.5L23.3046 12.8266C23.3548 12.7253 23.3808 12.6138 23.3808 12.5008C23.3808 12.3878 23.3548 12.2763 23.3046 12.175L22.6562 12.5ZM12.4062 10.1C11.7697 10.1 11.1592 10.3529 10.7091 10.8029C10.2591 11.253 10.0062 11.8635 10.0062 12.5C10.0062 13.1365 10.2591 13.747 10.7091 14.1971C11.1592 14.6471 11.7697 14.9 12.4062 14.9C13.0427 14.9 13.6532 14.6471 14.1033 14.1971C14.5533 13.747 14.8062 13.1365 14.8062 12.5C14.8062 11.8635 14.5533 11.253 14.1033 10.8029C13.6532 10.3529 13.0427 10.1 12.4062 10.1ZM8.55932 12.5C8.55932 11.4789 8.96495 10.4997 9.68696 9.77764C10.409 9.05562 11.3882 8.65 12.4093 8.65C13.4304 8.65 14.4097 9.05562 15.1317 9.77764C15.8537 10.4997 16.2593 11.4789 16.2593 12.5C16.2593 13.5211 15.8537 14.5003 15.1317 15.2224C14.4097 15.9444 13.4304 16.35 12.4093 16.35C11.3882 16.35 10.409 15.9444 9.68696 15.2224C8.96495 14.5003 8.55932 13.5211 8.55932 12.5Z" fill="#8B4513"/>
</svg>
